<svg width="180" height="180" viewBox="0 0 180 180" fill="none" xmlns="http://www.w3.org/2000/svg">
<path d="M95.4303 79.3281H142.36L155 135.4V139.024H129.732L118.895 113.692L91.8255 177L73.7676 171.581L95.4303 79.3281Z" fill="#434343"/>
<path d="M138.745 91.983H145.206L142.361 79.3281H131.535V84.7468C131.535 86.664 132.294 88.5028 133.646 89.8595C134.998 91.2162 136.832 91.98 138.745 91.983Z" fill="#30302F"/>
<path d="M106.268 84.7468V79.3281H95.4309L92.4609 91.983H99.0697C100.981 91.977 102.812 91.2119 104.161 89.8555C105.51 88.4991 106.268 86.662 106.268 84.7468Z" fill="#585858"/>
<path d="M118.895 79.3281V113.692L122.511 108.273V79.3281H118.895Z" fill="#30302F"/>
<path d="M154.999 139.023H118.895V155.302L136.952 158.915L154.999 142.636V139.023Z" fill="#30302F"/>
<path d="M142.362 72.0918H95.4316V79.328H142.362V72.0918Z" fill="#E97522"/>
<path d="M109.872 72.0918H106.268V79.328H109.872V72.0918Z" fill="#EE7E3B"/>
<path d="M135.14 72.0918H131.535V79.328H135.14V72.0918Z" fill="#EE7E3B"/>
<path d="M124.574 72.0918H117.354V79.328H124.574V72.0918Z" fill="#D7E5ED"/>
<path d="M126.276 49.2254L111.369 34.2418L95.8163 31.4132C94.9175 31.2385 93.986 31.4074 93.2054 31.8869C92.4249 32.3663 91.8519 33.1214 91.5993 34.0033C89.933 40.1489 83.6643 44.6361 76.2053 44.6361C68.7464 44.6361 62.5117 40.024 60.834 33.9919C60.5747 33.1143 60.0004 32.364 59.2217 31.8857C58.443 31.4074 57.5151 31.2351 56.6171 31.4019L41.0417 34.2418L26.0898 49.2254C25.7443 49.5715 25.4702 49.9823 25.2832 50.4345C25.0962 50.8867 25 51.3714 25 51.8609C25 52.3504 25.0962 52.8351 25.2832 53.2873C25.4702 53.7395 25.7443 54.1504 26.0898 54.4964L34.8977 63.323C35.243 63.6692 35.653 63.9439 36.1042 64.1313C36.5555 64.3187 37.0392 64.4151 37.5276 64.4151C38.0161 64.4151 38.4997 64.3187 38.951 64.1313C39.4022 63.9439 39.8122 63.6692 40.1575 63.323L44.5558 58.904V118.816H93.7871L107.855 104.775V58.904L112.253 63.323C112.598 63.6692 113.008 63.9439 113.46 64.1313C113.911 64.3187 114.395 64.4151 114.883 64.4151C115.372 64.4151 115.855 64.3187 116.306 64.1313C116.758 63.9439 117.168 63.6692 117.513 63.323L126.276 54.4964C126.621 54.1504 126.895 53.7395 127.082 53.2873C127.269 52.8351 127.365 52.3504 127.365 51.8609C127.365 51.3714 127.269 50.8867 127.082 50.4345C126.895 49.9823 126.621 49.5715 126.276 49.2254Z" fill="#83BCDC"/>
<path d="M93.7863 118.814L107.854 104.773H96.8017C95.9959 104.773 95.2232 105.094 94.6535 105.665C94.0837 106.236 93.7637 107.01 93.7637 107.818L93.7863 118.814Z" fill="#6DB8E8"/>
<path d="M57.1275 34.6167C59.2132 42.0688 66.8989 47.7373 76.1716 47.7373C85.4443 47.7373 93.1753 42.1937 95.2271 34.6281C95.406 33.9943 95.7238 33.4085 96.1571 32.9133C96.5905 32.4181 97.1286 32.0259 97.7323 31.7654L95.7825 31.4132C94.8837 31.2385 93.9523 31.4074 93.1717 31.8869C92.3911 32.3663 91.8181 33.1214 91.5656 34.0033C89.8992 40.1489 83.6305 44.6361 76.1716 44.6361C68.7126 44.6361 62.512 40.024 60.8343 33.9919C60.575 33.1143 60.0006 32.364 59.2219 31.8857C58.4432 31.4074 57.5154 31.2351 56.6173 31.4019L54.6562 31.7654C55.2541 32.0261 55.7863 32.4174 56.2139 32.9108C56.6414 33.4041 56.9536 33.9869 57.1275 34.6167Z" fill="#474748"/>
<path d="M76.2065 89.8701C84.3578 89.8701 90.9657 83.2481 90.9657 75.0796C90.9657 66.911 84.3578 60.2891 76.2065 60.2891C68.0552 60.2891 61.4473 66.911 61.4473 75.0796C61.4473 83.2481 68.0552 89.8701 76.2065 89.8701Z" fill="white"/>
<path d="M76.2056 85.6669C82.0404 85.6669 86.7705 80.9268 86.7705 75.0795C86.7705 69.2323 82.0404 64.4922 76.2056 64.4922C70.3707 64.4922 65.6406 69.2323 65.6406 75.0795C65.6406 80.9268 70.3707 85.6669 76.2056 85.6669Z" fill="#ED6E24"/>
<path d="M72.2829 18.1217H62.1714C61.8765 18.1197 61.5849 18.184 61.3181 18.3098C61.0513 18.4356 60.8161 18.6198 60.6297 18.8487C60.4407 19.0786 60.3051 19.3476 60.2326 19.6364C60.16 19.9252 60.1524 20.2265 60.2103 20.5186L61.0831 24.9149C61.2701 25.8306 61.7696 26.6525 62.4958 27.2392C63.2219 27.8259 64.1293 28.1408 65.062 28.1297H69.4943C70.4178 28.1297 71.313 27.8096 72.0278 27.2237C72.7427 26.6377 73.2333 25.822 73.4165 24.9149L74.3007 20.5186C74.3584 20.2233 74.3493 19.9187 74.274 19.6273C74.1986 19.336 74.059 19.0653 73.8653 18.8353C73.6717 18.6052 73.4289 18.4217 73.1551 18.2982C72.8812 18.1747 72.5831 18.1144 72.2829 18.1217Z" fill="#30302F"/>
<path d="M63.7812 18.0527L72.4645 26.7544L74.2782 19.2001L70.3673 18.1663L63.7812 18.0527Z" fill="#4F4F4F"/>
<path d="M90.2629 18.1211H80.1513C79.8552 18.1202 79.5626 18.1854 79.2947 18.312C79.0268 18.4386 78.7904 18.6233 78.6027 18.8528C78.4149 19.0823 78.2805 19.3508 78.2091 19.6388C78.1378 19.9268 78.1313 20.2272 78.1902 20.518L79.0744 24.9143C79.2552 25.8205 79.7436 26.636 80.4566 27.222C81.1696 27.8081 82.0631 28.1287 82.9853 28.1291H87.4289C88.3505 28.1265 89.243 27.8052 89.9555 27.2195C90.6681 26.6338 91.157 25.8195 91.3398 24.9143L92.224 20.518C92.2807 20.2274 92.2727 19.9278 92.2006 19.6407C92.1284 19.3535 91.9938 19.0859 91.8065 18.8569C91.6191 18.6279 91.3836 18.4432 91.1168 18.316C90.8499 18.1888 90.5584 18.1223 90.2629 18.1211Z" fill="#30302F"/>
<path d="M82.2344 18.0527L90.9176 26.7544L92.7313 19.2001L88.8205 18.1663L82.2344 18.0527Z" fill="#4F4F4F"/>
<path d="M77.7105 21.53C77.2571 21.2622 76.7404 21.121 76.2142 21.121C75.6879 21.121 75.1712 21.2622 74.7178 21.53C74.6044 21.6059 74.4767 21.6578 74.3425 21.6823C74.2083 21.7068 74.0705 21.7035 73.9377 21.6725C73.8048 21.6416 73.6797 21.5836 73.5701 21.5023C73.4604 21.421 73.3686 21.318 73.3003 21.1997C73.2319 21.0814 73.1885 20.9503 73.1727 20.8146C73.1569 20.6788 73.1691 20.5412 73.2085 20.4103C73.2478 20.2795 73.3136 20.1581 73.4016 20.0537C73.4896 19.9492 73.5981 19.864 73.7203 19.8033C74.4758 19.3567 75.337 19.1211 76.2142 19.1211C77.0913 19.1211 77.9525 19.3567 78.708 19.8033C78.8302 19.864 78.9387 19.9492 79.0267 20.0537C79.1148 20.1581 79.1805 20.2795 79.2199 20.4103C79.2592 20.5412 79.2714 20.6788 79.2556 20.8146C79.2398 20.9503 79.1964 21.0814 79.1281 21.1997C79.0597 21.318 78.9679 21.421 78.8583 21.5023C78.7486 21.5836 78.6235 21.6416 78.4907 21.6725C78.3578 21.7035 78.22 21.7068 78.0858 21.6823C77.9516 21.6578 77.8239 21.6059 77.7105 21.53Z" fill="#6E6E6E"/>
<path d="M72.2864 17.1218H62.1748H61.9595L64.6007 5.76199C64.636 5.61571 64.7037 5.47929 64.7989 5.36291C64.8941 5.24653 65.0143 5.15319 65.1505 5.08985C65.2867 5.02651 65.4355 4.99481 65.5856 4.99711C65.7358 4.9994 65.8835 5.03564 66.0177 5.10312L67.7861 5.98919C68.0183 6.08008 68.276 6.08056 68.5085 5.99055C68.741 5.90053 68.9315 5.72654 69.0424 5.50283C69.1533 5.27912 69.1766 5.0219 69.1077 4.78182C69.0389 4.54175 68.8828 4.33621 68.6703 4.20569L66.9019 3.31963C66.5 3.11712 66.0577 3.00801 65.6079 3.00042C65.1581 2.99284 64.7124 3.08697 64.3039 3.27582C63.8954 3.46466 63.5347 3.74336 63.2485 4.09119C62.9623 4.43903 62.7581 4.84704 62.651 5.28488L59.5449 18.6895C59.2049 19.3051 59.0963 20.0225 59.2389 20.7115L60.1117 25.1078C60.3433 26.2501 60.9642 27.2761 61.8681 28.0098C62.7719 28.7436 63.9023 29.1393 65.0655 29.1292H69.4978C70.6532 29.1288 71.7729 28.7282 72.6674 27.9954C73.5619 27.2626 74.1761 26.2424 74.4062 25.1078L75.2677 20.7115C75.3536 20.2726 75.3409 19.82 75.2304 19.3866C75.1198 18.9533 74.9144 18.55 74.6288 18.2062C74.3433 17.8624 73.9849 17.5867 73.5797 17.3992C73.1745 17.2116 72.7327 17.1168 72.2864 17.1218ZM73.2613 20.3139L72.3884 24.7102C72.2525 25.3909 71.8859 26.0036 71.3509 26.4446C70.8158 26.8855 70.1452 27.1276 69.4524 27.1298H65.0655C64.3722 27.1298 63.7004 26.8885 63.1649 26.4471C62.6294 26.0058 62.2634 25.3919 62.1295 24.7102L61.2566 20.3707L61.4607 19.496C61.5548 19.3863 61.6713 19.2981 61.8023 19.2373C61.9333 19.1766 62.0758 19.1447 62.2202 19.1439H72.3317C72.4726 19.1514 72.6102 19.1888 72.7355 19.2535C72.8609 19.3183 72.9711 19.4089 73.059 19.5195C73.1468 19.6301 73.2103 19.758 73.2451 19.895C73.28 20.0319 73.2855 20.1747 73.2613 20.3139Z" fill="#6E6E6E"/>
<path d="M92.8918 18.7005L89.7744 5.28454C89.666 4.8477 89.4607 4.44093 89.174 4.09441C88.8872 3.74789 88.5263 3.4705 88.118 3.28282C87.7097 3.09515 87.2645 3.00199 86.8153 3.01027C86.3662 3.01855 85.9247 3.12805 85.5235 3.33065L83.7551 4.21672C83.5333 4.34368 83.3685 4.55109 83.2948 4.7962C83.221 5.04131 83.2439 5.30543 83.3588 5.53412C83.4736 5.76281 83.6716 5.93864 83.912 6.02536C84.1523 6.11207 84.4167 6.10307 84.6507 6.00021L86.419 5.11414C86.5521 5.04861 86.6979 5.01326 86.8461 5.01061C86.9943 5.00796 87.1413 5.03808 87.2766 5.09881C87.4119 5.15955 87.5321 5.24941 87.6288 5.36201C87.7255 5.47461 87.7963 5.60718 87.836 5.75029L90.4773 17.1101H90.2619H80.1504C79.5082 17.1103 78.8832 17.3183 78.3685 17.7031C77.8538 18.0879 77.4769 18.629 77.2937 19.2458C76.9223 19.1571 76.542 19.1114 76.1602 19.1095V21.1088C76.5485 21.1052 76.9338 21.1785 77.2937 21.3246L78.0419 25.0961C78.2715 26.2288 78.8841 27.2475 79.7763 27.9801C80.6685 28.7127 81.7855 29.1145 82.939 29.1175H87.3826C88.536 29.1145 89.6531 28.7127 90.5453 27.9801C91.4374 27.2475 92.05 26.2288 92.2797 25.0961L93.1525 20.6998C93.3013 20.0233 93.2091 19.316 92.8918 18.7005ZM90.3639 24.7098C90.228 25.3906 89.8614 26.0033 89.3264 26.4442C88.7914 26.8852 88.1207 27.1273 87.4279 27.1295H82.9843C82.2916 27.1273 81.6209 26.8852 81.0858 26.4442C80.5508 26.0033 80.1843 25.3906 80.0483 24.7098L79.1981 20.484C79.2035 20.4616 79.2035 20.4382 79.1981 20.4158V20.3136C79.1769 20.1729 79.1863 20.0294 79.2255 19.8927C79.2648 19.756 79.333 19.6294 79.4256 19.5215C79.5181 19.4137 79.6328 19.3271 79.7618 19.2677C79.8908 19.2084 80.0311 19.1777 80.173 19.1776H90.2846C90.4292 19.1769 90.5722 19.2081 90.7034 19.269C90.8347 19.3298 90.951 19.4189 91.044 19.5298L91.2481 20.4045L90.3639 24.7098Z" fill="#6E6E6E"/>
<path d="M55.5977 151.247C56.0346 151.977 56.626 152.601 57.3301 153.077C58.0343 153.552 58.8339 153.867 59.6728 154C60.5116 154.132 61.3692 154.078 62.185 153.842C63.0008 153.606 63.7549 153.193 64.3942 152.633C67.5723 149.745 70.9022 147.03 74.3697 144.499C75.3976 143.783 76.2375 142.828 76.8178 141.717C77.3981 140.605 77.7016 139.369 77.7025 138.115C77.7025 136.615 77.7705 137.774 71.105 114.259C71.0828 114.166 71.0419 114.079 70.9847 114.002C70.9276 113.925 70.8554 113.861 70.7727 113.813C70.6899 113.765 70.5983 113.735 70.5034 113.724C70.4085 113.712 70.3124 113.721 70.2208 113.748L61.3109 116.395L62.4445 144.363L55.5977 151.247Z" fill="#C8E2F1"/>
<path d="M63.7009 124.631L73.3137 121.894L72.5089 119.088L62.8848 121.814L63.7009 124.631Z" fill="#E97522"/>
<path d="M59.8023 113.727L49.09 116.896C48.913 116.947 48.7627 117.065 48.6706 117.225C48.634 117.31 48.6152 117.401 48.6152 117.492C48.6152 117.584 48.634 117.675 48.6706 117.759L53.5223 135.935C53.5603 136.057 53.5645 136.187 53.5346 136.311C53.5046 136.435 53.4416 136.548 53.3522 136.639L46.0066 144.285C45.024 145.3 44.455 146.647 44.411 148.061C44.3669 149.475 44.8511 150.855 45.7686 151.93C46.266 152.523 46.8767 153.01 47.5647 153.363C48.2527 153.716 49.0042 153.928 49.775 153.987C50.5458 154.045 51.3205 153.948 52.0536 153.702C52.7866 153.456 53.4632 153.066 54.0437 152.554L59.0881 148.238C60.6223 146.935 62.2357 145.701 63.9285 144.534C65.256 143.613 66.2626 142.298 66.8074 140.774C67.3522 139.25 67.4078 137.594 66.9665 136.037L60.6638 114.283C60.6416 114.19 60.6007 114.102 60.5435 114.026C60.4864 113.949 60.4142 113.885 60.3315 113.837C60.2487 113.789 60.1571 113.759 60.0622 113.748C59.9673 113.736 59.8712 113.745 59.7796 113.772L59.8023 113.727Z" fill="#DAF4FF"/>
<path d="M62.8967 121.894L50.654 125.381L49.8945 122.564L62.0918 119.088L62.8967 121.894Z" fill="#E97522"/>
</svg>
