<svg width="152" height="165" viewBox="0 0 152 165" fill="none" xmlns="http://www.w3.org/2000/svg">
<path fill-rule="evenodd" clip-rule="evenodd" d="M33.1849 95.6758C13.7303 99.6281 1 106.199 1 113.642C1 117.474 2.5624 125.874 10.2909 124.199C19.7101 119.22 35.589 115.421 54.6328 113.779C53.5875 108.477 50.2781 104.683 46.2633 100.985C43.3309 98.2844 40.9901 96.2563 33.1849 95.6758Z" fill="#306694"/>
<path fill-rule="evenodd" clip-rule="evenodd" d="M118.808 95.6758C113.495 103.512 98.429 99.2595 97.3594 113.779C116.403 115.421 132.282 119.22 141.701 124.199C149.756 124.726 151.001 117.475 151.001 113.642C151.001 106.199 138.262 99.6281 118.808 95.6758V95.6758Z" fill="#306694"/>
<path fill-rule="evenodd" clip-rule="evenodd" d="M141.699 124.2C136.788 126.801 130.132 129.068 122.184 130.882C120.704 131.224 120.533 132.062 120.533 133.483V151.141C120.533 151.808 120.662 152.236 121.431 152.065C139.398 148.069 150.999 141.755 150.999 134.655V113.643C150.999 117.476 147.628 121.069 141.699 124.2V124.2Z" fill="#83BCDC"/>
<path fill-rule="evenodd" clip-rule="evenodd" d="M75.9954 135.527C47.7032 135.527 23.064 130.95 10.2909 124.2C4.37089 121.069 1 117.476 1 113.643V134.655C1 146.743 34.5794 156.539 75.9954 156.539V164.658C75.9954 164.786 76.0039 164.897 76.0212 165H77.2959L102.072 147.102C103.107 146.581 103.107 145.477 102.072 144.955L76.9965 126.852C76.2693 126.484 75.9954 126.561 75.9954 127.408V135.527Z" fill="#83BCDC"/>
<g filter="url(#filter0_d_9899_9033)">
<path fill-rule="evenodd" clip-rule="evenodd" d="M75.9957 15C47.4468 15 24.3047 38.142 24.3047 66.6912C24.3047 77.428 27.5812 87.4035 33.1851 95.6766C38.5066 103.513 45.924 109.819 54.6333 113.78C61.144 116.74 68.3817 118.383 75.996 118.383C83.6187 118.383 90.848 116.74 97.3586 113.78C106.068 109.819 113.494 103.513 118.807 95.6766C124.419 87.4038 127.687 77.428 127.687 66.6912C127.687 38.142 104.545 15 75.9957 15V15Z" fill="white"/>
</g>
<path fill-rule="evenodd" clip-rule="evenodd" d="M143.762 123.036V140.002C143.762 141.824 142.992 143.595 141.555 145.289C147.569 142.14 151 138.513 151 134.655V113.643C151 117.005 148.399 120.187 143.762 123.036Z" fill="#69B1DA"/>
<path fill-rule="evenodd" clip-rule="evenodd" d="M75.995 15C73.6849 15 71.4007 15.1539 69.168 15.4448C94.6884 18.6101 114.434 40.3665 114.434 66.7425C114.434 92.9815 94.8935 114.652 69.5699 117.989C71.6746 118.254 73.8218 118.382 75.995 118.382C83.6177 118.382 90.847 116.74 97.3576 113.779C106.067 109.818 113.493 103.513 118.806 95.676C124.418 87.4032 127.686 77.4274 127.686 66.6906C127.686 38.142 104.544 15 75.995 15V15Z" fill="#F5FAFF"/>
<path d="M53.34 64.6003C55.5322 64.958 57.2121 65.7807 58.3796 67.0684C59.5472 68.3323 60.131 69.9061 60.131 71.79C60.131 73.2447 59.7498 74.592 58.9873 75.832C58.2248 77.0482 57.0572 78.0259 55.4845 78.7652C53.9357 79.5044 52.0295 79.874 49.7658 79.874C48.0025 79.874 46.2631 79.6475 44.5474 79.1944C42.8557 78.7175 41.4141 78.0498 40.2227 77.1913L42.4744 72.7558C43.4275 73.4712 44.5236 74.0316 45.7627 74.437C47.0256 74.8186 48.3123 75.0093 49.6228 75.0093C51.0763 75.0093 52.2201 74.7351 53.0541 74.1866C53.8881 73.6143 54.305 72.8154 54.305 71.79C54.305 69.7392 52.7443 68.7138 49.6228 68.7138H46.9779V64.8864L52.1248 59.0559H41.4736V54.4058H58.9873V58.1617L53.34 64.6003Z" fill="#474748"/>
<path d="M74.8495 63.7418C76.446 63.7418 77.8995 64.0637 79.21 64.7076C80.5206 65.3514 81.5571 66.2695 82.3196 67.4619C83.0821 68.6303 83.4633 69.9896 83.4633 71.5396C83.4633 73.2089 83.0463 74.6755 82.2124 75.9393C81.3784 77.2032 80.2346 78.1809 78.7811 78.8725C77.3514 79.5402 75.755 79.874 73.9917 79.874C70.489 79.874 67.7487 78.8009 65.771 76.6547C63.7933 74.5085 62.8044 71.4442 62.8044 67.4619C62.8044 64.6241 63.3405 62.1917 64.4128 60.1648C65.4851 58.1378 66.9743 56.5997 68.8806 55.5504C70.8106 54.5012 73.0386 53.9766 75.5643 53.9766C76.8987 53.9766 78.1735 54.1316 79.3887 54.4416C80.6278 54.7277 81.6762 55.145 82.534 55.6935L80.3895 59.9502C79.1505 59.1155 77.5897 58.6982 75.7073 58.6982C73.5866 58.6982 71.9067 59.3182 70.6677 60.5582C69.4286 61.7983 68.7614 63.5987 68.6661 65.9595C70.1434 64.481 72.2046 63.7418 74.8495 63.7418ZM73.67 75.5459C74.9091 75.5459 75.9098 75.212 76.6723 74.5443C77.4587 73.8766 77.8518 72.9704 77.8518 71.8258C77.8518 70.6812 77.4587 69.775 76.6723 69.1073C75.9098 68.4157 74.8852 68.0699 73.5985 68.0699C72.3356 68.0699 71.2991 68.4276 70.489 69.143C69.6788 69.8346 69.2737 70.7288 69.2737 71.8258C69.2737 72.9227 69.6669 73.817 70.4532 74.5085C71.2395 75.2001 72.3118 75.5459 73.67 75.5459Z" fill="#474748"/>
<path d="M96.2847 79.874C94.2117 79.874 92.365 79.3613 90.7447 78.3359C89.1244 77.3105 87.8496 75.832 86.9203 73.9005C86.0148 71.945 85.5621 69.62 85.5621 66.9253C85.5621 64.2306 86.0148 61.9175 86.9203 59.9859C87.8496 58.0305 89.1244 56.5401 90.7447 55.5147C92.365 54.4893 94.2117 53.9766 96.2847 53.9766C98.3577 53.9766 100.204 54.4893 101.825 55.5147C103.445 56.5401 104.708 58.0305 105.613 59.9859C106.543 61.9175 107.007 64.2306 107.007 66.9253C107.007 69.62 106.543 71.945 105.613 73.9005C104.708 75.832 103.445 77.3105 101.825 78.3359C100.204 79.3613 98.3577 79.874 96.2847 79.874ZM96.2847 74.9736C97.8097 74.9736 99.0011 74.3178 99.8589 73.0062C100.741 71.6946 101.181 69.6677 101.181 66.9253C101.181 64.1829 100.741 62.156 99.8589 60.8444C99.0011 59.5328 97.8097 58.8771 96.2847 58.8771C94.7835 58.8771 93.5921 59.5328 92.7105 60.8444C91.8527 62.156 91.4238 64.1829 91.4238 66.9253C91.4238 69.6677 91.8527 71.6946 92.7105 73.0062C93.5921 74.3178 94.7835 74.9736 96.2847 74.9736Z" fill="#474748"/>
<path d="M107.928 50.3877C107.042 51.2741 107.042 52.7113 107.928 53.5979C108.371 54.0413 108.952 54.2629 109.532 54.2629C110.112 54.2629 110.693 54.0413 111.136 53.5979L111.144 53.5894C112.03 52.7031 112.026 51.27 111.14 50.3836C110.254 49.4967 108.814 49.5014 107.928 50.3877V50.3877Z" fill="#474748"/>
<defs>
<filter id="filter0_d_9899_9033" x="0.304688" y="-9" width="151.383" height="151.383" filterUnits="userSpaceOnUse" color-interpolation-filters="sRGB">
<feFlood flood-opacity="0" result="BackgroundImageFix"/>
<feColorMatrix in="SourceAlpha" type="matrix" values="0 0 0 0 0 0 0 0 0 0 0 0 0 0 0 0 0 0 127 0" result="hardAlpha"/>
<feOffset/>
<feGaussianBlur stdDeviation="12"/>
<feColorMatrix type="matrix" values="0 0 0 0 0.702778 0 0 0 0 0.839667 0 0 0 0 0.916667 0 0 0 0.25 0"/>
<feBlend mode="normal" in2="BackgroundImageFix" result="effect1_dropShadow_9899_9033"/>
<feBlend mode="normal" in="SourceGraphic" in2="effect1_dropShadow_9899_9033" result="shape"/>
</filter>
</defs>
</svg>
