<svg width="180" height="180" viewBox="0 0 180 180" fill="none" xmlns="http://www.w3.org/2000/svg">
<path d="M113.498 29.7305H49.1537C48.2005 29.7305 47.4277 30.5024 47.4277 31.4547V61.4598C47.4277 62.4121 48.2005 63.184 49.1537 63.184H113.498C114.451 63.184 115.224 62.4121 115.224 61.4598V31.4547C115.224 30.5024 114.451 29.7305 113.498 29.7305Z" fill="#83BCDC"/>
<g opacity="0.5">
<path opacity="0.5" d="M115.225 31.4528C115.225 30.9955 115.043 30.5569 114.719 30.2335C114.396 29.9102 113.957 29.7285 113.499 29.7285H105.562L104.731 36.6144L104.232 40.8561L101.995 59.8974C101.995 60.0092 101.995 60.1209 101.973 60.2326C101.972 60.6185 102.047 61.0008 102.194 61.3576C102.341 61.7145 102.556 62.039 102.829 62.3125C103.101 62.586 103.425 62.8033 103.781 62.9519C104.138 63.1004 104.52 63.1774 104.906 63.1784H113.48C113.937 63.1764 114.374 62.994 114.697 62.671C115.02 62.3479 115.201 61.9105 115.202 61.4541V31.4528H115.225Z" fill="#A5B3C9"/>
</g>
<path d="M110.242 34.0195H52.4029C52.0261 34.0195 51.7207 34.3247 51.7207 34.701V58.2113C51.7207 58.5877 52.0261 58.8928 52.4029 58.8928H110.242C110.619 58.8928 110.925 58.5877 110.925 58.2113V34.701C110.925 34.3247 110.619 34.0195 110.242 34.0195Z" fill="white"/>
<path d="M110.94 34.6813C110.938 34.5913 110.918 34.5027 110.88 34.4206C110.843 34.3386 110.79 34.2647 110.724 34.2033C110.659 34.142 110.581 34.0943 110.496 34.0632C110.412 34.0321 110.322 34.0182 110.232 34.0222H105.035L104.73 36.629L104.23 40.8559L102.105 58.8991H110.232C110.324 58.9021 110.416 58.8865 110.502 58.8532C110.588 58.8199 110.667 58.7695 110.733 58.7052C110.799 58.6409 110.851 58.5639 110.887 58.4788C110.923 58.3938 110.941 58.3024 110.94 58.2102V34.6813Z" fill="#CED8E8"/>
<path d="M147.447 144.531C147.082 144.488 146.729 144.373 146.408 144.193C146.088 144.014 145.805 143.772 145.578 143.484C145.35 143.195 145.182 142.864 145.083 142.51C144.983 142.156 144.955 141.787 144.998 141.422L147.134 123.27L147.597 119.226L148.368 112.668H158.597L159.376 119.23L159.838 123.278L161.982 141.425C161.994 141.532 162 141.639 162.001 141.746C162.002 142.114 161.93 142.478 161.79 142.818C161.65 143.158 161.444 143.467 161.185 143.728C160.925 143.989 160.617 144.196 160.277 144.338C159.937 144.479 159.573 144.553 159.205 144.554H147.764C147.658 144.552 147.553 144.544 147.447 144.531Z" fill="#D2E2EB"/>
<g opacity="0.5">
<path opacity="0.8" d="M158.991 141.744C158.991 142.487 158.696 143.2 158.17 143.726C157.645 144.251 156.932 144.547 156.188 144.548H159.2C159.307 144.548 159.414 144.541 159.52 144.53C159.886 144.487 160.239 144.372 160.56 144.193C160.881 144.014 161.163 143.773 161.391 143.484C161.619 143.196 161.787 142.865 161.887 142.512C161.987 142.158 162.016 141.789 161.973 141.424L159.833 123.272L159.371 119.228L158.596 112.67H155.58L156.37 119.232L156.833 123.28L158.972 141.427C158.986 141.532 158.992 141.638 158.991 141.744Z" fill="white"/>
</g>
<path d="M154.246 108.896C153.873 107.51 153.959 104.546 156.785 103.354C158.037 102.822 158.947 101.652 158.876 100.773C158.805 99.8945 157.791 99.1794 156.035 98.766C153.322 98.133 151.756 96.6321 151.845 94.7477C151.942 92.7107 154.231 90.3384 159.088 89.6681C159.201 89.6492 159.316 89.6529 159.427 89.6791C159.538 89.7052 159.643 89.7532 159.735 89.8202C159.827 89.8873 159.905 89.972 159.964 90.0695C160.023 90.167 160.062 90.2753 160.079 90.388C160.095 90.5007 160.089 90.6156 160.061 90.726C160.032 90.8363 159.982 90.9399 159.913 91.0307C159.844 91.1214 159.758 91.1975 159.659 91.2545C159.56 91.3115 159.451 91.3482 159.338 91.3625C155.61 91.8653 153.612 93.5002 153.545 94.8483C153.497 95.8426 154.567 96.7103 156.419 97.1274C159.845 97.9319 160.498 99.671 160.58 100.643C160.74 102.527 159.126 104.233 157.448 104.944C155.312 105.842 155.83 108.222 155.901 108.493C155.955 108.712 155.92 108.942 155.805 109.135C155.69 109.328 155.504 109.468 155.286 109.525C155.217 109.543 155.145 109.552 155.074 109.551C154.882 109.551 154.696 109.486 154.546 109.367C154.395 109.248 154.29 109.082 154.246 108.896Z" fill="#306694"/>
<path d="M151.2 108.928L148.68 99.8303C148.643 99.7208 148.628 99.6049 148.637 99.4896C148.646 99.3743 148.679 99.2621 148.733 99.1597C148.786 99.0573 148.86 98.9669 148.95 98.894C149.04 98.8211 149.144 98.7672 149.255 98.7356C149.366 98.704 149.483 98.6953 149.598 98.7102C149.713 98.725 149.823 98.763 149.923 98.8218C150.023 98.8807 150.109 98.9592 150.177 99.0525C150.246 99.1458 150.294 99.2521 150.32 99.3648L152.844 108.47C152.874 108.578 152.883 108.69 152.869 108.801C152.855 108.912 152.82 109.019 152.765 109.116C152.71 109.214 152.636 109.299 152.548 109.368C152.46 109.436 152.359 109.487 152.251 109.517C152.176 109.538 152.098 109.548 152.02 109.546C151.835 109.547 151.654 109.487 151.506 109.375C151.358 109.264 151.251 109.107 151.2 108.928Z" fill="#306694"/>
<path d="M160.146 110.688C160.145 111.215 159.935 111.72 159.562 112.092C159.189 112.464 158.683 112.673 158.155 112.673H148.668C148.141 112.673 147.635 112.464 147.262 112.092C146.889 111.72 146.679 111.215 146.678 110.688C146.678 110.16 146.887 109.655 147.261 109.282C147.634 108.909 148.14 108.699 148.668 108.699H158.163C158.69 108.701 159.194 108.912 159.566 109.284C159.937 109.657 160.146 110.162 160.146 110.688Z" fill="#D2E2EB"/>
<path d="M147.596 119.232H159.372L159.849 123.281H147.115L147.596 119.232Z" fill="#E97522"/>
<path d="M156.831 123.281H159.846L159.369 119.232H156.354L156.831 123.281Z" fill="#EE7E3B"/>
<g opacity="0.5">
<path opacity="0.8" d="M146.686 110.822C146.716 111.326 146.938 111.8 147.306 112.146C147.673 112.492 148.16 112.684 148.665 112.684H158.174C158.435 112.682 158.693 112.629 158.934 112.528C159.174 112.426 159.392 112.278 159.575 112.092C159.758 111.907 159.903 111.687 160.001 111.445C160.099 111.204 160.148 110.945 160.146 110.685C160.144 110.159 159.934 109.655 159.561 109.284C159.187 108.914 158.682 108.706 158.156 108.707H157.999V110.811L146.686 110.822Z" fill="white"/>
</g>
<path d="M50.1278 138.798V146.831C50.1322 146.997 50.1035 147.162 50.0431 147.316C49.9828 147.471 49.8921 147.612 49.7765 147.731C49.6608 147.85 49.5225 147.945 49.3696 148.009C49.2168 148.074 49.0525 148.108 48.8864 148.108H36.4582C36.2942 148.107 36.132 148.074 35.9808 148.01C35.8297 147.947 35.6926 147.854 35.5773 147.738C35.462 147.621 35.3709 147.483 35.309 147.331C35.2472 147.179 35.2158 147.017 35.2168 146.853V138.798C35.2158 138.634 35.2472 138.472 35.309 138.32C35.3709 138.168 35.462 138.03 35.5773 137.914C35.6926 137.797 35.8297 137.704 35.9808 137.641C36.132 137.577 36.2942 137.544 36.4582 137.543H48.8864C49.0504 137.544 49.2126 137.577 49.3638 137.641C49.5149 137.704 49.652 137.797 49.7673 137.914C49.8826 138.03 49.9737 138.168 50.0356 138.32C50.0974 138.472 50.1288 138.634 50.1278 138.798ZM130.9 137.543H118.476C118.312 137.544 118.15 137.577 117.999 137.641C117.847 137.704 117.71 137.797 117.595 137.914C117.48 138.03 117.389 138.168 117.327 138.32C117.265 138.472 117.234 138.634 117.235 138.798V146.831C117.233 146.995 117.264 147.157 117.326 147.309C117.387 147.461 117.479 147.6 117.594 147.716C117.709 147.833 117.847 147.926 117.998 147.989C118.149 148.053 118.312 148.085 118.476 148.086H130.9C131.065 148.085 131.227 148.053 131.379 147.989C131.53 147.926 131.668 147.833 131.784 147.717C131.899 147.6 131.991 147.462 132.053 147.31C132.115 147.158 132.146 146.995 132.145 146.831V138.798C132.146 138.634 132.114 138.472 132.052 138.32C131.99 138.169 131.898 138.031 131.782 137.915C131.667 137.799 131.529 137.706 131.378 137.643C131.227 137.58 131.064 137.547 130.9 137.547V137.543Z" fill="#306694"/>
<path d="M136.12 86.0765V113.694C136.123 114.357 135.863 114.993 135.397 115.463C134.931 115.934 134.297 116.201 133.634 116.204H86.411C86.083 116.203 85.7586 116.136 85.4563 116.009C85.1541 115.882 84.8798 115.696 84.6493 115.463C84.4187 115.23 84.2364 114.954 84.1127 114.65C83.989 114.347 83.9263 114.022 83.9283 113.694C83.9313 114.357 83.6711 114.993 83.2049 115.463C82.7387 115.934 82.1046 116.201 81.4419 116.204H34.2189C33.5562 116.201 32.9221 115.934 32.4559 115.463C31.9897 114.993 31.7295 114.357 31.7325 113.694V86.0765C31.7286 85.4204 31.8541 84.7699 32.102 84.1623C32.3498 83.5546 32.715 83.0017 33.1769 82.5352C33.6387 82.0686 34.188 81.6976 34.7934 81.4432C35.3989 81.1888 36.0485 81.0561 36.7053 81.0527H78.9555C79.6123 81.0561 80.262 81.1888 80.8674 81.4432C81.4728 81.6976 82.0221 82.0686 82.484 82.5352C82.9458 83.0017 83.311 83.5546 83.5589 84.1623C83.8067 84.7699 83.9322 85.4204 83.9283 86.0765C83.9244 85.4207 84.0498 84.7705 84.2974 84.1631C84.545 83.5557 84.9099 83.003 85.3713 82.5365C85.8328 82.07 86.3816 81.6988 86.9866 81.4443C87.5916 81.1897 88.2409 81.0566 88.8974 81.0527H131.148C131.804 81.0561 132.454 81.1888 133.059 81.4432C133.665 81.6976 134.214 82.0686 134.676 82.5352C135.138 83.0017 135.503 83.5546 135.751 84.1623C135.999 84.7699 136.124 85.4204 136.12 86.0765Z" fill="#6C6B6B"/>
<path d="M136.12 86.0789V113.697C136.12 114.183 135.98 114.659 135.715 115.068C135.451 115.476 135.073 115.799 134.629 115.998V120.553H87.6597V120.62H80.2042V120.553H32.7277V115.712C32.4181 115.477 32.167 115.174 31.9943 114.827C31.8216 114.479 31.732 114.096 31.7324 113.708V110.125H58.0055C68.9874 110.125 77.8893 101.132 77.8893 90.0376V81.0625H78.9442C79.601 81.0659 80.2507 81.1986 80.8561 81.453C81.4615 81.7073 82.0109 82.0784 82.4727 82.5449C82.9345 83.0115 83.2998 83.5644 83.5476 84.172C83.7954 84.7797 83.921 85.4302 83.917 86.0863V105.098C83.9121 105.755 84.0372 106.407 84.2851 107.016C84.533 107.624 84.8988 108.178 85.3616 108.645C85.8243 109.112 86.3749 109.484 86.9817 109.738C87.5884 109.992 88.2394 110.123 88.8973 110.125H110.194C121.176 110.125 130.078 101.132 130.078 90.0376V81.0625H131.133C131.79 81.064 132.441 81.195 133.047 81.448C133.654 81.701 134.205 82.0711 134.668 82.5371C135.131 83.003 135.498 83.5557 135.747 84.1634C135.996 84.7712 136.123 85.4221 136.12 86.0789Z" fill="#30302F" fill-opacity="0.49"/>
<path d="M147.552 104.912V137.554C147.554 137.882 147.491 138.207 147.367 138.51C147.244 138.814 147.061 139.09 146.831 139.323C146.6 139.556 146.326 139.741 146.024 139.869C145.721 139.996 145.397 140.062 145.069 140.064H22.7991C22.4711 140.062 22.1467 139.996 21.8445 139.869C21.5422 139.741 21.268 139.556 21.0374 139.323C20.8069 139.09 20.6246 138.814 20.5008 138.51C20.3771 138.207 20.3145 137.882 20.3165 137.554V104.912C20.3145 104.585 20.3771 104.26 20.5008 103.956C20.6246 103.653 20.8069 103.377 21.0374 103.144C21.268 102.911 21.5422 102.725 21.8445 102.598C22.1467 102.471 22.4711 102.404 22.7991 102.402H32.7298C33.3926 102.406 34.0267 102.673 34.4928 103.143C34.959 103.614 35.2192 104.25 35.2162 104.912V122.364H132.641V104.912C132.638 104.25 132.898 103.614 133.364 103.143C133.83 102.673 134.464 102.406 135.127 102.402H145.069C145.397 102.404 145.721 102.471 146.024 102.598C146.326 102.725 146.6 102.911 146.831 103.144C147.061 103.377 147.244 103.653 147.367 103.956C147.491 104.26 147.554 104.585 147.552 104.912Z" fill="#8C8C8C"/>
<path d="M147.549 104.912V137.554C147.551 137.882 147.488 138.207 147.365 138.51C147.241 138.814 147.058 139.09 146.828 139.323C146.597 139.556 146.323 139.741 146.021 139.869C145.719 139.996 145.394 140.062 145.066 140.064H139.598C140.26 140.06 140.894 139.794 141.361 139.323C141.827 138.852 142.087 138.216 142.084 137.554V104.912C142.087 104.25 141.827 103.614 141.361 103.143C140.894 102.673 140.26 102.406 139.598 102.402H145.066C145.394 102.404 145.719 102.471 146.021 102.598C146.323 102.725 146.597 102.911 146.828 103.144C147.058 103.377 147.241 103.653 147.365 103.956C147.488 104.26 147.551 104.585 147.549 104.912Z" fill="#858585"/>
<path d="M136.279 118.846V126.38C136.281 127.042 136.021 127.678 135.555 128.149C135.089 128.619 134.455 128.886 133.792 128.89H86.5691C86.2411 128.888 85.9167 128.821 85.6145 128.694C85.3122 128.567 85.038 128.382 84.8074 128.149C84.5769 127.915 84.3946 127.639 84.2708 127.336C84.1471 127.032 84.0845 126.708 84.0864 126.38C84.0894 127.042 83.8292 127.678 83.3631 128.149C82.8969 128.619 82.2628 128.886 81.6 128.89H34.3771C33.7143 128.886 33.0802 128.619 32.614 128.149C32.1478 127.678 31.8877 127.042 31.8907 126.38V118.846C31.8877 118.184 32.1478 117.548 32.614 117.077C33.0802 116.606 33.7143 116.34 34.3771 116.336H81.6C82.2628 116.34 82.8969 116.606 83.3631 117.077C83.8292 117.548 84.0894 118.184 84.0864 118.846C84.0845 118.518 84.1471 118.193 84.2708 117.89C84.3946 117.587 84.5769 117.31 84.8074 117.077C85.038 116.844 85.3122 116.659 85.6145 116.532C85.9167 116.404 86.2411 116.338 86.5691 116.336H133.792C134.455 116.34 135.089 116.606 135.555 117.077C136.021 117.548 136.281 118.184 136.279 118.846Z" fill="#30302F" fill-opacity="0.49"/>
<path d="M80.3989 118.814V126.254C80.4009 126.577 80.3377 126.899 80.2129 127.198C80.0882 127.498 79.9044 127.771 79.6719 128.001C79.4395 128.232 79.163 128.415 78.8584 128.54C78.5537 128.665 78.2268 128.731 77.8964 128.732H36.8736C36.2066 128.728 35.5684 128.465 35.0992 128C34.63 127.536 34.3681 126.907 34.3711 126.254V118.814C34.3681 118.161 34.63 117.532 35.0992 117.068C35.5684 116.603 36.2066 116.34 36.8736 116.336H77.8964C78.2268 116.337 78.5537 116.403 78.8584 116.528C79.163 116.653 79.4395 116.836 79.6719 117.067C79.9044 117.297 80.0882 117.57 80.2129 117.87C80.3377 118.17 80.4009 118.491 80.3989 118.814ZM130.426 116.336H89.4033C89.0732 116.338 88.7467 116.404 88.4425 116.529C88.1383 116.655 87.8623 116.838 87.6302 117.068C87.3982 117.298 87.2147 117.571 87.0902 117.87C86.9657 118.17 86.9026 118.491 86.9046 118.814V126.254C86.9046 126.905 87.1674 127.529 87.6356 127.991C88.1037 128.452 88.7393 128.714 89.4033 128.717H130.426C130.757 128.716 131.083 128.651 131.388 128.525C131.693 128.4 131.969 128.217 132.202 127.987C132.434 127.757 132.618 127.484 132.743 127.184C132.867 126.884 132.931 126.563 132.929 126.239V118.814C132.931 118.491 132.867 118.17 132.743 117.87C132.618 117.57 132.434 117.297 132.202 117.067C131.969 116.836 131.693 116.653 131.388 116.528C131.083 116.403 130.757 116.337 130.426 116.336Z" fill="#6E6E6E"/>
<path d="M39.9211 47.2852C39.9203 47.4103 39.9328 47.5351 39.9584 47.6576L42.0683 58.0217C42.0925 58.1494 42.1299 58.2742 42.1801 58.3941L35.0266 59.8465L32.7676 48.7376L39.9211 47.2852Z" fill="#30302F"/>
<path d="M34.4285 69.2405L24.7774 71.2031C24.4604 71.2678 24.1338 71.2694 23.8162 71.2078C23.4985 71.1462 23.1962 71.0226 22.9265 70.8441C22.6567 70.6656 22.4249 70.4357 22.2442 70.1676C22.0635 69.8994 21.9376 69.5983 21.8735 69.2815L17.0498 45.6223C16.985 45.3054 16.9834 44.9788 17.045 44.6613C17.1067 44.3437 17.2303 44.0414 17.409 43.7717C17.5876 43.5019 17.8177 43.2699 18.0861 43.089C18.3546 42.9082 18.656 42.7819 18.9733 42.7175L28.6244 40.7549C28.9425 40.6886 29.2705 40.686 29.5896 40.747C29.9087 40.8081 30.2126 40.9317 30.4836 41.1107C30.7546 41.2897 30.9875 41.5206 31.1687 41.79C31.35 42.0594 31.476 42.3619 31.5395 42.6803L36.3483 66.3395C36.4781 66.9784 36.3489 67.6427 35.989 68.1866C35.6291 68.7305 35.0679 69.1096 34.4285 69.2405Z" fill="#6E6E6E"/>
<path d="M41.4932 45.326L50.4658 43.505C50.7197 43.4529 50.9814 43.4515 51.2359 43.5009C51.4903 43.5503 51.7324 43.6495 51.9483 43.7928C52.1642 43.9362 52.3495 44.1207 52.4937 44.3359C52.6378 44.5511 52.7379 44.7927 52.7882 45.0467L54.9018 55.4109C55.0052 55.9229 54.9013 56.455 54.6127 56.8906C54.3241 57.3262 53.8745 57.6297 53.3623 57.7347L44.3933 59.5596C43.8808 59.6629 43.3482 59.559 42.9122 59.2707C42.4762 58.9824 42.1723 58.5332 42.0672 58.0215L39.9573 47.6573C39.9045 47.4035 39.9023 47.1417 39.951 46.887C39.9996 46.6323 40.0981 46.3897 40.2408 46.1731C40.3834 45.9566 40.5675 45.7702 40.7824 45.6249C40.9973 45.4795 41.2389 45.378 41.4932 45.326Z" fill="#6E6E6E"/>
<path d="M27.5514 40.9782L20.0661 42.5014L19.507 39.7641C19.4597 39.5111 19.5136 39.2496 19.6572 39.0358C19.8007 38.822 20.0225 38.673 20.2749 38.6208L25.8255 37.5036C26.0784 37.4503 26.3422 37.4985 26.5598 37.6379C26.7775 37.7773 26.9315 37.9966 26.9885 38.2484L27.5514 40.9782Z" fill="#E97522"/>
<path d="M32.7676 48.739L36.5214 47.9941L38.7804 59.0845L35.0266 59.8293L32.7676 48.739Z" fill="#30302F"/>
<path d="M33.3293 39.9077V39.9375C33.3178 40.1495 33.3892 40.3576 33.5282 40.5181C33.6673 40.6785 33.8633 40.7788 34.0749 40.7978L36.5911 40.9505C36.8026 40.961 37.01 40.8893 37.1698 40.7504C37.3296 40.6116 37.4295 40.4164 37.4485 40.2057V40.1759C37.4599 39.9639 37.3886 39.7558 37.2496 39.5953C37.1105 39.4349 36.9145 39.3346 36.7029 39.3156L34.1867 39.1592C33.9746 39.1488 33.7667 39.221 33.6068 39.3606C33.4469 39.5002 33.3474 39.6963 33.3293 39.9077Z" fill="#83BCDC"/>
<path d="M32.1169 36.115V36.089C31.9753 35.9272 31.9029 35.7163 31.9155 35.5017C31.928 35.2872 32.0245 35.0861 32.184 34.9419L34.0777 33.2698C34.2395 33.1322 34.4484 33.0626 34.6605 33.0758C34.8726 33.089 35.0712 33.1839 35.2147 33.3406C35.2919 33.42 35.3522 33.5143 35.392 33.6178C35.4317 33.7212 35.45 33.8316 35.4459 33.9423C35.4417 34.053 35.4151 34.1617 35.3676 34.2618C35.3202 34.3619 35.2529 34.4514 35.1699 34.5248L33.2762 36.2007C33.1109 36.3425 32.8961 36.413 32.6789 36.397C32.4616 36.3809 32.2595 36.2796 32.1169 36.115Z" fill="#83BCDC"/>
<path d="M28.5203 34.4794H28.4868C28.2756 34.4595 28.0801 34.359 27.9412 34.1987C27.8024 34.0385 27.7307 33.8309 27.7413 33.6191L27.8941 31.1091C27.9131 30.8984 28.0129 30.7032 28.1728 30.5643C28.3326 30.4255 28.5399 30.3538 28.7515 30.3643H28.785C28.9963 30.3842 29.1917 30.4847 29.3306 30.645C29.4695 30.8052 29.5411 31.0128 29.5306 31.2246L29.374 33.7234C29.3578 33.9355 29.2596 34.1329 29.1003 34.274C28.941 34.4151 28.733 34.4887 28.5203 34.4794Z" fill="#83BCDC"/>
<path d="M109.74 109.253L107.503 102.352C107.435 102.149 107.399 101.937 107.395 101.723L106.445 65.2266V68.932C106.443 70.2786 106.211 71.6149 105.759 72.8833L101.047 86.2901L102.404 88.3048C105.762 93.262 107.557 99.1109 107.556 105.097C107.556 106.529 107.413 107.957 107.131 109.361L105.789 115.997H107.906C108.436 115.997 108.944 115.787 109.319 115.413C109.693 115.038 109.904 114.53 109.904 114.001V110.277C109.904 109.929 109.848 109.584 109.74 109.253Z" fill="#E6B8B8"/>
<path d="M114.272 66.4384C113.669 61.8429 110.105 62.2824 109.501 57.6905C108.897 53.0987 112.461 52.6667 111.857 48.0749C111.253 43.4831 107.689 43.9188 107.085 39.327V36.5488H73.7146V39.327C73.1144 43.9263 69.5619 43.4868 68.9468 48.0749C68.3318 52.663 71.9029 53.0987 71.299 57.6905C70.6951 62.2824 67.1351 61.8504 66.5312 66.4384V67.5557C66.5528 68.603 66.9883 69.5994 67.7426 70.3271C68.4968 71.0548 69.5087 71.4549 70.5572 71.4399H109.698C110.89 71.4619 112.041 71.0106 112.899 70.1852C113.757 69.3599 114.253 68.2279 114.276 67.038V66.4645L114.272 66.4384Z" fill="#474748"/>
<path d="M105.885 51.6724C107.324 48.4771 98.8661 38.9434 96.6816 36.5488H94.8177L85.7221 40.2729L74.3301 43.2522C74.3301 43.2522 78.6654 53.419 78.1808 56.1525C77.6962 58.886 73.1633 63.4964 76.645 68.9671C77.2191 69.8795 78.3896 70.6914 79.9254 71.4176H107.928C110.877 66.0809 109.475 63.4815 107.555 61.1242C105.125 58.1374 104.23 55.3481 105.885 51.6724Z" fill="#30302F"/>
<path d="M89.5257 114.592H101.455L99.0128 132.393L97.149 142.359L97.354 144.314L96.4407 149.695C95.7953 149.389 95.0899 149.23 94.3755 149.23H91.6319C91.0999 149.231 90.5718 149.321 90.07 149.498L89.4922 144.306L89.9171 142.15L89.5108 132.3V114.592H89.5257Z" fill="#E6AFAC"/>
<path d="M87.8285 150.389L87.9738 150.103L89.5358 144.304L90.1098 149.518L90.546 151.644H96.0742L96.4805 149.678L97.3901 144.293L98.404 150.088L98.5233 150.374C98.6697 150.709 98.7458 151.07 98.747 151.436C98.7763 152.107 98.5381 152.762 98.0846 153.258C97.631 153.753 96.9992 154.049 96.3277 154.08H90.0651C89.6282 154.078 89.1992 153.963 88.8195 153.747C88.4398 153.531 88.1223 153.221 87.8975 152.847C87.6727 152.473 87.5482 152.047 87.5361 151.61C87.524 151.174 87.6247 150.742 87.8285 150.356V150.389Z" fill="#F9A7A7"/>
<path d="M87.5345 151.522C87.7171 150.565 89.32 145.396 89.5251 144.305L90.1029 149.518C91.9667 149.094 94.6768 148.986 96.4736 149.716L97.3869 144.331L98.3971 150.129C98.676 150.662 98.7889 151.267 98.7214 151.865C98.6444 152.474 98.3498 153.036 97.8917 153.447C97.4336 153.857 96.8428 154.089 96.2275 154.099C94.0282 153.745 87.3555 155.47 87.5307 151.522H87.5345Z" fill="#30302F"/>
<path d="M92.5818 121.471H80.627L83.0835 139.291L84.9288 149.256L84.7237 151.211L85.637 156.593C86.2824 156.287 86.9878 156.128 87.7022 156.127H90.4384C90.9702 156.13 91.498 156.221 92.0003 156.395L92.5781 151.204L92.1755 149.04L92.5781 139.19V121.471H92.5818Z" fill="#FFC2BF"/>
<path d="M101.315 60.8837H96.4245V57.3086C94.6892 58.0459 92.8229 58.4259 90.9373 58.4259C89.0516 58.4259 87.1853 58.0459 85.45 57.3086V60.8837H80.5592C77.7262 60.8837 75.4336 62.8314 75.4336 65.2372V68.9427C75.436 70.2848 75.6654 71.6169 76.112 72.8828L80.8276 86.2895H101.028L105.762 72.8828C106.209 71.6184 106.437 70.2873 106.437 68.9464V65.2223C106.437 62.8277 104.145 60.8837 101.315 60.8837Z" fill="#FFC2BF"/>
<path d="M105.005 39.3274H104.916V38.024C104.916 34.3201 103.443 30.768 100.821 28.149C98.1998 25.5299 94.6442 24.0586 90.9367 24.0586C87.2293 24.0586 83.6736 25.5299 81.0521 28.149C78.4305 30.768 76.9577 34.3201 76.9577 38.024V39.3311H76.872C75.7608 39.3167 74.6886 39.74 73.8875 40.5094C73.0864 41.2788 72.6207 42.3324 72.5913 43.4422C72.5619 44.552 72.9711 45.6287 73.7304 46.4393C74.4897 47.25 75.5379 47.7293 76.6483 47.7737C76.7228 47.7737 76.7974 47.7737 76.872 47.7737C77.0239 47.7775 77.1759 47.77 77.3267 47.7513C78.0672 50.7987 79.8112 53.5091 82.2787 55.4474C84.7462 57.3857 87.7941 58.4394 90.933 58.4394C94.0719 58.4394 97.1198 57.3857 99.5873 55.4474C102.055 53.5091 103.799 50.7987 104.539 47.7513C104.688 47.7513 104.83 47.7737 104.998 47.7737C105.558 47.7962 106.116 47.7074 106.641 47.5124C107.166 47.3173 107.647 47.02 108.057 46.6376C108.466 46.2552 108.794 45.7953 109.024 45.2848C109.254 44.7743 109.379 44.2233 109.394 43.6638C109.409 43.1043 109.312 42.5475 109.109 42.0258C108.906 41.504 108.602 41.0278 108.213 40.6246C107.825 40.2215 107.36 39.8995 106.845 39.6775C106.331 39.4554 105.778 39.3377 105.218 39.3311H104.998L105.005 39.3274Z" fill="#FFCFCD"/>
<path d="M90.9454 58.4261C94.0851 58.4349 97.1359 57.3853 99.6044 55.447C102.073 53.5088 103.815 50.7953 104.548 47.7454C104.697 47.7454 104.839 47.7715 105.006 47.7715C105.566 47.794 106.125 47.7052 106.65 47.5102C107.175 47.3152 107.656 47.0178 108.065 46.6354C108.474 46.253 108.803 45.7932 109.033 45.2827C109.262 44.7722 109.388 44.2211 109.403 43.6617C109.417 43.1022 109.32 42.5454 109.118 42.0236C108.915 41.5019 108.61 41.0256 108.222 40.6224C107.833 40.2193 107.368 39.8973 106.854 39.6753C106.34 39.4532 105.787 39.3355 105.226 39.3289H104.917V38.0255C104.89 35.6982 104.283 33.4142 103.149 31.3809C102.015 29.3475 100.392 27.6289 98.4252 26.381C96.4586 25.1331 94.2113 24.3953 91.8871 24.2346C89.5628 24.0738 87.2352 24.4952 85.1152 25.4604L86.4759 38.5692C93.8232 38.8932 95.5417 35.8618 95.5417 35.8618C95.5417 35.8618 102.401 37.087 102.662 42.4721C102.923 47.8571 99.4037 58.4261 90.9454 58.4261Z" fill="#E6B8B8"/>
<g opacity="0.6">
<path opacity="0.6" d="M90.0868 149.504C90.5891 149.33 91.1169 149.239 91.6487 149.236H90.0645L90.0868 149.504Z" fill="#E6B8B8"/>
<path opacity="0.6" d="M101.472 114.592H99.6495L97.1929 132.412L95.329 142.377L95.5303 144.332L94.6953 149.271C95.2998 149.311 95.8914 149.464 96.4399 149.721L97.3532 144.336L97.1482 142.381L99.012 132.415L101.472 114.592Z" fill="#E6B8B8"/>
</g>
<path d="M76.0752 62.9453L65.0113 75.7711C64.3454 76.5043 63.9766 77.4588 63.9766 78.4487C63.9766 79.4387 64.3454 80.3932 65.0113 81.1264L73.8013 90.7345C73.9294 90.8736 74.015 91.0464 74.048 91.2324C74.0811 91.4185 74.0601 91.6102 73.9877 91.7847L72.6457 95.0359C72.1528 96.2377 72.0987 97.5745 72.4929 98.8121L74.2225 104.231H74.3232C74.4876 98.5419 76.2693 93.0174 79.46 88.3027L79.4898 88.258L74.0399 80.3518C73.901 80.1514 73.8409 79.9069 73.8712 79.665C73.9015 79.4232 74.0199 79.2009 74.2039 79.0409L77.3091 76.3297L76.1274 72.8812C75.6794 71.617 75.45 70.2859 75.449 68.9448V65.2207C75.4513 64.9425 75.4838 64.6653 75.5459 64.394" fill="#FFC2BF"/>
<path d="M102.84 61.0774C102.345 60.9475 101.835 60.8824 101.323 60.8837H96.432V57.3086C94.8581 57.9819 93.1738 58.3606 91.4629 58.4258C91.4629 62.2728 95.5373 62.9767 96.9315 62.9953C102.229 63.0698 102.15 64.8573 102.15 64.8573C102.624 63.654 102.858 62.3701 102.84 61.0774Z" fill="#E6B8B8"/>
<g opacity="0.6">
<path opacity="0.6" d="M92.5817 121.473H90.386V139.203L89.9723 149.046L90.3786 151.21L89.8418 156.133H90.4382C90.9703 156.134 91.4983 156.224 92.0002 156.401L92.578 151.21L92.1754 149.046L92.578 139.196L92.5817 121.473Z" fill="#E6B8B8"/>
<path opacity="0.6" d="M85.6369 156.598C86.2822 156.292 86.9876 156.133 87.702 156.133H85.5586L85.6369 156.598Z" fill="#E6B8B8"/>
</g>
<path d="M102.404 88.3044L101.047 86.2934L105.759 72.8866C106.205 71.622 106.435 70.2912 106.437 68.9503V65.2262C106.434 64.9478 106.4 64.6706 106.337 64.3994C106.213 63.5304 105.802 62.7279 105.168 62.1202C104.534 61.5125 103.714 61.1349 102.84 61.0477C102.877 63.4699 102.026 65.8218 100.446 67.6598C98.8668 69.4978 96.6686 70.6947 94.2664 71.0246C93.3403 71.1408 92.4077 71.198 91.4743 71.1959C89.2462 71.2414 87.0288 70.8779 84.9321 70.1234C83.126 69.4164 81.5916 68.1539 80.5509 66.5185C79.5103 64.883 79.0172 62.9593 79.1429 61.0254C75.5308 61.4499 75.4711 64.9282 75.4711 65.2076V68.913C75.4632 70.2645 75.6877 71.6073 76.1347 72.8829L80.8465 86.2897L79.4934 88.3007C76.1342 93.2591 74.3385 99.109 74.3379 105.096C74.3426 106.535 74.4912 107.97 74.7815 109.379L75.7022 113.945C76.3153 116.97 77.0881 119.961 78.0172 122.905C87.6608 121.043 93.3754 129.147 101.901 126.957L104.909 126.182L107.146 109.379C107.428 107.975 107.571 106.547 107.571 105.115C107.569 99.1216 105.769 93.2662 102.404 88.3044Z" fill="#89C3E8"/>
<path d="M84.6521 38.7285H74.2964C74.1453 38.729 73.9956 38.6997 73.8559 38.6423C73.7162 38.5848 73.5891 38.5004 73.4821 38.3939C73.3751 38.2873 73.2902 38.1607 73.2323 38.0213C73.1743 37.8819 73.1445 37.7324 73.1445 37.5815V31.0606C73.1445 28.1271 74.311 25.3138 76.3873 23.2396C78.4636 21.1653 81.2796 20 84.2159 20H89.692C91.0198 20.002 92.2926 20.5301 93.2311 21.4684C94.1697 22.4067 94.6973 23.6787 94.6983 25.0052V28.6809C94.6983 31.3476 93.6379 33.9052 91.7504 35.7909C89.8628 37.6766 87.3028 38.7359 84.6334 38.7359L84.6521 38.7285Z" fill="#474748"/>
<path d="M106.468 37.2433H104.428C103.15 37.2438 101.885 36.9927 100.704 36.5045C99.5232 36.0162 98.4502 35.3003 97.5463 34.3977C96.6425 33.4951 95.9255 32.4234 95.4363 31.2439C94.9471 30.0644 94.6953 28.8001 94.6953 27.5234V24.3132C94.6953 23.5128 95.0133 22.7452 95.5795 22.1789C96.1456 21.6126 96.9136 21.294 97.7148 21.293H98.3187C100.79 21.293 103.161 22.2739 104.908 24.0199C106.656 25.7659 107.638 28.134 107.638 30.6032V36.0963C107.638 36.2472 107.608 36.3967 107.55 36.5361C107.492 36.6755 107.407 36.8021 107.3 36.9086C107.193 37.0152 107.066 37.0996 106.927 37.157C106.787 37.2145 106.637 37.2438 106.486 37.2433H106.468Z" fill="#474748"/>
<path d="M94.2778 157.287L94.1324 157L92.5817 151.213L92.0076 156.427L91.5566 158.568H86.0395L85.6369 156.598L84.7236 151.217L83.7283 157.008L83.6053 157.298C83.4603 157.632 83.3843 157.992 83.3816 158.356C83.3661 158.688 83.4166 159.021 83.5301 159.334C83.6436 159.647 83.818 159.935 84.0431 160.181C84.2683 160.427 84.5398 160.625 84.8421 160.766C85.1444 160.906 85.4715 160.986 85.8047 161H92.0337C92.4711 160.999 92.9007 160.885 93.281 160.669C93.6613 160.453 93.9793 160.143 94.2043 159.769C94.4294 159.394 94.5537 158.968 94.5652 158.531C94.5768 158.094 94.4752 157.662 94.2704 157.276L94.2778 157.287Z" fill="#F9A7A7"/>
<path d="M94.5648 158.42C94.5545 158.03 94.455 157.648 94.274 157.303L94.1286 157.016L92.5816 151.229L92.0076 156.42C91.5052 156.246 90.9775 156.155 90.4456 156.152H87.6908C86.9759 156.152 86.2702 156.312 85.6257 156.621L84.7161 151.232L83.7021 157.031L83.5791 157.317C83.4345 157.653 83.3584 158.014 83.3555 158.379C83.3555 158.503 83.3642 158.628 83.3816 158.751V158.796C83.3945 158.889 83.4131 158.981 83.4375 159.071C83.4561 159.139 83.471 159.206 83.4934 159.273C83.5158 159.34 83.5568 159.44 83.594 159.522C83.6313 159.604 83.6537 159.649 83.691 159.712C83.7282 159.775 83.7804 159.857 83.8289 159.928L83.9668 160.107C84.0153 160.163 84.0749 160.226 84.1308 160.282L84.3172 160.442C84.3741 160.49 84.4339 160.535 84.4962 160.576C84.573 160.625 84.6527 160.67 84.7347 160.71C84.8167 160.747 84.854 160.773 84.9174 160.799C85.0174 160.839 85.1194 160.872 85.2231 160.9C85.2753 160.9 85.3274 160.934 85.3871 160.945C85.5513 160.98 85.7186 160.999 85.8866 161.001H92.0076C92.5138 161 93.0084 160.848 93.4278 160.565C93.6979 160.383 93.9296 160.15 94.11 159.88C94.3941 159.462 94.5461 158.969 94.5461 158.464V158.42H94.5648Z" fill="#30302F"/>
<path d="M104.893 126.176C105.758 119.684 107.13 109.365 107.13 109.365C107.411 107.96 107.554 106.53 107.555 105.097C107.554 99.1116 105.76 93.2634 102.403 88.3052L101.046 86.2942L105.758 72.8874C106.205 71.6228 106.434 70.292 106.437 68.9511V67.3534C106.437 67.3534 107.555 61.7077 102.839 61.082C102.504 64.3071 102.154 64.8396 102.154 64.8396C99.2347 79.3413 96.0289 86.6629 96.0289 86.6629C96.0289 86.6629 101.893 102.341 101.471 108.263C100.402 123.211 96.6253 123.803 85.416 123.245C93.0765 125.174 95.9208 129.289 104.893 126.176Z" fill="#6DB8E8"/>
<path d="M79.5169 88.2587L74.0669 80.3525C73.9281 80.1521 73.868 79.9076 73.8983 79.6657C73.9285 79.4239 74.047 79.2017 74.231 79.0416L77.3362 76.3304L76.4303 73.7422C74.3726 74.8929 70.6449 77.1125 70.7604 78.617C70.9207 80.6541 77.4256 88.4449 76.8814 90.6198C76.3371 92.7947 73.3065 95.6548 74.5404 101.621C75.0929 96.8436 76.7884 92.2695 79.4833 88.2848L79.5169 88.2587Z" fill="#E6B8B8"/>
<path d="M90.6214 161.001H92.0305C92.5356 161 93.0289 160.848 93.447 160.565C93.7914 160.333 94.0734 160.02 94.2684 159.654C94.4634 159.288 94.5654 158.879 94.5653 158.464V158.42C94.558 158.03 94.4597 157.648 94.2783 157.303L94.1329 157.016L92.5822 151.229L92.0081 156.42C91.5057 156.246 90.978 156.155 90.4462 156.152H90.3828C90.8935 157.31 91.695 159.678 90.6214 161.001Z" fill="#585858"/>
<path d="M96.688 154.046C96.7445 154.037 96.7996 154.021 96.852 153.998C96.9495 153.971 97.0453 153.939 97.1391 153.901C97.2024 153.875 97.2621 153.842 97.3217 153.812C97.3814 153.782 97.4857 153.726 97.564 153.678L97.7392 153.544L97.9294 153.384C97.9853 153.328 98.0375 153.268 98.0896 153.205C98.1418 153.141 98.1866 153.089 98.2313 153.03C98.276 152.97 98.3245 152.888 98.3692 152.814C98.414 152.739 98.4326 152.687 98.4661 152.624C98.4997 152.561 98.537 152.456 98.5668 152.374C98.5966 152.292 98.6041 152.24 98.6227 152.173C98.6414 152.106 98.6637 151.991 98.6786 151.898V151.853C98.6964 151.73 98.7039 151.605 98.701 151.481C98.6998 151.115 98.6237 150.754 98.4773 150.419L98.358 150.132L97.3441 144.334L96.4308 149.719C96.007 149.52 95.556 149.384 95.0925 149.317C95.0981 149.334 95.1078 149.349 95.1209 149.362C95.1339 149.374 95.1498 149.383 95.1671 149.388C95.9686 149.522 95.8008 153.857 94.5371 154.113H96.1587C96.3371 154.112 96.5148 154.089 96.688 154.046Z" fill="#585858"/>
<path d="M93.5482 87.2121C93.88 88.6124 94.2937 91.3087 94.7001 94.8056C94.7221 95.0097 94.8187 95.1986 94.9714 95.336C95.1241 95.4734 95.3221 95.5497 95.5276 95.5504H95.6245C95.7344 95.5393 95.841 95.5065 95.9382 95.4539C96.0353 95.4013 96.121 95.33 96.1903 95.2441C96.2597 95.1582 96.3113 95.0594 96.3421 94.9535C96.373 94.8475 96.3825 94.7365 96.3701 94.6268C95.9675 91.2193 95.5649 88.5379 95.2257 87.0371H93.5407C93.537 87.0956 93.5395 87.1542 93.5482 87.2121Z" fill="#6DB8E8"/>
<path d="M86.2751 95.5355H86.3758C86.5809 95.5347 86.7784 95.4582 86.9305 95.3207C87.0826 95.1833 87.1784 94.9944 87.1996 94.7906C87.5984 91.4389 87.9936 88.7837 88.3179 87.3424C88.3352 87.2605 88.3415 87.1766 88.3365 87.0929V86.9961H86.6702V87.1004C86.3385 88.6086 85.9247 91.2565 85.5519 94.5858C85.5357 94.6958 85.5416 94.8079 85.5693 94.9155C85.5971 95.0232 85.6461 95.1242 85.7134 95.2127C85.7808 95.3012 85.8652 95.3753 85.9616 95.4307C86.0581 95.4862 86.1647 95.5218 86.2751 95.5355Z" fill="#6DB8E8"/>
<path d="M100.849 85.6152H81.0286C80.6601 85.6152 80.3613 85.9137 80.3613 86.2818V87.0043C80.3613 87.3725 80.6601 87.6709 81.0286 87.6709H100.849C101.217 87.6709 101.516 87.3725 101.516 87.0043V86.2818C101.516 85.9137 101.217 85.6152 100.849 85.6152Z" fill="#E0EBFC"/>
<path d="M90.938 88.9251C92.8465 88.9251 94.3936 87.903 94.3936 86.6422C94.3936 85.3814 92.8465 84.3594 90.938 84.3594C89.0295 84.3594 87.4824 85.3814 87.4824 86.6422C87.4824 87.903 89.0295 88.9251 90.938 88.9251Z" fill="white"/>
<g opacity="0.7">
<path opacity="0.7" d="M87.5938 87.2541C87.9963 88.2149 89.3085 88.9187 90.9226 88.9187C92.8275 88.9187 94.3745 87.8983 94.3745 86.6433C94.3503 86.2822 94.2302 85.9341 94.0264 85.635C93.8226 85.3358 93.5425 85.0964 93.2152 84.9414C93.2977 85.136 93.342 85.3446 93.3457 85.5559C93.3457 86.8109 91.7949 87.8313 89.89 87.8313C89.0875 87.841 88.2962 87.6421 87.5938 87.2541Z" fill="#D3CDBF"/>
</g>
<path d="M90.8892 29.6824C97.8489 29.6824 103.627 32.8069 104.917 39.3204C105.006 39.3204 105.122 39.3204 105.226 39.3204C105.353 38.4564 105.204 36.8327 105.204 36.0581C105.143 32.3058 103.609 28.7277 100.931 26.0956C98.2534 23.4634 94.6475 21.9883 90.8911 21.9883C87.1346 21.9883 83.5287 23.4634 80.8512 26.0956C78.1736 28.7277 76.639 32.3058 76.5784 36.0581C76.5784 36.8327 76.3771 38.4601 76.53 39.3278C76.6753 39.3278 76.7909 39.3278 76.9698 39.3278C78.2596 32.8218 83.9332 29.6824 90.8892 29.6824Z" fill="#E97522"/>
<path d="M100.789 25.8477C101.535 26.7042 102.485 31.8062 101.162 32.9234C103.119 34.5592 104.439 36.8305 104.89 39.3401C104.979 39.3401 105.095 39.3401 105.199 39.3401C105.326 38.4761 105.177 36.8524 105.177 36.0778C105.181 34.1639 104.794 32.2694 104.04 30.5102C103.285 28.7511 102.179 27.1644 100.789 25.8477Z" fill="black" fill-opacity="0.32"/>
<path d="M74.8893 45.3555C74.7937 45.3602 74.7036 45.4016 74.6377 45.4709C74.5717 45.5402 74.535 45.6323 74.5352 45.7279V48.2156C74.5588 48.2915 74.606 48.3578 74.6701 48.405C74.7341 48.4521 74.8116 48.4775 74.8912 48.4775C74.9707 48.4775 75.0482 48.4521 75.1122 48.405C75.1763 48.3578 75.2236 48.2915 75.2472 48.2156V45.713C75.2435 45.6193 75.2046 45.5305 75.1383 45.4643C75.0719 45.398 74.983 45.3591 74.8893 45.3555Z" fill="#D8E2F2"/>
<path d="M105.885 45.3555C105.79 45.3602 105.7 45.4016 105.634 45.4709C105.568 45.5402 105.531 45.6323 105.531 45.7279V48.2156C105.555 48.2915 105.602 48.3578 105.666 48.405C105.73 48.4521 105.808 48.4775 105.887 48.4775C105.967 48.4775 106.044 48.4521 106.108 48.405C106.172 48.3578 106.22 48.2915 106.243 48.2156V45.713C106.24 45.6193 106.201 45.5305 106.134 45.4643C106.068 45.398 105.979 45.3591 105.885 45.3555Z" fill="#D8E2F2"/>
<path d="M76.6673 50.2806C76.6873 50.5217 76.6558 50.7642 76.5748 50.9921C76.4938 51.2201 76.3653 51.4282 76.1976 51.6027C75.9477 51.8727 75.6203 52.0587 75.2603 52.1353C74.9003 52.2119 74.5254 52.1752 74.1871 52.0303C73.8488 51.8854 73.5638 51.6394 73.3711 51.3261C73.1784 51.0128 73.0876 50.6476 73.1111 50.2806C73.1111 49.3682 74.125 48.3776 74.6021 47.9456C74.6753 47.8742 74.7728 47.833 74.8751 47.8302C74.9774 47.8275 75.0769 47.8633 75.1539 47.9307C75.6571 48.3776 76.6673 49.3682 76.6673 50.2806Z" fill="#E0EBFC"/>
<path d="M107.664 50.2819C107.687 50.5216 107.658 50.7633 107.58 50.9911C107.503 51.219 107.378 51.4278 107.213 51.6039C106.963 51.8739 106.636 52.06 106.276 52.1366C105.916 52.2131 105.541 52.1764 105.203 52.0315C104.864 51.8866 104.579 51.6407 104.387 51.3274C104.194 51.0141 104.103 50.6488 104.127 50.2819C104.127 49.3695 105.141 48.3789 105.636 47.9469C105.711 47.8817 105.806 47.8457 105.905 47.8457C106.004 47.8457 106.099 47.8817 106.173 47.9469C106.65 48.3789 107.664 49.3695 107.664 50.2819Z" fill="#E0EBFC"/>
<path d="M74.6097 49.476L74.5687 49.5282C74.4402 49.6554 74.3404 49.8086 74.2761 49.9775C74.2118 50.1465 74.1845 50.3272 74.1959 50.5076C74.2132 50.5886 74.2571 50.6615 74.3206 50.7148C74.384 50.768 74.4635 50.7987 74.5463 50.8018H74.6059C74.6961 50.7813 74.7755 50.728 74.8285 50.6523C74.8816 50.5766 74.9045 50.4838 74.893 50.3922C74.893 50.2916 75.0346 50.0942 75.1278 49.9751L75.1726 49.9192C75.2213 49.8863 75.2615 49.8423 75.29 49.7909C75.3184 49.7395 75.3343 49.682 75.3363 49.6233C75.3383 49.5646 75.3264 49.5062 75.3015 49.453C75.2766 49.3998 75.2394 49.3532 75.193 49.317C75.1466 49.2809 75.0924 49.2562 75.0346 49.2451C74.9769 49.2339 74.9173 49.2365 74.8608 49.2528C74.8043 49.269 74.7524 49.2984 74.7094 49.3385C74.6664 49.3786 74.6335 49.4282 74.6134 49.4835L74.6097 49.476Z" fill="white"/>
<path d="M106.094 49.4218C106.017 49.3681 105.924 49.3448 105.831 49.3565C105.739 49.3682 105.654 49.4141 105.594 49.4851L105.553 49.5373C105.425 49.6645 105.325 49.8177 105.26 49.9866C105.196 50.1556 105.169 50.3363 105.18 50.5167C105.198 50.5977 105.241 50.6706 105.305 50.7239C105.368 50.7771 105.448 50.8078 105.531 50.8109H105.59C105.681 50.7904 105.76 50.7371 105.813 50.6614C105.866 50.5856 105.889 50.4929 105.877 50.4012C105.859 50.3007 106.019 50.1033 106.112 49.9841L106.157 49.9283C106.213 49.8517 106.238 49.7566 106.226 49.6625C106.214 49.5684 106.167 49.4823 106.094 49.4218Z" fill="white"/>
<path opacity="0.8" d="M150.284 37.9741C149.281 40.6703 146.183 47.6381 140.625 49.4145C140.541 49.4407 140.467 49.4931 140.415 49.5642C140.362 49.6352 140.334 49.7211 140.334 49.8093C140.334 49.8975 140.362 49.9834 140.415 50.0544C140.467 50.1254 140.541 50.1779 140.625 50.204C146.254 51.8166 149.292 58.1736 150.28 60.6315C150.312 60.7067 150.365 60.7707 150.434 60.8158C150.502 60.8608 150.582 60.8848 150.664 60.8848C150.746 60.8848 150.826 60.8608 150.894 60.8158C150.962 60.7707 151.016 60.7067 151.048 60.6315C152.166 58.1326 155.618 51.5894 161.571 50.2524C161.659 50.2301 161.737 50.1799 161.793 50.1095C161.85 50.0391 161.882 49.9522 161.885 49.8619C161.888 49.7716 161.862 49.6828 161.81 49.6088C161.758 49.5349 161.683 49.4798 161.597 49.4518C155.473 47.3625 152.14 40.5735 151.048 37.9331C151.011 37.8606 150.954 37.8003 150.884 37.7595C150.814 37.7188 150.733 37.6994 150.652 37.7037C150.571 37.7081 150.493 37.736 150.428 37.784C150.362 37.832 150.312 37.8981 150.284 37.9741Z" fill="#E97522"/>
<path d="M139.456 34.9302C137.592 33.772 133.812 30.8635 132.567 25.8881C132.426 25.3258 131.919 25.3407 131.792 25.9104C130.674 30.9268 127.199 33.7981 125.511 34.9377C125.351 35.0987 125.262 35.3162 125.262 35.5428C125.262 35.7695 125.351 35.9869 125.511 36.148C127.218 37.4291 130.774 40.6653 131.777 45.9833C131.889 46.5717 132.411 46.6239 132.556 46.0504C133.618 42.0352 136.074 38.528 139.486 36.1554C139.566 36.0737 139.629 35.9768 139.67 35.8706C139.712 35.7643 139.732 35.6507 139.729 35.5366C139.727 35.4224 139.701 35.3099 139.654 35.2058C139.607 35.1017 139.54 35.008 139.456 34.9302Z" fill="#E97522"/>
<path d="M136.432 61.7397C135.384 61.0657 133.241 59.3749 132.532 56.4813C132.454 56.1536 132.16 56.161 132.096 56.4813C131.611 58.6149 130.342 60.4888 128.54 61.7323C128.45 61.8276 128.4 61.9534 128.4 62.0842C128.4 62.215 128.45 62.3408 128.54 62.4361C130.379 63.8486 131.639 65.8823 132.085 68.1563C132.148 68.499 132.458 68.5287 132.525 68.1973C133.116 65.8841 134.501 63.8517 136.439 62.4547C136.486 62.4075 136.523 62.3514 136.548 62.2898C136.573 62.2282 136.585 62.1622 136.585 62.0957C136.584 62.0292 136.57 61.9635 136.544 61.9024C136.518 61.8413 136.479 61.786 136.432 61.7397Z" fill="#E97522"/>
</svg>
