<svg width="180" height="180" viewBox="0 0 180 180" fill="none" xmlns="http://www.w3.org/2000/svg">
<g clip-path="url(#clip0_9899_9103)">
<g filter="url(#filter0_d_9899_9103)">
<path d="M95.6936 42.5125C95.9573 41.9838 96.1125 41.4078 96.1502 40.8184C96.1878 40.2291 96.1071 39.6381 95.9127 39.0803C95.7184 38.5224 95.4144 38.0089 95.0185 37.5699C94.6226 37.1308 94.1428 36.775 93.6073 36.5234L78.6431 29.4835C77.8792 29.1245 77.2337 28.5557 76.7821 27.8438C76.3306 27.132 76.0917 26.3064 76.0934 25.464V19.9572C76.0934 19.1739 75.7819 18.4226 75.2273 17.8682C74.6727 17.3138 73.9202 17.0015 73.1351 17H55.0227C54.2366 17 53.4827 17.3116 52.9268 17.8662C52.3709 18.4207 52.0586 19.1729 52.0586 19.9572V25.4726C52.0604 26.315 51.8215 27.1406 51.37 27.8524C50.9184 28.5643 50.2729 29.1331 49.509 29.4921L34.5505 36.5234C34.015 36.775 33.5352 37.1308 33.1394 37.5699C32.7436 38.009 32.4397 38.5226 32.2456 39.0806C32.0515 39.6385 31.9712 40.2295 32.0092 40.8188C32.0472 41.4082 32.2029 41.984 32.4671 42.5125L35.0858 47.7609C37.7091 53.0237 39.2586 58.7539 39.6444 64.6189C40.0302 70.484 39.2447 76.3671 37.3333 81.9268C37.059 82.725 36.7616 83.5155 36.4412 84.2984L34.4441 89.1792C34.1685 89.8531 34.0632 90.5843 34.1376 91.3083C34.2119 92.0324 34.4636 92.7271 34.8705 93.3312C35.2773 93.9354 35.8268 94.4305 36.4705 94.7728C37.1143 95.1152 37.8326 95.2944 38.5621 95.2946H89.6044C90.3337 95.2942 91.0516 95.1147 91.695 94.7722C92.3384 94.4296 92.8874 93.9343 93.2937 93.3301C93.7001 92.7259 93.9511 92.0312 94.0249 91.3074C94.0986 90.5835 93.9928 89.8526 93.7166 89.1792L91.7195 84.2984C91.3991 83.5155 91.1017 82.725 90.8274 81.9268C88.9149 76.3672 88.129 70.4838 88.5153 64.6185C88.9016 58.7532 90.4525 53.023 93.0778 47.7609L95.6936 42.5125Z" fill="white"/>
</g>
<path d="M70.059 61.7363H64.4531V67.3292H70.059V61.7363Z" fill="#D2E2EB"/>
<path d="M70.059 50.5547H64.4531V56.1476H70.059V50.5547Z" fill="#D2E2EB"/>
<path d="M75.6665 67.3301H70.0605V72.923H75.6665V67.3301Z" fill="#D2E2EB"/>
<path d="M75.6665 56.1445H70.0605V61.7374H75.6665V56.1445Z" fill="#E3E3E3"/>
<path d="M64.4536 56.1445H58.8477V61.7374H64.4536V56.1445Z" fill="#D2E2EB"/>
<path d="M64.4536 67.3301H58.8477V72.923H64.4536V67.3301Z" fill="#D2E2EB"/>
<path d="M70.059 39.3691H64.4531V44.962H70.059V39.3691Z" fill="#D2E2EB"/>
<path d="M70.059 17H65.4258H64.4531V22.5929H70.059V17Z" fill="#D2E2EB"/>
<path d="M38.252 56.1445C38.7398 57.9833 39.1089 59.8515 39.357 61.7374H42.0334V56.1445H38.252Z" fill="#D2E2EB"/>
<path d="M36.4274 50.7243V50.5547H36.3555C36.3785 50.6122 36.4044 50.6668 36.4274 50.7243Z" fill="#E3E3E3"/>
<path d="M39.7372 67.3301C39.7463 69.1995 39.6357 71.0676 39.4062 72.923H42.0337V67.3301H39.7372Z" fill="#D2E2EB"/>
<path d="M47.6391 30.3652L42.0332 33.0038V33.7761H47.6391V30.3652Z" fill="#D2E2EB"/>
<path d="M38.3536 78.5156C38.0601 79.6641 37.7205 80.8001 37.3349 81.9236C37.0816 82.6557 36.8082 83.385 36.5176 84.1056H42.0343V78.5156H38.3536Z" fill="#D2E2EB"/>
<path d="M32.1656 39.3691C31.8699 40.4228 31.9776 41.5485 32.4678 42.5273L33.6879 44.9764H36.4276V39.3691H32.1656Z" fill="#D2E2EB"/>
<path d="M34.4412 89.1764C34.3711 89.3465 34.3124 89.521 34.2656 89.6989H36.4268V84.3242L34.4412 89.1764Z" fill="#D2E2EB"/>
<path d="M52.0623 22.5938V25.4648C52.0661 26.4538 51.739 27.4157 51.1328 28.1981H53.2451V22.5938H52.0623Z" fill="#D2E2EB"/>
<path d="M75.6665 89.6992H70.0605V95.2921H75.6665V89.6992Z" fill="#D2E2EB"/>
<path d="M64.4536 89.6992H58.8477V95.2921H64.4536V89.6992Z" fill="#D2E2EB"/>
<path d="M53.2446 89.6992H47.6387V95.2921H53.2446V89.6992Z" fill="#D2E2EB"/>
<path d="M36.4277 94.7552C37.0822 95.1097 37.8155 95.2944 38.5602 95.2921H42.0337V89.6992H36.4277V94.7552Z" fill="#D2E2EB"/>
<path d="M86.873 33.3555V33.7746H87.7709L86.873 33.3555Z" fill="#E3E3E3"/>
<path d="M88.4242 67.3292C88.4327 65.4588 88.5596 63.5908 88.804 61.7363H86.873V67.3292H88.4242Z" fill="#E3E3E3"/>
<path d="M89.9091 56.1447C90.4156 54.2413 91.0492 52.3737 91.8056 50.5547H86.873V56.1447H89.9091Z" fill="#D2E2EB"/>
<path d="M92.479 39.3691H86.873V44.962H92.479V39.3691Z" fill="#D2E2EB"/>
<path d="M89.8084 78.5167C89.3381 76.6767 88.9862 74.8086 88.7551 72.9238H86.873V78.5167H89.8084Z" fill="#D2E2EB"/>
<path d="M93.8963 89.6992H92.4805V94.2327C93.1225 93.6883 93.5965 92.9733 93.8471 92.1707C94.0978 91.3681 94.1148 90.5111 93.8963 89.6992Z" fill="#E3E3E3"/>
<path d="M92.479 89.6984V86.1497L91.7192 84.295C91.6933 84.2318 91.6703 84.1686 91.6473 84.1055H86.873V89.6984H92.479Z" fill="#D2E2EB"/>
<path d="M58.8481 17H55.0235C54.3798 16.9991 53.7537 17.21 53.2422 17.6001V22.5929H58.8481V17Z" fill="#D2E2EB"/>
<path d="M76.0986 19.9572C76.0956 19.42 75.9453 18.8937 75.6641 18.4355V22.5929H76.0986V19.9572Z" fill="#E3E3E3"/>
<path d="M75.6665 44.9609H70.0605V50.5538H75.6665V44.9609Z" fill="#D2E2EB"/>
<path d="M93.079 47.7631L94.4748 44.9609H92.4805V49.0178C92.6733 48.5957 92.8718 48.1794 93.079 47.7631Z" fill="#D2E2EB"/>
<path d="M47.6391 39.3691H42.0332V44.962H47.6391V39.3691Z" fill="#D2E2EB"/>
<path d="M93.6086 36.5233L92.4805 35.9922V39.3686H96C95.8316 38.7499 95.5306 38.175 95.1177 37.6837C94.7048 37.1925 94.1899 36.7966 93.6086 36.5233Z" fill="#D2E2EB"/>
<path d="M42.0337 33.7754H40.3933L36.4277 35.6416V39.3683H42.0337V33.7754Z" fill="#D2E2EB"/>
<path d="M75.6665 22.5938H70.0605V28.1866H75.6665V22.5938Z" fill="#D2E2EB"/>
<path d="M86.8735 78.5156H81.2676V84.1085H86.8735V78.5156Z" fill="#D2E2EB"/>
<path d="M81.2671 33.7758V30.7181L78.6483 29.4835C78.0151 29.188 77.4609 28.7473 77.031 28.1973H75.6641V33.7758H81.2671Z" fill="#D2E2EB"/>
<path d="M58.8501 28.1855H53.2441V33.7784H58.8501V28.1855Z" fill="#D2E2EB"/>
<path d="M64.4536 22.5938H58.8477V28.1866H64.4536V22.5938Z" fill="#D2E2EB"/>
<path d="M86.8735 33.7754H81.2676V39.3683H86.8735V33.7754Z" fill="#D2E2EB"/>
<path d="M86.8735 56.1445H81.2676V61.7374H86.8735V56.1445Z" fill="#E3E3E3"/>
<path d="M86.8735 67.3301H81.2676V72.923H86.8735V67.3301Z" fill="#D2E2EB"/>
<path d="M86.8735 44.9609H81.2676V50.5538H86.8735V44.9609Z" fill="#D2E2EB"/>
<path d="M53.2446 33.7754H47.6387V39.3683H53.2446V33.7754Z" fill="#D2E2EB"/>
<path d="M81.27 84.1055H75.6641V89.6984H81.27V84.1055Z" fill="#D2E2EB"/>
<path d="M58.8501 84.1055H53.2441V89.6984H58.8501V84.1055Z" fill="#D2E2EB"/>
<path d="M70.059 84.1055H64.4531V89.6984H70.059V84.1055Z" fill="#D2E2EB"/>
<path d="M81.2715 89.6992V95.2921H81.3031H86.8745V89.6992H81.2715Z" fill="#D2E2EB"/>
<path d="M47.6391 61.7363H42.0332V67.3292H47.6391V61.7363Z" fill="#D2E2EB"/>
<path d="M42.0337 44.9609H36.4277V50.5538H42.0337V44.9609Z" fill="#D2E2EB"/>
<path d="M47.6391 50.5547H42.0332V56.1476H47.6391V50.5547Z" fill="#D2E2EB"/>
<path d="M47.6391 72.9238H42.0332V78.5167H47.6391V72.9238Z" fill="#D2E2EB"/>
<path d="M47.6391 84.1055H42.0332V89.6984H47.6391V84.1055Z" fill="#D2E2EB"/>
<path d="M81.27 39.3691H75.6641V44.962H81.27V39.3691Z" fill="#D2E2EB"/>
<path d="M81.27 61.7363H75.6641V67.3292H81.27V61.7363Z" fill="#E3E3E3"/>
<path d="M81.27 50.5547H75.6641V56.1476H81.27V50.5547Z" fill="#D2E2EB"/>
<path d="M64.4536 44.9609H58.8477V50.5538H64.4536V44.9609Z" fill="#D2E2EB"/>
<path d="M81.27 72.9238H75.6641V78.5167H81.27V72.9238Z" fill="#D2E2EB"/>
<path d="M58.8501 50.5547H53.2441V56.1476H58.8501V50.5547Z" fill="#D2E2EB"/>
<path d="M70.059 72.9238H64.4531V78.5167H70.059V72.9238Z" fill="#D2E2EB"/>
<path d="M58.8501 61.7363H53.2441V67.3292H58.8501V61.7363Z" fill="#D2E2EB"/>
<path d="M75.6665 33.7754H70.0605V39.3683H75.6665V33.7754Z" fill="#D2E2EB"/>
<path d="M58.8501 72.9238H53.2441V78.5167H58.8501V72.9238Z" fill="#D2E2EB"/>
<path d="M64.4536 33.7754H58.8477V39.3683H64.4536V33.7754Z" fill="#D2E2EB"/>
<path d="M53.2446 56.1445H47.6387V61.7374H53.2446V56.1445Z" fill="#D2E2EB"/>
<path d="M53.2446 67.3301H47.6387V72.923H53.2446V67.3301Z" fill="#D2E2EB"/>
<path d="M53.2446 78.5156H47.6387V84.1085H53.2446V78.5156Z" fill="#D2E2EB"/>
<path d="M64.4536 78.5156H58.8477V84.1085H64.4536V78.5156Z" fill="#D2E2EB"/>
<path d="M53.2446 44.9609H47.6387V50.5538H53.2446V44.9609Z" fill="#D2E2EB"/>
<path d="M75.6665 78.5156H70.0605V84.1085H75.6665V78.5156Z" fill="#D2E2EB"/>
<path d="M70.059 28.1855H64.4531V33.7784H70.059V28.1855Z" fill="#D2E2EB"/>
<path d="M58.8501 39.3691H53.2441V44.962H58.8501V39.3691Z" fill="#D2E2EB"/>
<path d="M58.8887 146.255L64.0687 151.5L69.2487 146.255V104.168L64.2327 100.748L58.8887 104.168V146.255Z" fill="#474748"/>
<path d="M54.4473 155.128L64.0821 159.564L65.4174 155.128V149.211C65.4174 148.427 65.1051 147.675 64.5492 147.12C63.9933 146.565 63.2394 146.254 62.4533 146.254H57.4056C56.6205 146.255 55.868 146.568 55.3134 147.122C54.7588 147.677 54.4473 148.428 54.4473 149.211V155.128Z" fill="#FB965D"/>
<path d="M73.7098 149.211V155.128L68.8578 159.564L64.8059 155.128V149.211C64.8059 148.427 64.4936 147.675 63.9377 147.12C63.3819 146.565 62.6279 146.254 61.8418 146.254H70.7341C71.1244 146.252 71.511 146.328 71.872 146.476C72.2329 146.624 72.5611 146.841 72.8375 147.116C73.114 147.391 73.3334 147.717 73.483 148.077C73.6327 148.436 73.7098 148.822 73.7098 149.211Z" fill="#E97522"/>
<path d="M54.8076 95.2207L54.5918 95.2925V101.207C54.5918 101.991 54.9041 102.743 55.46 103.298C56.0158 103.853 56.7697 104.164 57.5559 104.164H70.6006C71.3867 104.164 72.1406 103.853 72.6965 103.298C73.2524 102.743 73.5647 101.991 73.5647 101.207V95.2925L73.3546 95.2207H54.8076Z" fill="#FB965D"/>
<path d="M64.767 95.2207L64.6692 95.2925V101.207C64.6692 101.991 64.3569 102.743 63.801 103.298C63.2451 103.853 62.4912 104.164 61.7051 104.164H70.6003C71.3864 104.164 72.1404 103.853 72.6962 103.298C73.2521 102.743 73.5644 101.991 73.5644 101.207V95.2925L73.4608 95.2207H64.767Z" fill="#E97522"/>
<path opacity="0.2" d="M84.1808 47.7637C81.5561 53.026 80.0056 58.7562 79.6193 64.6214C79.233 70.4866 80.0186 76.37 81.9305 81.9297H90.8198C88.9064 76.3702 88.1201 70.4867 88.5064 64.6213C88.8928 58.7559 90.4441 53.0256 93.0701 47.7637L95.6831 42.5125C95.9471 41.9843 96.1028 41.4088 96.141 40.8198C96.1792 40.2308 96.0992 39.6401 95.9057 39.0824C95.7122 38.5246 95.4091 38.011 95.0141 37.5716C94.6191 37.1321 94.1402 36.7758 93.6054 36.5234L78.6412 29.4835C77.8773 29.1245 77.2318 28.5557 76.7802 27.8438C76.3287 27.132 76.0898 26.3064 76.0915 25.464V19.9572C76.0908 19.1736 75.7786 18.4223 75.2236 17.868C74.6685 17.3137 73.9157 17.0015 73.1304 17H64.2324C65.0185 17 65.7725 17.3116 66.3283 17.8662C66.8842 18.4207 67.1965 19.1729 67.1965 19.9572V25.4726C67.1947 26.315 67.4336 27.1406 67.8852 27.8524C68.3367 28.5643 68.9823 29.1331 69.7462 29.4921L84.7103 36.532C85.2459 36.7836 85.7256 37.1394 86.1215 37.5785C86.5174 38.0175 86.8214 38.531 87.0158 39.0889C87.2101 39.6467 87.2908 40.2377 87.2532 40.827C87.2156 41.4164 87.0604 41.9924 86.7967 42.5211L84.1808 47.7637Z" fill="#A7C1CF" fill-opacity="0.48"/>
<path opacity="0.2" d="M80.7787 95.2927H38.5049C37.7791 95.2862 37.066 95.1024 36.4279 94.7574C35.7898 94.4124 35.2461 93.9167 34.8443 93.3136C34.4426 92.7106 34.195 92.0185 34.1233 91.2979C34.0516 90.5774 34.1579 89.8502 34.4329 89.1801L36.4099 84.2993C36.7265 83.5164 37.0209 82.7259 37.2934 81.9277H81.9903C82.2627 82.7259 82.5572 83.5164 82.8737 84.2993L84.8478 89.1801C85.1235 89.85 85.2304 90.577 85.1591 91.2977C85.0879 92.0183 84.8407 92.7105 84.4391 93.3137C84.0376 93.9169 83.4939 94.4127 82.8558 94.7577C82.2177 95.1027 81.5045 95.2864 80.7787 95.2927Z" fill="#8DCAEC" fill-opacity="0.4"/>
<path opacity="0.5" d="M89.5994 95.2927H80.707C81.4362 95.2925 82.1542 95.1134 82.7976 94.7712C83.4411 94.4289 83.9903 93.934 84.3968 93.3301C84.8034 92.7262 85.0549 92.0318 85.1291 91.3081C85.2032 90.5844 85.0979 89.8536 84.8223 89.1801L82.8078 84.2993C82.4893 83.5164 82.192 82.7259 81.9157 81.9277H90.8109C91.0853 82.7259 91.3826 83.5164 91.703 84.2993L93.7002 89.1801C93.9758 89.8536 94.0812 90.5844 94.007 91.3081C93.9328 92.0318 93.6814 92.7262 93.2748 93.3301C92.8682 93.934 92.319 94.4289 91.6756 94.7712C91.0321 95.1134 90.3142 95.2925 89.585 95.2927H89.5994Z" fill="#96CFEF"/>
<path d="M44.0641 164H76.0817C76.4747 164 76.8517 163.844 77.1296 163.566C77.4076 163.289 77.5637 162.913 77.5637 162.521V159.564C77.5641 158.981 77.4494 158.404 77.2261 157.865C77.0028 157.327 76.6754 156.837 76.2625 156.425C75.8496 156.013 75.3593 155.686 74.8197 155.463C74.2801 155.24 73.7017 155.125 73.1176 155.125H47.031C45.8511 155.125 44.7194 155.593 43.8851 156.425C43.0508 157.257 42.582 158.386 42.582 159.564V162.521C42.5828 162.913 42.7392 163.288 43.0169 163.566C43.2947 163.843 43.6712 163.999 44.0641 164Z" fill="#474748"/>
<path d="M85.5699 159.564V162.521C85.5691 162.913 85.4128 163.288 85.135 163.566C84.8572 163.843 84.4807 163.999 84.0879 164H75.1955C75.5883 163.999 75.9649 163.843 76.2426 163.566C76.5204 163.288 76.6768 162.913 76.6776 162.521V159.564C76.6768 158.387 76.2078 157.258 75.3736 156.426C74.5394 155.594 73.4082 155.126 72.2285 155.125H81.1237C82.303 155.127 83.4334 155.595 84.267 156.427C85.1006 157.259 85.5691 158.387 85.5699 159.564Z" fill="#585858"/>
<path d="M82.1314 52.1973H67.337C67.1042 52.1975 66.8747 52.2523 66.667 52.3573C66.4594 52.4624 66.2794 52.6147 66.1416 52.8019C66.0037 52.9891 65.912 53.206 65.8737 53.4352C65.8354 53.6643 65.8517 53.8992 65.9212 54.1209L70.6637 69.2027C70.7586 69.5033 70.947 69.7658 71.2016 69.9522C71.4562 70.1385 71.7637 70.2391 72.0795 70.2392H88.2811L82.1314 52.1973Z" fill="#4299D5"/>
<path d="M131.629 52.1973H146.516C146.748 52.1975 146.978 52.2523 147.186 52.3573C147.393 52.4624 147.573 52.6147 147.711 52.8019C147.849 52.9891 147.941 53.206 147.979 53.4352C148.017 53.6643 148.001 53.8992 147.931 54.1209L143.189 69.2027C143.094 69.5033 142.906 69.7658 142.651 69.9522C142.396 70.1385 142.089 70.2391 141.773 70.2392H125.039L131.629 52.1973Z" fill="#4299D5"/>
<path d="M97.7678 52.1973H115.851L120.346 61.8585L111.578 74.609H97.9779L94.0469 60.5722L97.7678 52.1973Z" fill="#4299D5"/>
<path d="M88.7979 79.4554L81.9863 52.1973H97.7678V54.8301C97.774 56.1406 98.0669 57.434 98.626 58.6199C99.1851 59.8058 99.997 60.8557 101.005 61.6961C102.013 62.5366 103.192 63.1473 104.461 63.4858C105.73 63.8243 107.058 63.8823 108.352 63.6558C112.715 62.9409 115.851 59.062 115.851 54.652V52.1973H122.597L118.89 79.4525C117.769 83.943 117.537 88.6088 118.208 93.1878L123.037 142.18C123.074 142.43 123.056 142.684 122.986 142.926C122.915 143.168 122.793 143.392 122.628 143.583C122.463 143.773 122.258 143.926 122.028 144.031C121.799 144.136 121.549 144.19 121.296 144.19H84.0266C83.7752 144.188 83.527 144.132 83.299 144.027C83.0709 143.921 82.8682 143.768 82.7045 143.577C82.5409 143.387 82.4201 143.164 82.3503 142.923C82.2805 142.681 82.2634 142.428 82.3 142.18L89.4943 93.1907C90.1656 88.6135 89.9339 83.9496 88.8123 79.4611L88.7979 79.4554Z" fill="#6FC0F8"/>
<path d="M131.337 142.18C131.374 142.43 131.357 142.684 131.286 142.926C131.216 143.168 131.093 143.392 130.928 143.583C130.763 143.774 130.559 143.927 130.329 144.031C130.099 144.136 129.849 144.19 129.596 144.19H120.704C120.957 144.19 121.207 144.136 121.436 144.031C121.666 143.927 121.871 143.774 122.036 143.583C122.201 143.392 122.323 143.168 122.394 142.926C122.465 142.684 122.482 142.43 122.445 142.18L115.251 93.1937C114.579 88.6148 114.81 83.949 115.93 79.4584L122.745 52.2031H131.637L124.825 79.4584C123.703 83.9488 123.472 88.6149 124.146 93.1937L131.337 142.18Z" fill="#4299D5"/>
</g>
<defs>
<filter id="filter0_d_9899_9103" x="7" y="-8" width="114.158" height="128.295" filterUnits="userSpaceOnUse" color-interpolation-filters="sRGB">
<feFlood flood-opacity="0" result="BackgroundImageFix"/>
<feColorMatrix in="SourceAlpha" type="matrix" values="0 0 0 0 0 0 0 0 0 0 0 0 0 0 0 0 0 0 127 0" result="hardAlpha"/>
<feOffset/>
<feGaussianBlur stdDeviation="12.5"/>
<feColorMatrix type="matrix" values="0 0 0 0 0.352188 0 0 0 0 0.518788 0 0 0 0 0.6125 0 0 0 0.25 0"/>
<feBlend mode="normal" in2="BackgroundImageFix" result="effect1_dropShadow_9899_9103"/>
<feBlend mode="normal" in="SourceGraphic" in2="effect1_dropShadow_9899_9103" result="shape"/>
</filter>
<clipPath id="clip0_9899_9103">
<rect width="180" height="180" fill="white"/>
</clipPath>
</defs>
</svg>
