<svg width="180" height="180" viewBox="0 0 180 180" fill="none" xmlns="http://www.w3.org/2000/svg">
<path d="M120.259 25H59.7421C56.6474 25 54.1387 27.5087 54.1387 30.6034V149.397C54.1387 152.491 56.6474 155 59.7421 155H120.259C123.354 155 125.863 152.491 125.863 149.397V30.6034C125.863 27.5087 123.354 25 120.259 25Z" fill="#208DBE"/>
<path d="M54.1387 123.336H125.863V130.06H54.1387V123.336Z" fill="#4798CC"/>
<path d="M102.327 132.586H77.6718C74.5771 132.586 72.0684 135.095 72.0684 138.189V140.431C72.0684 143.525 74.5771 146.034 77.6718 146.034H102.327C105.422 146.034 107.93 143.525 107.93 140.431V138.189C107.93 135.095 105.422 132.586 102.327 132.586Z" fill="#F2FAFF"/>
<g filter="url(#filter0_d_9899_8419)">
<path d="M152.198 40.6895H27.8017C26.2544 40.6895 25 41.9438 25 43.4912V120.819C25 122.366 26.2544 123.62 27.8017 123.62H152.198C153.746 123.62 155 122.366 155 120.819V43.4912C155 41.9438 153.746 40.6895 152.198 40.6895Z" fill="white"/>
</g>
<path d="M25 105.689V120.819C25 121.562 25.2952 122.274 25.8206 122.8C26.346 123.325 27.0587 123.62 27.8017 123.62H152.198C152.941 123.62 153.654 123.325 154.179 122.8C154.705 122.274 155 121.562 155 120.819V105.689H25Z" fill="#474748"/>
<path d="M31.7246 112.414H40.6901V116.897H31.7246V112.414Z" fill="#FFF5F1"/>
<path d="M45.1719 112.414H65.3443V116.897H45.1719V112.414Z" fill="#FFF5F1"/>
<path d="M69.8281 112.414H74.3109V116.897H69.8281V112.414Z" fill="#FFF5F1"/>
<path d="M78.793 112.414H83.2757V116.897H78.793V112.414Z" fill="#FFF5F1"/>
<path d="M47.4141 90.0007V54.1387L83.2761 72.0697L47.4141 90.0007Z" fill="#E97522"/>
<path d="M141.552 98.9648H101.207V54.1373C101.207 48.7872 103.332 43.6563 107.115 39.8732C110.898 36.0901 116.029 33.9648 121.379 33.9648C126.73 33.9648 131.86 36.0901 135.643 39.8732C139.427 43.6563 141.552 48.7872 141.552 54.1373V98.9648Z" fill="#635C5C"/>
<path d="M145.959 123.621C146.01 122.9 146.035 122.153 146.035 121.38C146.035 105.287 139.311 81.0352 121.38 81.0352C103.449 81.0352 96.7246 105.287 96.7246 121.38C96.7246 122.153 96.7498 122.9 96.8003 123.621H145.959Z" fill="#89C3E8"/>
<path d="M127.503 82.0801L128.103 83.2764L121.379 94.4833L130.344 101.207L134.516 86.6105C132.539 84.6045 130.145 83.0579 127.503 82.0801Z" fill="white"/>
<path d="M108.242 86.6105L112.414 101.207L121.379 94.4833L114.655 83.2764L115.255 82.0801C112.614 83.0579 110.219 84.6045 108.242 86.6105Z" fill="white"/>
<path d="M103.079 93.9219H102.961C98.585 102.187 96.7246 112.912 96.7246 121.379C96.7246 122.152 96.7498 122.899 96.8003 123.62H110.809L105.827 96.2221C105.71 95.578 105.371 94.9952 104.869 94.575C104.367 94.1548 103.734 93.9237 103.079 93.9219Z" fill="#6DB8E8"/>
<path d="M116.898 72.0684H125.863L128.105 83.2753L121.38 94.4822L114.656 83.2753L116.898 72.0684Z" fill="#FFC2BF"/>
<path d="M125.861 72.0684H116.895L115.525 78.9214L115.901 79.1455C117.555 80.1382 119.449 80.6626 121.378 80.6626C123.308 80.6626 125.201 80.1382 126.856 79.1455L127.231 78.9214L125.861 72.0684Z" fill="#E6B8B8"/>
<path d="M112.413 56.3788C115.186 56.3797 117.892 55.5233 120.16 53.9269C122.427 52.3304 124.146 50.072 125.08 47.4609C127.142 47.6828 129.048 48.659 130.434 50.2017C131.819 51.7444 132.586 53.7449 132.586 55.8185V66.6555C132.586 67.6232 132.335 68.5743 131.858 69.4164C131.382 70.2584 130.695 70.9627 129.865 71.4605L124.262 74.8226C123.391 75.3451 122.394 75.6211 121.379 75.6211C120.363 75.6211 119.367 75.3451 118.496 74.8226L112.892 71.4605C112.063 70.9627 111.376 70.2584 110.899 69.4164C110.422 68.5743 110.172 67.6232 110.172 66.6555V56.3788H112.413Z" fill="#FFCFCD"/>
<path d="M76.5508 87.7578H95.6025C97.0886 87.7578 98.5139 88.3482 99.5647 89.399C100.616 90.4499 101.206 91.8751 101.206 93.3613V98.9647H87.7577C84.7854 98.9647 81.9349 97.784 79.8332 95.6823C77.7315 93.5806 76.5508 90.7301 76.5508 87.7578Z" fill="#FFC2BF"/>
<path d="M101.208 98.9648H92.2422V118.017C92.2422 119.503 92.8325 120.928 93.8834 121.979C94.9343 123.03 96.3595 123.62 97.8456 123.62H105.69L101.208 98.9648Z" fill="#89C3E8"/>
<defs>
<filter id="filter0_d_9899_8419" x="9.96703" y="40.6895" width="160.066" height="118.009" filterUnits="userSpaceOnUse" color-interpolation-filters="sRGB">
<feFlood flood-opacity="0" result="BackgroundImageFix"/>
<feColorMatrix in="SourceAlpha" type="matrix" values="0 0 0 0 0 0 0 0 0 0 0 0 0 0 0 0 0 0 127 0" result="hardAlpha"/>
<feOffset dy="20.044"/>
<feGaussianBlur stdDeviation="7.51648"/>
<feComposite in2="hardAlpha" operator="out"/>
<feColorMatrix type="matrix" values="0 0 0 0 0.222083 0 0 0 0 0.291442 0 0 0 0 0.341667 0 0 0 0.15 0"/>
<feBlend mode="normal" in2="BackgroundImageFix" result="effect1_dropShadow_9899_8419"/>
<feBlend mode="normal" in="SourceGraphic" in2="effect1_dropShadow_9899_8419" result="shape"/>
</filter>
</defs>
</svg>
