<svg width="180" height="180" viewBox="0 0 180 180" fill="none" xmlns="http://www.w3.org/2000/svg">
<path d="M95.742 159.001H87.4183L84.6446 158.731C84.2771 158.73 83.9247 158.584 83.6648 158.324C83.4049 158.064 83.2585 157.711 83.2578 157.343V143.174H96.8514L97.1207 147.616V157.613C97.12 157.979 96.9748 158.331 96.7166 158.591C96.4584 158.85 96.1082 158.998 95.742 159.001Z" fill="#696969"/>
<path d="M97.1288 143.173V147.615H88.2423C88.0219 147.615 87.8106 147.703 87.6547 147.859C87.4989 148.015 87.411 148.227 87.4102 148.447V159H84.3673C83.9997 158.999 83.6474 158.852 83.3874 158.592C83.1275 158.332 82.9812 157.979 82.9805 157.611V143.173L89.8204 142.014L97.1288 143.173Z" fill="#474748"/>
<path d="M98.2389 142.896H81.8717C80.9608 142.896 80.0589 142.717 79.2174 142.368C78.376 142.019 77.6114 141.507 76.9675 140.862C76.3236 140.218 75.8129 139.452 75.4646 138.61C75.1162 137.767 74.9371 136.865 74.9375 135.953V129.013L90.1953 127.832L105.453 129.013V136.233C105.454 137.088 105.296 137.935 104.987 138.732C103.986 141.33 101.188 142.896 98.2389 142.896Z" fill="#696969"/>
<path d="M104.983 138.732C104.481 140.039 103.594 141.163 102.44 141.956C101.287 142.749 99.92 143.174 98.5205 143.174H81.5931C80.6823 143.174 79.7803 142.995 78.9387 142.646C78.0971 142.298 77.3323 141.787 76.6882 141.142C76.044 140.498 75.533 139.732 75.1843 138.89C74.8357 138.048 74.6562 137.145 74.6563 136.233V129.013L76.9452 128.137L79.0995 129.013V136.233C79.1009 136.896 79.3644 137.53 79.8322 137.999C80.3 138.467 80.9342 138.731 81.5958 138.732H104.983Z" fill="#474748"/>
<g filter="url(#filter0_d_9899_9053)">
<path d="M148.867 114.85H31.2424C30.5068 114.85 29.8013 114.558 29.2811 114.037C28.761 113.516 28.4688 112.81 28.4688 112.074V30.7186L86.4544 29.4922L151.918 30.7186V110.408L151.649 112.074C151.649 112.439 151.577 112.801 151.437 113.138C151.297 113.476 151.092 113.782 150.834 114.04C150.575 114.298 150.269 114.502 149.931 114.641C149.594 114.78 149.232 114.851 148.867 114.85Z" fill="white"/>
</g>
<path d="M151.918 110.408V112.352C151.918 113.088 151.626 113.794 151.106 114.315C150.586 114.835 149.88 115.128 149.145 115.128H30.9651C30.2294 115.128 29.524 114.835 29.0038 114.315C28.4836 113.794 28.1914 113.088 28.1914 112.352V30.7186L30.2892 29.4922L32.9066 30.7186V109.02C32.9073 109.388 33.0537 109.741 33.3136 110.001C33.5735 110.261 33.9259 110.408 34.2935 110.408H151.918Z" fill="#D2E2EB"/>
<path d="M119.045 73.3394C119.042 66.1006 116.337 59.1241 111.46 53.7789C106.583 48.4337 99.8863 45.1058 92.684 44.4483C91.8196 44.3701 90.9417 44.5399 90.0557 44.5399C74.0439 44.5399 61.7617 57.3211 61.7617 73.3475C61.7617 89.3738 74.0439 102.354 90.0557 102.354C93.8627 102.355 97.6325 101.605 101.15 100.147C104.667 98.6885 107.863 96.5513 110.555 93.8569C113.247 91.1626 115.382 87.9638 116.839 84.4434C118.295 80.923 119.045 77.1498 119.045 73.3394Z" fill="#E97522"/>
<path d="M128.754 60.1523H115.885L115.715 60.4219C113.418 60.4219 111.832 62.2843 111.832 64.5861V68.4728H132.637L132.906 64.8638V64.3085C132.904 63.2069 132.466 62.151 131.688 61.372C130.91 60.5931 129.855 60.1545 128.754 60.1523Z" fill="#208DBE"/>
<path d="M132.915 64.8718V68.4809L123.239 69.0873L111.555 68.4809V64.3166C111.555 63.2122 111.993 62.153 112.773 61.372C113.554 60.5911 114.612 60.1523 115.715 60.1523H115.885V64.039C115.885 64.2599 115.972 64.4717 116.129 64.6279C116.285 64.7841 116.496 64.8718 116.717 64.8718H132.915Z" fill="#7EB4D6"/>
<path d="M92.8288 102.222C91.916 102.311 90.9896 102.354 90.0552 102.354C82.3669 102.354 74.9935 99.2974 69.557 93.856C64.1206 88.4147 61.0664 81.0346 61.0664 73.3393C61.0664 65.644 64.1206 58.2639 69.557 52.8225C74.9935 47.3812 82.3669 44.3242 90.0552 44.3242C90.9896 44.3242 91.916 44.3673 92.8288 44.4563C85.6517 45.1441 78.9881 48.4842 74.1389 53.8247C69.2897 59.1652 66.6028 66.1227 66.6028 73.3393C66.6028 80.5558 69.2897 87.5134 74.1389 92.8539C78.9881 98.1944 85.6517 101.535 92.8288 102.222Z" fill="#EE7E3B"/>
<path d="M135.634 128.734H44.4751C43.0038 128.734 41.5928 128.149 40.5525 127.108C39.5122 126.066 38.9277 124.654 38.9277 123.181V74.31C38.9277 71.7225 40.4169 69.2724 42.8109 68.6498C43.264 68.5337 43.7299 68.4749 44.1977 68.4746H135.912C137.383 68.4746 138.794 69.0596 139.834 70.1009C140.874 71.1421 141.459 72.5544 141.459 74.027V123.459C141.46 123.927 141.401 124.394 141.284 124.847C140.681 127.241 138.219 128.734 135.634 128.734Z" fill="#696969"/>
<path d="M141.284 124.848C140.977 126.04 140.282 127.097 139.31 127.851C138.337 128.604 137.142 129.013 135.912 129.012H44.1977C42.7265 129.012 41.3155 128.427 40.2752 127.386C39.2348 126.345 38.6504 124.933 38.6504 123.46V74.0334C38.6501 72.8023 39.0587 71.606 39.8118 70.6326C40.565 69.6593 41.6199 68.964 42.8109 68.6562V123.46C42.8116 123.828 42.9579 124.181 43.2179 124.441C43.4778 124.701 43.8301 124.847 44.1977 124.848H141.284Z" fill="#474748"/>
<path d="M107.671 120.404H48.8536C48.6714 120.404 48.4909 120.368 48.3225 120.299C48.1541 120.229 48.0011 120.127 47.8722 119.998C47.7434 119.869 47.6412 119.716 47.5716 119.547C47.5021 119.379 47.4664 119.198 47.4668 119.015V78.4779C47.4664 78.2955 47.5021 78.1149 47.5716 77.9463C47.6412 77.7777 47.7434 77.6246 47.8722 77.4956C48.0011 77.3666 48.1541 77.2644 48.3225 77.1948C48.4909 77.1251 48.6714 77.0895 48.8536 77.0898L50.5178 76.8203H107.949C108.317 76.8203 108.669 76.9666 108.929 77.2269C109.189 77.4872 109.336 77.8403 109.336 78.2084V117.35L109.066 119.015C109.066 119.198 109.03 119.38 108.96 119.549C108.89 119.717 108.787 119.871 108.657 120C108.528 120.129 108.374 120.231 108.205 120.3C108.035 120.37 107.854 120.405 107.671 120.404Z" fill="white"/>
<path d="M109.335 117.35V119.293C109.335 119.662 109.189 120.015 108.929 120.275C108.669 120.535 108.316 120.681 107.949 120.681H48.5841C48.4019 120.682 48.2214 120.646 48.053 120.577C47.8845 120.507 47.7315 120.405 47.6027 120.276C47.4738 120.147 47.3717 119.994 47.3021 119.825C47.2325 119.656 47.1969 119.476 47.1973 119.293V78.2006C47.1969 78.0182 47.2325 77.8375 47.3021 77.669C47.3717 77.5004 47.4738 77.3472 47.6027 77.2183C47.7315 77.0893 47.8845 76.9871 48.053 76.9174C48.2214 76.8478 48.4019 76.8121 48.5841 76.8125H50.5257V116.517C50.5257 116.738 50.6133 116.95 50.7694 117.106C50.9254 117.262 51.1371 117.35 51.3578 117.35H109.335Z" fill="#E8E8E8"/>
<path d="M55.5164 95.5519C54.965 95.5519 54.4363 95.3326 54.0464 94.9424C53.6565 94.5522 53.4375 94.0229 53.4375 93.4711V87.916C53.4375 86.6293 53.9482 85.3953 54.8572 84.4854C55.7662 83.5756 56.9991 83.0645 58.2847 83.0645H63.8347C64.3735 83.0839 64.8837 83.3117 65.258 83.7001C65.6323 84.0884 65.8414 84.607 65.8414 85.1466C65.8414 85.6862 65.6323 86.2047 65.258 86.5931C64.8837 86.9814 64.3735 87.2093 63.8347 87.2287H58.2793C58.0957 87.2287 57.9197 87.3017 57.7899 87.4316C57.6601 87.5615 57.5872 87.7377 57.5872 87.9214V93.4765C57.5851 94.0258 57.3663 94.552 56.9785 94.9407C56.5907 95.3294 56.0652 95.549 55.5164 95.5519Z" fill="#E8E8E8"/>
<path d="M63.8396 114.436H58.2788C56.9933 114.436 55.7604 113.925 54.8513 113.015C53.9423 112.106 53.4316 110.872 53.4316 109.585V104.016C53.451 103.477 53.6787 102.966 54.0667 102.592C54.4547 102.217 54.9728 102.008 55.5119 102.008C56.051 102.008 56.5691 102.217 56.9571 102.592C57.3451 102.966 57.5727 103.477 57.5921 104.016V109.571C57.5914 109.662 57.6086 109.753 57.6427 109.837C57.6769 109.921 57.7273 109.998 57.791 110.063C57.8548 110.128 57.9307 110.179 58.0144 110.215C58.0981 110.25 58.1879 110.269 58.2788 110.27H63.8288C64.3809 110.27 64.9104 110.489 65.3007 110.88C65.6911 111.27 65.9104 111.8 65.9104 112.353C65.9104 112.906 65.6911 113.435 65.3007 113.826C64.9104 114.217 64.3809 114.436 63.8288 114.436H63.8396Z" fill="#E8E8E8"/>
<path d="M98.2383 114.436H92.691C92.1389 114.436 91.6094 114.217 91.2191 113.826C90.8287 113.435 90.6094 112.906 90.6094 112.353C90.6094 111.8 90.8287 111.27 91.2191 110.88C91.6094 110.489 92.1389 110.27 92.691 110.27H98.2383C98.4221 110.27 98.5984 110.197 98.7286 110.067C98.8588 109.937 98.9323 109.761 98.933 109.577V104.016C98.9524 103.477 99.1801 102.966 99.5681 102.592C99.9561 102.217 100.474 102.008 101.013 102.008C101.552 102.008 102.07 102.217 102.458 102.592C102.846 102.966 103.074 103.477 103.094 104.016V109.571C103.094 110.861 102.582 112.097 101.672 113.01C100.761 113.922 99.5265 114.435 98.2383 114.436Z" fill="#E8E8E8"/>
<path d="M101.013 95.5527C100.461 95.5527 99.9325 95.3335 99.5426 94.9433C99.1527 94.5531 98.9337 94.0238 98.9337 93.4719V87.9169C98.933 87.7329 98.8595 87.5568 98.7292 87.4269C98.599 87.2971 98.4227 87.2242 98.2389 87.2242H92.6916C92.4121 87.2343 92.1335 87.1879 91.8723 87.0878C91.6112 86.9877 91.3728 86.8359 91.1715 86.6416C90.9703 86.4472 90.8102 86.2143 90.7008 85.9567C90.5915 85.699 90.5352 85.422 90.5352 85.1421C90.5352 84.8622 90.5915 84.5851 90.7008 84.3275C90.8102 84.0699 90.9703 83.8369 91.1715 83.6426C91.3728 83.4482 91.6112 83.2965 91.8723 83.1964C92.1335 83.0963 92.4121 83.0499 92.6916 83.0599H98.2389C99.5245 83.0599 100.757 83.5711 101.666 84.4809C102.575 85.3908 103.086 86.6248 103.086 87.9115V93.4666C103.087 94.0182 102.869 94.5476 102.48 94.9387C102.092 95.3298 101.564 95.5506 101.013 95.5527Z" fill="#E8E8E8"/>
<path d="M133.191 112.91C133.192 111.236 132.652 109.606 131.652 108.263C130.653 106.92 129.247 105.936 127.644 105.458C126.941 105.247 126.195 105.415 125.425 105.415C121.135 105.415 117.934 108.617 117.934 112.91C117.934 117.204 121.135 120.406 125.425 120.406C126.195 120.406 126.941 120.573 127.644 120.363C129.247 119.884 130.653 118.9 131.652 117.557C132.652 116.214 133.192 114.585 133.191 112.91Z" fill="#208DBE"/>
<path d="M127.644 120.357C126.484 120.704 125.259 120.775 124.067 120.564C122.875 120.354 121.748 119.867 120.777 119.144C119.806 118.42 119.018 117.479 118.475 116.396C117.931 115.313 117.648 114.119 117.648 112.907C117.648 111.695 117.931 110.5 118.475 109.417C119.018 108.335 119.806 107.394 120.777 106.67C121.748 105.946 122.875 105.46 124.067 105.249C125.259 105.039 126.484 105.11 127.644 105.457C126.041 105.935 124.634 106.918 123.634 108.261C122.635 109.603 122.094 111.233 122.094 112.907C122.094 114.581 122.635 116.211 123.634 117.553C124.634 118.895 126.041 119.879 127.644 120.357Z" fill="#A2CDE8"/>
<path d="M133.192 96.6637H117.657C117.118 96.6443 116.608 96.4164 116.234 96.028C115.86 95.6397 115.65 95.1211 115.65 94.5815C115.65 94.0419 115.86 93.5234 116.234 93.135C116.608 92.7467 117.118 92.5188 117.657 92.4994H133.192C133.472 92.4893 133.75 92.5357 134.012 92.6358C134.273 92.7359 134.511 92.8877 134.712 93.082C134.914 93.2764 135.074 93.5093 135.183 93.7669C135.292 94.0246 135.349 94.3016 135.349 94.5815C135.349 94.8614 135.292 95.1385 135.183 95.3961C135.074 95.6538 134.914 95.8867 134.712 96.081C134.511 96.2754 134.273 96.4271 134.012 96.5272C133.75 96.6273 133.472 96.6737 133.192 96.6637Z" fill="#89C3E8"/>
<path d="M133.192 88.3336H117.657C117.118 88.3142 116.608 88.0863 116.234 87.698C115.86 87.3096 115.65 86.791 115.65 86.2514C115.65 85.7118 115.86 85.1933 116.234 84.8049C116.608 84.4166 117.118 84.1887 117.657 84.1693H133.192C133.472 84.1593 133.75 84.2057 134.012 84.3058C134.273 84.4059 134.511 84.5576 134.712 84.7519C134.914 84.9463 135.074 85.1792 135.183 85.4369C135.292 85.6945 135.349 85.9715 135.349 86.2514C135.349 86.5314 135.292 86.8084 135.183 87.066C135.074 87.3237 134.914 87.5566 134.712 87.7509C134.511 87.9453 134.273 88.097 134.012 88.1971C133.75 88.2972 133.472 88.3436 133.192 88.3336Z" fill="#89C3E8"/>
<path d="M78.4034 110.107C84.0757 110.107 88.6741 109.496 88.6741 108.743C88.6741 107.99 84.0757 107.379 78.4034 107.379C72.7311 107.379 68.1328 107.99 68.1328 108.743C68.1328 109.496 72.7311 110.107 78.4034 110.107Z" fill="#E8E8E8"/>
<path d="M88.2504 98.7455C88.25 96.4805 87.4815 94.2826 86.0706 92.5116C84.6598 90.7406 82.6902 89.5013 80.4841 88.9966C79.7705 88.8348 79.0273 89.0262 78.2652 89.0262C72.7502 89.0262 68.5547 93.2255 68.5547 98.7455C68.5547 104.266 72.7502 108.465 78.2652 108.465C78.9546 108.465 79.6278 108.672 80.2768 108.538C82.5289 108.073 84.552 106.846 86.0046 105.062C87.4573 103.278 88.2505 101.047 88.2504 98.7455Z" fill="#E97522"/>
<path d="M80.4838 108.496C79.0215 108.828 77.5033 108.826 76.0417 108.491C74.5801 108.156 73.2128 107.496 72.041 106.559C70.8692 105.623 69.9232 104.434 69.273 103.082C68.6228 101.729 68.2852 100.248 68.2852 98.7469C68.2852 97.2461 68.6228 95.7645 69.273 94.4121C69.9232 93.0597 70.8692 91.8712 72.041 90.9348C73.2128 89.9983 74.5801 89.3379 76.0417 89.0027C77.5033 88.6674 79.0215 88.6658 80.4838 88.998C78.2772 89.502 76.307 90.7411 74.8958 92.5122C73.4847 94.2833 72.7161 96.4816 72.7161 98.7469C72.7161 101.012 73.4847 103.211 74.8958 104.982C76.307 106.753 78.2772 107.992 80.4838 108.496Z" fill="#EE7E3B"/>
<path d="M153.86 30.4336H26.25C23.5679 30.4336 21.3867 28.5469 21.3867 25.8516C21.3867 23.4258 22.927 21.3854 25.2779 21.0485C25.5054 21.0163 25.7349 21.0001 25.9646 21H154.145C154.865 21.0008 155.576 21.1616 156.226 21.4708C156.876 21.78 157.45 22.2299 157.905 22.788C158.36 23.3461 158.686 23.9985 158.859 24.6979C159.032 25.3974 159.047 26.1265 158.904 26.8327C158.454 29.0482 156.208 30.4336 153.86 30.4336Z" fill="#6B6B6B"/>
<path d="M158.892 26.8295C158.671 27.9264 158.077 28.9128 157.212 29.6216C156.346 30.3305 155.263 30.7181 154.145 30.7189H25.9642C24.7183 30.749 23.5086 30.2976 22.5865 29.4585C21.6644 28.6194 21.1006 27.457 21.0122 26.2128C20.9238 24.9685 21.3177 23.738 22.1119 22.7767C22.9062 21.8155 24.0399 21.1974 25.2775 21.0508V21.9726C25.2775 23.2593 25.7882 24.4933 26.6972 25.4032C27.6062 26.313 28.8391 26.8241 30.1247 26.8241L158.892 26.8295Z" fill="#474748"/>
<defs>
<filter id="filter0_d_9899_9053" x="4.46875" y="5.49219" width="171.449" height="133.357" filterUnits="userSpaceOnUse" color-interpolation-filters="sRGB">
<feFlood flood-opacity="0" result="BackgroundImageFix"/>
<feColorMatrix in="SourceAlpha" type="matrix" values="0 0 0 0 0 0 0 0 0 0 0 0 0 0 0 0 0 0 127 0" result="hardAlpha"/>
<feOffset/>
<feGaussianBlur stdDeviation="12"/>
<feColorMatrix type="matrix" values="0 0 0 0 0.816667 0 0 0 0 0.816667 0 0 0 0 0.816667 0 0 0 0.25 0"/>
<feBlend mode="normal" in2="BackgroundImageFix" result="effect1_dropShadow_9899_9053"/>
<feBlend mode="normal" in="SourceGraphic" in2="effect1_dropShadow_9899_9053" result="shape"/>
</filter>
</defs>
</svg>
