<svg width="493" height="521" viewBox="0 0 493 521" fill="none" xmlns="http://www.w3.org/2000/svg">
<path d="M283.336 46.9646L333.102 459.74C333.848 465.929 329.573 471.477 323.585 472.07L116.304 494.779C103.606 495.567 96.6537 489.093 95.8701 482.512L43.6217 43.6627C42.8425 37.1183 49.0722 31.1916 61.8241 31.1914L270.991 35.5876C277.046 35.6887 282.594 40.8081 283.336 46.9646Z" fill="#275475"/>
<path d="M292.665 46.2516L342.704 461.093C343.454 467.313 339.165 472.89 333.155 473.487L118.262 494.837C111.525 495.506 105.351 490.643 104.563 484.028L52.021 42.9093C51.2376 36.3311 56.1861 31.0435 62.9971 31.1581L280.272 34.8164C286.349 34.9187 291.918 40.0642 292.665 46.2516Z" fill="#316594"/>
<path d="M288.589 69.1378L334.968 453.778C335.669 459.589 331.652 464.79 326.027 465.335L123.927 484.94C117.664 485.547 111.925 481.007 111.191 474.85L62.6349 67.3589C61.9048 61.2334 66.4989 56.2771 72.8254 56.3444L276.999 58.5141C282.683 58.5745 287.891 63.3549 288.589 69.1378Z" fill="url(#paint0_linear_2963_9222)"/>
<path d="M180.213 45.9697C180.478 48.178 178.89 49.9457 176.664 49.9176C174.435 49.8897 172.411 48.0731 172.146 45.8603C171.881 43.6476 173.475 41.8802 175.704 41.9125C177.931 41.9452 179.949 43.7615 180.213 45.9697Z" fill="white"/>
<g style="mix-blend-mode:soft-light" opacity="0.5">
<g style="mix-blend-mode:soft-light" opacity="0.5">
<path d="M253.646 327.329C212.272 250.994 150.465 228.145 131.857 149.474C121.798 106.949 128.651 66.2472 140.194 32.458L62.9968 31.1581C56.1859 31.0435 51.2375 36.331 52.0211 42.9092L104.563 484.028C105.351 490.643 111.525 495.506 118.262 494.837L287.189 478.054C288.438 409.655 272.089 361.355 253.646 327.329Z" fill="white"/>
</g>
</g>
<g opacity="0.8">
<path opacity="0.8" d="M264.907 274.721C264.683 272.523 262.904 270.671 260.937 270.724L145.287 273.8C143.216 273.855 141.731 275.845 141.971 278.103L143.303 290.688C143.542 292.943 145.414 294.728 147.482 294.664L262.999 291.07C264.964 291.009 266.376 289.171 266.152 286.975L264.907 274.721Z" fill="#47A7E3"/>
<path opacity="0.8" d="M256.313 301.696C256.088 299.496 254.312 297.748 252.338 297.812L160.612 300.795C158.555 300.862 157.077 302.756 157.314 305.003L163.667 365.201C163.904 367.439 165.756 369.18 167.805 369.083L259.175 364.755C261.141 364.662 262.556 362.806 262.332 360.615L256.313 301.696ZM229.558 347.452C229.851 350.282 228.007 352.488 225.448 352.601L199.567 353.749C196.976 353.864 194.638 351.827 194.34 348.975L191.337 320.127C191.039 317.27 192.9 314.722 195.496 314.629L221.434 313.701C223.998 313.609 226.318 315.988 226.611 318.824L229.558 347.452Z" fill="#47A7E3"/>
<path opacity="0.8" d="M207.424 348.096C206.929 348.109 206.436 348.022 205.975 347.841C205.514 347.659 205.094 347.386 204.742 347.038L197.158 339.837C195.575 338.333 195.31 335.801 196.567 334.182C197.825 332.565 200.124 332.473 201.704 333.976L206.422 338.467L218.15 323.325C219.396 321.717 221.674 321.632 223.239 323.132C224.803 324.632 225.063 327.149 223.821 328.756L209.86 346.818C209.573 347.197 209.206 347.509 208.785 347.729C208.364 347.95 207.899 348.075 207.424 348.096Z" fill="#47A7E3"/>
<path opacity="0.8" d="M261.643 150.346H118.691C108.95 150.346 101.495 158.213 102.565 168.223L106.696 206.812C107.763 216.789 116.915 224.953 126.614 224.798L268.961 222.523C278.04 222.378 284.694 214.402 283.724 204.801L279.969 167.585C278.996 157.954 270.759 150.346 261.643 150.346Z" fill="white"/>
</g>
<path d="M426.428 218.867C426.428 218.867 422.473 248.248 453.497 268.962L420.485 276.82C420.485 276.82 409.919 257.105 417.569 224.449L426.428 218.867Z" fill="#DB590D"/>
<path d="M420.619 224.446C420.619 224.446 418.84 220.063 419.127 218.09C419.414 216.118 424.12 213.485 427.328 210.766C430.536 208.047 427.208 213.5 426.462 214.741C425.716 215.981 423.099 217.842 423.475 222.06L420.619 224.446Z" fill="url(#paint1_linear_2963_9222)"/>
<path d="M183.277 179.904L187.274 179.848L187.497 195.535L183.499 195.592L183.38 187.143L179.651 193.494L179.247 193.5L175.363 187.278L175.482 195.705L171.463 195.762L171.24 180.074L175.26 180.017L179.352 186.662L183.277 179.904Z" fill="#303030"/>
<path d="M133.109 180.613L128.213 180.682L123.248 196.442L127.605 196.38L128.246 194.107L133.479 194.034L134.185 196.287L138.519 196.226L133.109 180.613ZM129.23 190.642L130.727 185.287L132.397 190.597L129.23 190.642Z" fill="#47A7E3"/>
<path d="M145.842 180.431L139.441 180.521L139.589 190.936L143.721 190.877L143.628 184.34L145.897 184.308C146.393 184.283 146.89 184.364 147.353 184.545C147.817 184.726 148.236 185.002 148.584 185.357C149.283 186.072 149.641 187.027 149.658 188.222C149.675 189.417 149.344 190.382 148.666 191.116C148.328 191.481 147.916 191.769 147.459 191.963C147.001 192.157 146.507 192.252 146.009 192.241L145.607 192.247L143.741 192.273L139.609 192.331L139.664 196.208L146.064 196.118C148.235 196.087 150.039 195.311 151.478 193.789C152.916 192.267 153.62 190.393 153.588 188.167C153.556 185.94 152.8 184.087 151.319 182.606C149.838 181.125 148.012 180.4 145.842 180.431Z" fill="#47A7E3"/>
<path d="M161.74 180.206L155.34 180.296L155.395 184.173L159.527 184.115L161.13 184.092L161.795 184.083C162.292 184.058 162.788 184.139 163.252 184.32C163.715 184.501 164.135 184.778 164.483 185.132C165.181 185.847 165.539 186.802 165.557 187.997C165.574 189.193 165.243 190.158 164.564 190.892C164.226 191.256 163.815 191.545 163.357 191.738C162.899 191.932 162.405 192.027 161.908 192.016L159.639 192.048L159.547 185.511L155.415 185.569L155.562 195.984L161.963 195.893C164.133 195.863 165.938 195.086 167.376 193.564C168.815 192.042 169.518 190.168 169.486 187.942C169.455 185.716 168.699 183.862 167.218 182.381C165.737 180.9 163.911 180.175 161.74 180.206Z" fill="#47A7E3"/>
<path d="M243.987 182.926L247.872 182.871L248.039 194.681L252.059 194.624L251.891 182.815L255.776 182.76L255.721 178.883L243.932 179.049L243.987 182.926Z" fill="#303030"/>
<path d="M268.023 187.797C267.744 187.224 267.309 186.741 266.768 186.403C266.281 186.083 265.766 185.809 265.229 185.584C264.623 185.351 264.006 185.15 263.378 184.983C262.311 184.684 261.592 184.418 261.222 184.184C260.852 183.95 260.664 183.661 260.66 183.318C260.656 183.174 260.687 183.031 260.749 182.902C260.812 182.772 260.905 182.659 261.02 182.573C261.337 182.353 261.719 182.245 262.105 182.266C263.242 182.25 264.067 182.821 264.577 183.98L267.918 181.96C267.415 180.861 266.587 179.941 265.544 179.326C264.475 178.717 263.258 178.416 262.028 178.457C260.471 178.479 259.178 178.945 258.151 179.856C257.123 180.768 256.619 181.948 256.64 183.397C256.659 184.741 257.093 185.785 257.942 186.528C258.791 187.27 259.938 187.84 261.381 188.239C262.403 188.508 263.064 188.701 263.365 188.816C264.073 189.09 264.43 189.458 264.437 189.921C264.447 190.624 263.838 190.983 262.61 191.001C261.128 191.021 260.085 190.341 259.482 188.96L256.074 191.003C256.512 192.176 257.333 193.168 258.405 193.817C259.508 194.504 260.89 194.835 262.552 194.812C264.349 194.786 265.787 194.333 266.868 193.451C267.948 192.569 268.478 191.359 268.456 189.82C268.462 189.122 268.314 188.431 268.023 187.797Z" fill="#303030"/>
<path d="M198.503 179.689L193.607 179.759L188.643 195.518L192.999 195.457L193.641 193.184L198.873 193.11L199.579 195.364L203.913 195.302L198.503 179.689ZM194.625 189.718L196.121 184.363L197.791 189.674L194.625 189.718Z" fill="#303030"/>
<path d="M237.082 188.759L242.494 188.682L242.442 184.985L237.029 185.061L236.999 182.887L242.972 182.803L242.919 179.061L232.926 179.202L233.148 194.889L243.254 194.746L243.201 190.981L237.115 191.067L237.082 188.759Z" fill="#303030"/>
<path d="M231.56 179.223L227.069 179.286L222.873 185.935L222.779 179.347L218.76 179.403L218.982 195.09L223.002 195.033L222.902 188.019L227.516 194.969L232.007 194.906L226.683 186.912L231.56 179.223Z" fill="#303030"/>
<path d="M214.249 189.349C215.046 188.894 215.71 188.24 216.176 187.451C216.642 186.665 216.879 185.765 216.858 184.852C216.836 183.283 216.275 181.995 215.175 180.987C214.075 179.979 212.724 179.486 211.122 179.509L210.874 179.512L210.252 179.521L208.854 179.541L206.151 179.579L204.834 179.597L205.056 195.285L209.076 195.228L209.004 190.163L210.442 190.143L213.253 195.169L217.565 195.108L214.249 189.349ZM212.385 186.237C212.233 186.402 212.045 186.531 211.837 186.615C211.628 186.7 211.404 186.737 211.179 186.725L208.956 186.757L208.942 185.731L208.906 183.238L210.305 183.218L210.927 183.21L211.129 183.207C211.355 183.196 211.58 183.233 211.79 183.315C212 183.397 212.191 183.522 212.349 183.683C212.659 184.035 212.832 184.485 212.839 184.953C212.845 185.422 212.685 185.877 212.386 186.237L212.385 186.237Z" fill="#303030"/>
<path d="M366.131 50.0375L251.793 202.594L372.426 292.626L486.764 140.07L366.131 50.0375Z" fill="white"/>
<path d="M369.337 109.687L348.094 93.832L363.982 72.6328L385.226 88.4878L369.337 109.687ZM354.724 92.8777L368.381 103.07L378.595 89.4422L364.938 79.2496L354.724 92.8777Z" fill="#D8DEE8"/>
<path d="M389.032 100.771L381.939 110.234L454.016 164.028L461.109 154.564L389.032 100.771Z" fill="#D8DEE8"/>
<path d="M344.371 142.999L323.127 127.144L339.015 105.945L360.259 121.8L344.371 142.999ZM329.758 126.19L343.414 136.382L353.628 122.754L339.971 112.562L329.758 126.19Z" fill="#D8DEE8"/>
<path d="M364.064 134.083L356.971 143.547L429.047 197.34L436.14 187.876L364.064 134.083Z" fill="#D8DEE8"/>
<path d="M319.402 176.311L298.158 160.456L314.046 139.258L335.29 155.112L319.402 176.311ZM304.789 159.502L318.445 169.694L328.659 156.067L315.003 145.874L304.789 159.502Z" fill="#D8DEE8"/>
<path d="M339.095 167.396L332.002 176.859L404.078 230.652L411.171 221.188L339.095 167.396Z" fill="#D8DEE8"/>
<path d="M294.435 209.625L273.191 193.77L289.08 172.57L310.323 188.426L294.435 209.625ZM279.822 192.815L293.479 203.008L303.692 189.38L290.036 179.187L279.822 192.815Z" fill="#D8DEE8"/>
<path d="M314.13 200.712L307.037 210.176L379.113 263.969L386.206 254.505L314.13 200.712Z" fill="#D8DEE8"/>
<path d="M353.972 96.4472L353.941 96.4245C353.668 96.2308 353.441 95.9793 353.277 95.6881C353.112 95.3968 353.015 95.073 352.99 94.7396L352.512 86.8929C352.494 86.5835 352.538 86.2737 352.64 85.9812C352.743 85.6886 352.902 85.4191 353.109 85.1881C353.316 84.9571 353.567 84.7691 353.846 84.6349C354.126 84.5007 354.43 84.4228 354.74 84.4059C355.05 84.3889 355.361 84.4332 355.653 84.536C355.946 84.6389 356.216 84.7985 356.447 85.0055C356.678 85.2126 356.866 85.4631 357 85.7427C357.134 86.0223 357.211 86.3255 357.228 86.635L357.527 91.7989L382.824 86.7846C383.129 86.7241 383.443 86.7243 383.748 86.785C384.053 86.8457 384.343 86.9658 384.602 87.1384C384.861 87.311 385.083 87.5327 385.255 87.7909C385.428 88.0491 385.548 88.3388 385.609 88.6433C385.669 88.9478 385.669 89.2612 385.608 89.5657C385.547 89.8701 385.427 90.1597 385.254 90.4177C385.081 90.6758 384.859 90.8973 384.6 91.0696C384.341 91.242 384.051 91.3618 383.746 91.4222L355.816 96.9197C355.493 96.9761 355.161 96.963 354.843 96.8816C354.525 96.8001 354.228 96.652 353.972 96.4472Z" fill="#47A7E3"/>
<path d="M303.186 164.206L303.156 164.183C302.883 163.99 302.656 163.738 302.491 163.447C302.327 163.156 302.229 162.832 302.205 162.498L301.726 154.652C301.692 154.028 301.907 153.415 302.325 152.95C302.743 152.484 303.33 152.204 303.955 152.17C304.58 152.135 305.194 152.35 305.66 152.768C306.127 153.185 306.408 153.77 306.442 154.394L306.742 159.558L332.038 154.543C332.655 154.421 333.294 154.548 333.817 154.897C334.339 155.246 334.701 155.787 334.823 156.402C334.945 157.017 334.818 157.655 334.469 158.176C334.119 158.698 333.577 159.059 332.961 159.181L305.031 164.679C304.707 164.735 304.376 164.722 304.057 164.64C303.739 164.559 303.442 164.411 303.186 164.206Z" fill="#47A7E3"/>
<path d="M278.501 197.142L278.47 197.12C278.197 196.926 277.971 196.675 277.806 196.383C277.642 196.092 277.544 195.768 277.519 195.435L277.041 187.588C277.023 187.279 277.067 186.969 277.169 186.677C277.272 186.384 277.431 186.115 277.638 185.884C277.845 185.652 278.096 185.464 278.376 185.33C278.656 185.196 278.959 185.118 279.269 185.101C279.58 185.084 279.89 185.128 280.183 185.231C280.476 185.334 280.746 185.494 280.977 185.701C281.208 185.908 281.395 186.159 281.529 186.438C281.663 186.718 281.741 187.021 281.757 187.33L282.057 192.494L307.353 187.48C307.97 187.358 308.609 187.485 309.131 187.834C309.654 188.182 310.016 188.724 310.138 189.339C310.26 189.954 310.133 190.592 309.783 191.113C309.434 191.634 308.892 191.996 308.275 192.118L280.346 197.615C280.022 197.671 279.69 197.658 279.372 197.577C279.054 197.495 278.757 197.347 278.501 197.142Z" fill="#47A7E3"/>
<path d="M342.471 140.401C342.221 140.216 342.011 139.983 341.852 139.716C341.693 139.449 341.589 139.153 341.545 138.846L337.624 111.717C337.534 111.096 337.695 110.466 338.071 109.964C338.448 109.462 339.008 109.129 339.63 109.04C340.252 108.95 340.884 109.111 341.387 109.486C341.89 109.862 342.223 110.421 342.313 111.042L346.234 138.171C346.3 138.634 346.228 139.106 346.026 139.528C345.824 139.949 345.502 140.302 345.099 140.541C344.696 140.779 344.231 140.894 343.763 140.869C343.296 140.844 342.846 140.681 342.471 140.401Z" fill="#EE6E23"/>
<path d="M326.919 128.792C326.544 128.512 326.26 128.128 326.104 127.687C325.948 127.246 325.926 126.769 326.042 126.316C326.158 125.863 326.405 125.454 326.754 125.142C327.102 124.829 327.536 124.627 327.999 124.56L355.185 120.647C355.493 120.603 355.806 120.62 356.108 120.696C356.409 120.773 356.693 120.908 356.942 121.094C357.191 121.28 357.401 121.513 357.56 121.78C357.718 122.047 357.823 122.342 357.867 122.649C357.912 122.957 357.895 123.27 357.818 123.57C357.742 123.871 357.606 124.154 357.42 124.403C357.234 124.651 357 124.861 356.733 125.019C356.465 125.178 356.169 125.282 355.861 125.326L328.676 129.239C328.368 129.284 328.054 129.267 327.753 129.191C327.451 129.114 327.168 128.979 326.919 128.792Z" fill="#EE6E23"/>
<path d="M457.345 241.464C455.196 237.242 454.31 237.266 453.782 235.037C452.58 229.958 455.684 223.507 458.317 223.417C460.015 223.359 460.155 225.992 463.748 230.097C468.15 235.124 470.822 234.464 473.412 238.829C474.018 239.849 476.745 244.445 475.068 247.874C472.928 252.251 464.489 252.944 460.962 249.568C459.289 247.967 459.992 246.667 457.345 241.464Z" fill="#303030"/>
<path d="M465.393 245.391C465.393 245.391 463.642 254.719 464.888 262.303C466.015 269.157 478.74 276.278 481.179 278.32C483.617 280.362 474.71 282.577 466.539 281.51C458.368 280.443 435.995 273.3 432.595 269.318C429.195 265.336 436.553 267.298 442.742 266.544C448.93 265.79 454.838 255.44 455.019 250.158C455.2 244.875 465.393 245.391 465.393 245.391Z" fill="url(#paint2_linear_2963_9222)"/>
<path d="M461.628 252.372C461.628 252.372 456.147 254.726 451.239 250.811C446.845 247.304 453.242 236.704 457.68 236.606C459.16 236.573 461.331 237.647 462.621 239.201C463.382 240.119 463.432 240.726 464.706 242.202C465.88 243.564 466.393 243.69 466.575 244.348C466.803 245.17 466.435 246.539 463.468 248.872C464.954 248.611 466.241 249.012 466.746 249.879C466.906 250.192 466.976 250.543 466.949 250.893C466.785 252.499 464.678 253.226 461.628 252.372Z" fill="url(#paint3_linear_2963_9222)"/>
<path d="M373.311 232.844C373.311 232.844 369.918 232.373 370.976 225.906C371.805 220.837 371.177 219.133 369.978 220.031C368.779 220.93 368.61 223.859 368.61 223.859C368.61 223.859 364.236 220.136 362.435 215.258C360.635 210.381 359.477 214.488 359.091 216.927C358.705 219.366 361.664 226.94 363.336 228.352C365.008 229.764 367.452 235.987 367.452 235.987L373.311 232.844Z" fill="url(#paint4_linear_2963_9222)"/>
<path d="M463.362 493.318C465.228 497.117 464.705 498.749 464.24 499.468C462.878 501.575 459.598 499.585 451.037 500.597C449.27 500.865 447.469 500.802 445.725 500.412C443.677 499.93 441.261 498.842 441.365 498.294C441.402 498.095 441.766 498.015 441.904 497.986C444.28 497.48 459.152 492.926 459.152 492.926L463.362 493.318Z" fill="#303030"/>
<path d="M464.505 484.963L463.177 493.456C463.177 493.456 459.521 496.035 458.56 492.904C457.869 490.653 457.889 484.584 457.889 484.584L464.505 484.963Z" fill="url(#paint5_linear_2963_9222)"/>
<path d="M433.789 486.095L437.03 494.927L441.741 494.178L440.649 486L433.789 486.095Z" fill="url(#paint6_linear_2963_9222)"/>
<path d="M438.5 499.792C440.78 497.092 442.816 497.337 443.226 495.481C443.549 494.024 442.655 492.236 441.305 491.557C439.408 490.602 437.11 492.093 436.591 492.429C433.064 494.717 434.025 498.294 430.699 499.846C430.03 500.158 428.97 500.489 427.852 501.535C427.377 501.979 426.201 503.078 426.477 503.835C426.795 504.711 428.892 504.681 430.885 504.652C433.277 504.617 434.473 504.601 435.623 503.884C437.217 502.892 436.74 501.875 438.5 499.792Z" fill="#303030"/>
<path d="M482.007 349.553C481.46 361.055 479.866 372.484 477.245 383.698C474.893 393.725 473.612 395.438 472.797 402.388C471.022 417.513 475.87 419.787 476.401 436.936C476.986 455.872 471.623 470.797 469.519 476.49C468.032 480.511 466.307 484.441 464.354 488.258C462.584 489.733 459.939 489.095 457.15 488.467C456.486 471.289 455.547 455.115 454.883 437.937C452.11 412.057 449.336 386.177 446.562 360.297C458.377 356.715 470.192 353.134 482.007 349.553Z" fill="url(#paint7_linear_2963_9222)"/>
<path style="mix-blend-mode:multiply" opacity="0.3" d="M457.15 488.467C456.486 471.289 455.547 455.115 454.883 437.937C452.11 412.057 449.336 386.177 446.562 360.297C458.377 356.715 470.192 353.134 482.007 349.553C481.963 350.44 481.9 351.294 481.846 352.165C465.079 366.077 461.615 377.308 461.61 385.019C461.604 394.372 466.627 399.115 465.335 412.648C464.411 422.324 461.455 423.969 461.268 432.715C461.028 443.976 465.735 450.411 467.954 456.969C470.098 463.307 470.718 472.232 466.042 484.808C465.435 486.104 464.864 487.263 464.354 488.258C462.584 489.733 459.939 489.096 457.15 488.467Z" fill="url(#paint8_linear_2963_9222)"/>
<path d="M461.967 359.564C451.335 372.557 445.271 384.703 441.772 393.212C437.562 403.45 434.51 411.123 435.466 421.061C436.519 431.998 441.49 435.929 444.791 445.253C447.992 454.296 449.552 468.211 441.2 488.916C439.098 489.643 436.996 490.368 434.895 491.094C433.498 485.499 431.239 477.129 427.862 467.162C421.169 447.41 414.497 434.411 412.693 430.374C406.339 416.156 405.697 390.773 432.143 341.799C442.084 347.72 452.026 353.642 461.967 359.564Z" fill="url(#paint9_linear_2963_9222)"/>
<path d="M364.801 234.967C367.598 233.012 370.396 231.056 373.194 229.102C376.598 249.984 384.336 258.179 390.908 261.764C406.764 270.413 420.914 255.001 451.263 261.291C459.626 263.023 474.203 266.252 482.286 278.141C484.41 281.266 485.166 283.632 488.694 306.05C493.204 334.707 493.365 339.708 492.729 345.878C491.565 357.171 490.86 364.014 485.642 370.07C471.788 386.154 442.34 377.861 438.648 376.77C431.828 374.754 421.228 371.62 417.016 362.627C415.035 358.395 415.245 354.527 418.291 339.052C424.324 308.397 425.094 306.414 423.411 303.057C417.728 291.728 399.721 298.21 384.509 287.676C375.615 281.516 365.589 268.094 364.801 234.967Z" fill="#EE6E23"/>
<path style="mix-blend-mode:multiply" opacity="0.3" d="M452.449 372.672C449.479 366.595 453.47 360.995 449.092 353.691C443.513 344.382 433.475 347.543 429.698 340.665C423.238 328.901 448.664 312.496 443.497 293.769C441.031 284.828 432.417 278.356 425.222 275.904C409.247 270.461 398.799 284.337 383.822 279.998C380.273 278.97 376.199 276.839 372.078 272.418C375.72 280.086 380.244 284.718 384.509 287.673C399.721 298.207 417.728 291.725 423.411 303.054C425.095 306.41 424.324 308.394 418.291 339.049C415.245 354.524 415.035 358.392 417.017 362.624C421.228 371.617 431.828 374.751 438.649 376.767C440.67 377.364 450.41 380.111 461.083 379.845C456.321 377.914 453.758 375.353 452.449 372.672Z" fill="url(#paint10_linear_2963_9222)"/>
<path d="M123.917 55.0864C123.917 87.1251 98.0459 114.823 66.0339 116.959C33.9129 119.102 7.79297 94.7107 7.79297 62.4737C7.79297 30.2367 33.9129 2.52264 66.034 0.578523C98.0459 -1.35897 123.917 23.0477 123.917 55.0864Z" fill="#303030"/>
<path d="M130.79 57.1389C130.79 89.1775 104.919 116.876 72.907 119.011C40.7859 121.154 14.666 96.763 14.666 64.5262C14.666 32.2894 40.7859 4.57535 72.907 2.63125C104.919 0.693837 130.79 25.1003 130.79 57.1389Z" fill="#47A7E3"/>
<path d="M70.8593 92.3086C69.6471 92.4025 68.4322 92.1641 67.3459 91.619C66.2597 91.0739 65.3433 90.2429 64.696 89.2158L42.8083 54.1426C40.757 50.8559 41.8623 46.3539 45.2757 44.0881C48.6863 41.8236 53.1127 42.6507 55.1613 45.9361L70.3406 70.2825L90.3695 29.5763C92.1669 25.9231 96.4856 24.2473 100.013 25.8318C103.539 27.4157 104.943 31.6588 103.148 35.3096L77.2646 87.9563C76.6884 89.1375 75.8221 90.154 74.7464 90.9113C73.6706 91.6686 72.4204 92.142 71.1121 92.2876C71.0278 92.296 70.9436 92.303 70.8593 92.3086Z" fill="white"/>
<path d="M94.8466 505.941C94.8466 505.941 94.2458 510.712 94.649 512.31C95.0525 513.908 108.95 515.063 113.668 514.507C118.385 513.951 110.858 509.143 107.852 508.24C104.847 507.338 94.8466 505.941 94.8466 505.941Z" fill="#EE6E23"/>
<path d="M101.842 497.982L100.377 507.552C100.377 507.552 96.6417 509.228 94.846 507.572L94.6484 497.555L101.842 497.982Z" fill="url(#paint11_linear_2963_9222)"/>
<path d="M44.7851 500.081C44.7851 500.081 47.5099 502.099 46.7834 504.515C46.0573 506.932 39.6993 516.614 35.1681 519.362C30.6369 522.11 32.0575 516.385 33.376 512.819C34.6946 509.253 38.0638 501.398 39.3791 500.081C40.6942 498.765 44.7851 500.081 44.7851 500.081Z" fill="#EE6E23"/>
<path d="M49.6837 490.365C48.3666 494.029 47.0998 497.041 46.1088 499.263C43.9165 504.178 42.7183 506.023 41.3613 507.622C40.1778 509.014 37.3763 511.986 36.6231 511.491C35.8582 510.99 37.908 507.377 41.8587 496.795C42.4324 495.259 44.2443 490.365 44.2443 490.365H49.6837Z" fill="url(#paint12_linear_2963_9222)"/>
<path d="M121.008 374.424C122.067 384.813 122.193 395.275 121.385 405.686C120.04 422.983 116.575 433.928 112.228 452.37C109.572 463.641 105.993 480.229 102.754 500.975C100.997 501.987 98.9534 502.386 96.9443 502.112C95.6998 501.924 94.5098 501.473 93.4545 500.789C84.9562 474.875 87.466 458.817 91.5673 448.812C93.3154 444.547 95.4349 441.182 96.5678 434.627C98.0668 425.953 96.2134 421.105 93.5701 401.014C91.6859 386.695 92.012 384.481 93.2657 382.334C98.2766 373.747 113.603 373.915 121.008 374.424Z" fill="#303030"/>
<path d="M91.7545 377.439C86.5485 404.269 81.4389 418.36 77.5721 426.33C74.7857 431.956 72.3988 437.77 70.4292 443.729C67.7665 451.776 66.6568 457.696 66.0886 460.302C64.2938 468.526 59.8576 480.534 47.9215 496.283C47.7728 496.37 45.7376 497.519 43.7917 496.495C43.0698 496.104 42.4864 495.499 42.1211 494.765C43.6815 479.707 45.4728 467.054 47.0277 457.288C47.3541 455.24 48.7907 446.279 51.0438 434.44C51.9257 429.806 53.2176 423.018 54.7653 416.045C56.6923 407.362 59.6472 395.549 64.2014 381.394C73.3857 380.076 82.57 378.757 91.7545 377.439Z" fill="#303030"/>
<path d="M96.8926 266.452C99.8451 263.729 105.494 260.589 108.327 253.291C109.18 251.094 112.201 243.31 107.744 237.356C105.099 233.822 100.185 231.422 95.8546 232.271C92.1538 232.997 91.5751 235.569 85.2864 240.746C82.8386 242.761 78.9042 246 74.5251 247.8C67.0228 250.886 62.5155 247.982 54.9835 248.313C45.7303 248.721 34.9814 253.874 29.8026 261.368C20.6107 274.667 33.9261 288.16 23.858 303.741C20.5588 308.845 18.9331 307.701 11.1193 317.583C3.29518 327.477 -0.616999 332.424 0.0791812 338.487C1.04536 346.901 10.1269 354.938 18.6789 355.484C27.033 356.019 32.3436 349.459 36.5966 352.329C39.6237 354.37 37.8928 358.341 41.108 363.114C45.2523 369.267 53.3982 370.493 54.7137 370.69C66.9247 372.529 83.3891 358.24 90.3819 341.312C102.991 310.785 80.8412 281.259 96.8926 266.452Z" fill="#515356"/>
<path d="M146.297 279.792C146.38 271.271 126.983 264.461 118.108 262.268C104.303 258.854 93.2472 260.997 90.562 261.564C73.3446 265.205 62.6215 275.515 58.5857 279.848C61.8904 281.995 71.0104 288.548 75.5271 300.978C76.9326 304.846 81.084 318.068 75.1467 330.452C71.7257 337.588 65.6736 342.946 61.0775 347.015C54.1835 353.118 50.6132 354.056 48.3019 359.524C45.7849 365.478 48.3211 368.382 45.1954 372.458C41.8386 376.835 37.9056 374.801 32.2156 379.228C26.3871 383.762 28.4613 387.494 23.1571 392.505C15.4498 399.785 5.23262 397.421 4.75679 400.697C4.34736 403.515 11.609 407.338 17.7785 408.889C29.9963 411.96 40.653 406.806 43.822 405.217C52.5957 400.818 51.0802 397.971 57.7693 394.618C68.9702 389.003 76.6249 395.251 102.137 395.895C115.952 396.243 122.937 396.321 126.765 391.657C130.26 387.397 128.422 382.723 126.325 362.583C125.327 352.997 124.967 343.355 124.231 333.746C122.15 306.564 122.086 304.172 123.934 300.413C130.552 286.951 146.223 287.439 146.297 279.792Z" fill="url(#paint13_linear_2963_9222)"/>
<g style="mix-blend-mode:multiply" opacity="0.3">
<path style="mix-blend-mode:multiply" opacity="0.3" d="M23.1569 392.505C28.4612 387.494 26.387 383.762 32.2155 379.228C37.9054 374.801 41.8384 376.836 45.1953 372.459C48.321 368.382 45.7847 365.479 48.3017 359.525C50.613 354.057 54.1832 353.119 61.0774 347.016C65.6735 342.946 71.7255 337.589 75.1465 330.453C81.0838 318.069 76.9324 304.847 75.5269 300.979C71.0103 288.549 61.8904 281.997 58.5855 279.849C58.9036 279.507 59.2789 279.117 59.6802 278.707C81.4544 281.693 94.1497 294.248 95.7198 297.966C99.3491 306.56 93.6035 309.717 93.4551 334.502C93.3845 346.348 94.6649 351.026 90.8132 355.971C86.4078 361.626 81.3311 359.876 74.9607 367.27C70.0659 372.951 70.8498 376.552 66.2794 378.946C61.3649 381.519 58.2347 378.52 52.6915 379.7C43.4312 381.67 41.4514 392.325 35.3293 398.155C30.6999 402.563 22.1405 405.645 5.26007 402.337C4.86965 401.77 4.68105 401.216 4.75665 400.697C5.23247 397.421 15.4496 399.786 23.1569 392.505Z" fill="url(#paint14_linear_2963_9222)"/>
</g>
<path d="M89.1151 304.652C91.4298 309.557 80.7936 320.981 68.972 326.406C66.5636 327.512 49.2666 335.448 41.5575 327.816C35.1875 321.51 39.2988 308.47 40.7665 303.815C47.9733 280.955 70.1063 269.327 79.3819 265.133C86.3042 282.405 82.2274 290.102 80.6227 292.505C78.9463 295.016 74.2681 300.289 69.2994 304.935C65.8044 308.202 63.6282 309.792 63.9209 310.302C64.285 310.936 68.3818 309.738 84.2939 302.009C86.1385 302.308 88.3242 302.977 89.1151 304.652Z" fill="#47A7E3"/>
<path d="M155.694 276.473L147.887 315.273C147.765 315.882 147.467 316.441 147.03 316.883C146.593 317.324 146.037 317.629 145.429 317.759L87.2132 330.226C86.7276 330.33 86.2244 330.32 85.7436 330.196C85.2629 330.071 84.8178 329.837 84.4439 329.511C84.07 329.184 83.7776 328.776 83.59 328.317C83.4023 327.858 83.3246 327.361 83.3631 326.867L86.4355 287.407C86.4871 286.739 86.7483 286.105 87.182 285.595C87.6157 285.084 88.1998 284.723 88.851 284.563C98.0855 282.288 133.63 273.771 152.377 272.664C152.865 272.635 153.353 272.718 153.803 272.906C154.254 273.095 154.655 273.385 154.976 273.753C155.297 274.121 155.528 274.558 155.653 275.03C155.777 275.501 155.792 275.995 155.694 276.473Z" fill="#EE6E23"/>
<path d="M97.136 244.77C97.136 244.77 95.7298 255.987 91.581 258.557C87.4319 261.126 80.7248 264.483 79.9859 265.395C79.2469 266.305 105.688 269.142 118.791 262.543C114.473 261.645 113.299 261.314 113.299 261.314C112.127 260.983 109.941 260.369 107.749 259.122C106.257 258.275 103.853 256.619 101.648 253.492L101.696 247.28L97.136 244.77Z" fill="url(#paint15_linear_2963_9222)"/>
<path d="M95.3271 249.617C95.3271 249.617 98.6278 254.138 103.804 252.254C108.439 250.567 105.673 238.621 101.997 237.259C100.771 236.804 98.5183 237.005 97.0132 237.942C95.9545 238.601 93.1274 242.106 94.748 246.033C93.5771 245.695 92.5464 246.002 92.2884 246.581C91.9608 247.315 92.9522 248.314 93.1769 248.541C93.7634 249.115 94.5153 249.491 95.3271 249.617Z" fill="url(#paint16_linear_2963_9222)"/>
<path style="mix-blend-mode:multiply" opacity="0.3" d="M103.268 310.02C109.52 308.261 114.705 312.63 119.687 309.173C124.789 305.632 121.459 299.584 126.764 293.636C132.436 287.277 139.631 290.392 144.881 284.597C146.83 282.445 148.583 278.939 148.61 272.962C149.925 272.835 151.185 272.734 152.376 272.664C152.864 272.635 153.352 272.718 153.803 272.906C154.253 273.095 154.654 273.385 154.975 273.753C155.296 274.121 155.527 274.558 155.652 275.029C155.777 275.501 155.791 275.995 155.694 276.473L147.886 315.273C147.764 315.881 147.466 316.441 147.029 316.883C146.593 317.324 146.036 317.629 145.428 317.759L89.4805 329.74C93.4307 315.911 98.7021 311.305 103.268 310.02Z" fill="url(#paint17_linear_2963_9222)"/>
<path d="M151.987 297.116C151.987 297.116 155.7 293.69 156.104 289.711C156.508 285.732 153.706 282.548 150.991 281.736C148.276 280.925 146.827 282.122 148.649 286.04C150.472 289.958 153.363 292.501 151.987 297.116Z" fill="url(#paint18_linear_2963_9222)"/>
<defs>
<linearGradient id="paint0_linear_2963_9222" x1="49.1728" y1="240.163" x2="252.218" y2="282.931" gradientUnits="userSpaceOnUse">
<stop stop-color="#DBEDFC"/>
<stop offset="1" stop-color="#CEDFED"/>
</linearGradient>
<linearGradient id="paint1_linear_2963_9222" x1="423.968" y1="215.503" x2="425.33" y2="235.353" gradientUnits="userSpaceOnUse">
<stop offset="0.0036" stop-color="#F36F56"/>
<stop offset="1" stop-color="#FFC444"/>
</linearGradient>
<linearGradient id="paint2_linear_2963_9222" x1="457.923" y1="246.926" x2="456.752" y2="271.571" gradientUnits="userSpaceOnUse">
<stop stop-color="#FF928E"/>
<stop offset="0.8277" stop-color="#FEB3B1"/>
</linearGradient>
<linearGradient id="paint3_linear_2963_9222" x1="460.859" y1="259.565" x2="456.522" y2="235.543" gradientUnits="userSpaceOnUse">
<stop offset="0.2552" stop-color="#FF928E"/>
<stop offset="0.8277" stop-color="#FEB3B1"/>
</linearGradient>
<linearGradient id="paint4_linear_2963_9222" x1="29445.6" y1="29977.1" x2="28650.7" y2="28710.7" gradientUnits="userSpaceOnUse">
<stop stop-color="#FF928E"/>
<stop offset="0.8277" stop-color="#FEB3B1"/>
</linearGradient>
<linearGradient id="paint5_linear_2963_9222" x1="17134.2" y1="26486.9" x2="17097.6" y2="27095" gradientUnits="userSpaceOnUse">
<stop stop-color="#FF928E"/>
<stop offset="0.8277" stop-color="#FEB3B1"/>
</linearGradient>
<linearGradient id="paint6_linear_2963_9222" x1="19491" y1="24022.9" x2="19535.8" y2="24448.6" gradientUnits="userSpaceOnUse">
<stop stop-color="#FF928E"/>
<stop offset="0.8277" stop-color="#FEB3B1"/>
</linearGradient>
<linearGradient id="paint7_linear_2963_9222" x1="464.794" y1="363.654" x2="472.644" y2="498.617" gradientUnits="userSpaceOnUse">
<stop stop-color="#47A7E3"/>
<stop offset="0.9964" stop-color="#299BE3"/>
</linearGradient>
<linearGradient id="paint8_linear_2963_9222" x1="464.794" y1="363.654" x2="472.644" y2="498.617" gradientUnits="userSpaceOnUse">
<stop stop-color="#311944"/>
<stop offset="1" stop-color="#893976"/>
</linearGradient>
<linearGradient id="paint9_linear_2963_9222" x1="3766.11" y1="343493" x2="-33126.4" y2="342898" gradientUnits="userSpaceOnUse">
<stop stop-color="#47A7E3"/>
<stop offset="0.9964" stop-color="#299BE3"/>
</linearGradient>
<linearGradient id="paint10_linear_2963_9222" x1="406.427" y1="273.362" x2="430.201" y2="397.442" gradientUnits="userSpaceOnUse">
<stop stop-color="#FF9085"/>
<stop offset="1" stop-color="#FB6FBB"/>
</linearGradient>
<linearGradient id="paint11_linear_2963_9222" x1="4525.53" y1="29598" x2="4495.22" y2="30155.8" gradientUnits="userSpaceOnUse">
<stop stop-color="#FF928E"/>
<stop offset="0.8277" stop-color="#FEB3B1"/>
</linearGradient>
<linearGradient id="paint12_linear_2963_9222" x1="4607.46" y1="56618.2" x2="3489.46" y2="58781.2" gradientUnits="userSpaceOnUse">
<stop stop-color="#FF928E"/>
<stop offset="0.8277" stop-color="#FEB3B1"/>
</linearGradient>
<linearGradient id="paint13_linear_2963_9222" x1="70978.2" y1="223498" x2="69953.6" y2="309857" gradientUnits="userSpaceOnUse">
<stop stop-color="#47A7E3"/>
<stop offset="0.9964" stop-color="#299BE3"/>
</linearGradient>
<linearGradient id="paint14_linear_2963_9222" x1="67.874" y1="260.476" x2="48.3272" y2="380.264" gradientUnits="userSpaceOnUse">
<stop stop-color="#FFC444"/>
<stop offset="0.9964" stop-color="#F36F56"/>
</linearGradient>
<linearGradient id="paint15_linear_2963_9222" x1="24581.3" y1="30719" x2="24392.3" y2="33781" gradientUnits="userSpaceOnUse">
<stop stop-color="#FF928E"/>
<stop offset="0.8277" stop-color="#FEB3B1"/>
</linearGradient>
<linearGradient id="paint16_linear_2963_9222" x1="8899.34" y1="22172.7" x2="8468.76" y2="20604.8" gradientUnits="userSpaceOnUse">
<stop stop-color="#FF928E"/>
<stop offset="0.8277" stop-color="#FEB3B1"/>
</linearGradient>
<linearGradient id="paint17_linear_2963_9222" x1="37897.8" y1="95032.6" x2="60948.2" y2="95032.6" gradientUnits="userSpaceOnUse">
<stop stop-color="#FF9085"/>
<stop offset="1" stop-color="#FB6FBB"/>
</linearGradient>
<linearGradient id="paint18_linear_2963_9222" x1="7749.01" y1="25620.4" x2="7146.57" y2="25052.9" gradientUnits="userSpaceOnUse">
<stop stop-color="#FF928E"/>
<stop offset="0.8277" stop-color="#FEB3B1"/>
</linearGradient>
</defs>
</svg>
