<svg width="295" height="202" viewBox="0 0 295 202" fill="none" xmlns="http://www.w3.org/2000/svg">
<path d="M269.041 44.9009C284.973 58.4884 293.636 75.6196 294.681 95.9971C295.843 116.474 289.18 135.04 274.808 151.794L232.441 201.183L155.922 135.923L183.273 104.04L231.882 145.496L246.898 127.992C254.084 119.614 257.425 110.555 256.804 100.716C256.183 90.8764 251.574 82.3992 242.969 75.06C234.363 67.7207 225.25 64.4949 215.405 65.4083C205.667 66.1967 197.209 70.8917 189.916 79.394L132.641 146.162C124.06 156.165 114.477 163.581 103.775 168.31C103.114 168.612 102.345 169.038 101.567 169.241C94.9416 172.035 87.9315 173.634 80.4382 174.388C75.2966 174.983 70.3515 174.879 65.5046 174.426C51.9743 173.062 39.5246 167.857 28.1552 158.81L23.7362 155.041C9.16376 141.747 1.19838 125.211 0.188899 105.73C-0.973007 85.2538 5.69036 66.6877 20.0627 49.9332L62.4291 0.544691L138.948 65.8042L111.598 97.6879L63.1046 56.3304L48.0887 73.8352C40.9025 82.2125 37.5618 91.2713 38.1828 101.111C38.8038 110.95 43.4126 119.428 52.0181 126.767C60.6235 134.106 69.7371 137.332 79.5821 136.418C89.32 135.63 97.7775 130.935 105.071 122.433L162.346 55.6645C176.718 38.9099 194.08 29.4683 214.548 27.4389C234.909 25.5344 253.109 31.3134 269.041 44.9009Z" fill="url(#paint0_linear_9899_1863)"/>
<defs>
<linearGradient id="paint0_linear_9899_1863" x1="48.6466" y1="16.6116" x2="245.739" y2="185.681" gradientUnits="userSpaceOnUse">
<stop stop-color="#B5DFFF"/>
<stop offset="0.322917" stop-color="#B5DFFF" stop-opacity="0.677083"/>
<stop offset="1" stop-color="#B5DFFF" stop-opacity="0"/>
</linearGradient>
</defs>
</svg>
