<svg width="117" height="102" viewBox="0 0 117 102" fill="none" xmlns="http://www.w3.org/2000/svg">
<g opacity="0.8" clip-path="url(#clip0_3026_170359)">
<path d="M97.4073 26.9435L29.2773 15.5825C24.3417 14.7595 19.6345 18.1659 18.8011 23.1637L13.2335 56.5539C12.4001 61.5517 15.7474 66.3012 20.683 67.1243L37.337 69.9014C38.3363 70.068 39.2741 70.6026 39.9187 71.4034L50.126 83.7257C51.4756 85.3373 53.7466 85.716 55.5461 84.6295L69.1994 76.2861C70.0689 75.7377 71.1295 75.5364 72.1287 75.7031L88.7827 78.4802C93.7184 79.3032 98.4256 75.8968 99.2589 70.899L104.827 37.5088C105.69 32.516 102.373 27.7715 97.4073 26.9435Z" fill="#E97522"/>
<path d="M37.8751 54.4358L29.0288 45.0145C28.0403 43.9823 27.3438 42.691 27.1092 41.2809C26.171 35.4727 32.7131 30.0444 38.3305 33.8071C38.4559 33.8839 38.5767 33.988 38.7244 34.0966L40.9799 35.8157L43.6711 34.9215C43.8192 34.8622 43.9627 34.8302 44.1376 34.7754C50.6765 33.0119 55.1033 40.2693 52.3268 45.4861C51.6474 46.7438 50.5695 47.7392 49.2997 48.3948L37.8751 54.4358Z" fill="white"/>
</g>
<path d="M64.9098 54.3476L70.789 50.3157C73.3972 48.5365 74.1114 47.1714 74.3798 45.5616C74.8535 42.7208 72.9243 40.5742 69.468 39.9979C66.8877 39.5676 64.5321 40.1237 62.9893 41.4967L64.3662 43.1618C65.5894 42.1006 67.1282 41.7732 68.9037 42.0693C71.2236 42.4561 72.2573 43.6991 71.9731 45.4035C71.7994 46.4452 71.2943 47.4315 69.2582 48.8439L61.4259 54.2289L61.1575 55.8387L73.065 57.8243L73.4085 55.7648L64.9098 54.3476ZM77.2791 41.4951L76.4423 46.5138L78.7149 46.8927L79.2083 43.9336L86.7837 45.1968L77.8065 58.615L80.3159 59.0334L89.5101 45.1892L89.7785 43.5794L77.2791 41.4951Z" fill="white"/>
<defs>
<clipPath id="clip0_3026_170359">
<rect width="103.408" height="85.3295" fill="white" transform="matrix(0.98638 0.164483 -0.164474 0.986381 15 0)"/>
</clipPath>
</defs>
</svg>
