<svg width="273" height="30" viewBox="0 0 273 30" fill="none" xmlns="http://www.w3.org/2000/svg">
<path d="M113.234 0.621094L120.732 0.621094V29.3766H113.234V13.8853L106.039 25.4464H105.3L98.1721 13.9508V29.3766H90.6074V0.621094L98.1721 0.621094L105.669 12.9028L113.234 0.621094Z" fill="white" fill-opacity="0.9"/>
<path d="M18.9621 0.621094L9.75 0.621094L0 29.3766H8.20345L9.48103 25.2172H19.2983L20.5759 29.3766H28.7121L18.9621 0.621094ZM11.3974 18.8962L14.356 9.10363L17.3483 18.8962H11.3974Z" fill="white" fill-opacity="0.9"/>
<path d="M42.8659 0.621094L30.8633 0.621094V19.715H38.6297V7.72808L42.8995 7.72808C44.9503 7.72808 46.6314 8.3831 47.909 9.7259C49.1866 11.0687 49.859 12.8045 49.859 14.9988C49.859 17.1931 49.2202 18.9617 47.909 20.2718C46.5978 21.6145 44.9503 22.2696 42.8995 22.2696H42.1598H38.6633H30.8633L30.8633 29.3766H42.8995C46.9676 29.3766 50.3969 28.001 53.1202 25.2499C55.8771 22.4988 57.2219 19.0927 57.2219 14.9988C57.2219 10.9049 55.8435 7.49882 53.1202 4.74773C50.3633 1.99664 46.9676 0.621094 42.8659 0.621094Z" fill="white" fill-opacity="0.9"/>
<path d="M72.755 0.621094L60.7188 0.621094V7.72808H68.4851L71.511 7.72808H72.755C74.8058 7.72808 76.4869 8.3831 77.7644 9.7259C79.042 11.0687 79.7144 12.8045 79.7144 14.9988C79.7144 17.1931 79.0756 18.9617 77.7644 20.2717C76.4532 21.6145 74.8058 22.2696 72.755 22.2696H68.4851V10.2827H60.7188V29.3766H72.755C76.8231 29.3766 80.2524 28.001 82.9756 25.2499C85.7325 22.4988 87.0774 19.0927 87.0774 14.9988C87.0774 10.9049 85.6989 7.49882 82.9756 4.74773C80.2524 1.99664 76.8231 0.621094 72.755 0.621094Z" fill="white" fill-opacity="0.9"/>
<path d="M227.209 7.72808H234.505V29.3766H242.069V7.72808H249.365V0.621094L227.209 0.621094V7.72808Z" fill="white" fill-opacity="0.9"/>
<path d="M272.227 17.2926C271.723 16.2445 270.949 15.3603 269.907 14.7052C268.865 14.0502 267.924 13.5262 267.049 13.1659C266.175 12.8057 265.032 12.4127 263.587 12.0197C261.603 11.4301 260.258 10.9389 259.552 10.5131C258.846 10.0873 258.51 9.53057 258.51 8.9083C258.51 8.35153 258.745 7.89301 259.216 7.5655C259.687 7.20524 260.359 7.04148 261.267 7.04148C263.418 7.04148 264.931 8.12227 265.873 10.2511L272.193 6.64847C271.185 4.51965 269.705 2.8821 267.789 1.76856C265.906 0.556769 263.687 0 261.233 0C258.308 0 255.854 0.818777 253.904 2.45633C251.954 4.09389 250.979 6.25546 250.979 8.9083C250.979 11.3646 251.752 13.2969 253.332 14.6725C254.912 16.048 257.03 17.1288 259.754 17.9148C261.67 18.4389 262.914 18.7991 263.452 19.0284C264.763 19.5524 265.436 20.2402 265.436 21.0917C265.436 22.369 264.293 23.024 261.973 23.024C259.182 23.024 257.232 21.7467 256.156 19.1921L249.701 22.8603C250.508 25.0546 251.954 26.7904 254.005 28.0677C256.055 29.345 258.644 30 261.771 30C265.133 30 267.856 29.214 269.907 27.6092C271.958 26.0044 273 23.81 273 20.9935C273 19.5852 272.731 18.3406 272.227 17.2926Z" fill="white" fill-opacity="0.9"/>
<path d="M141.845 0.621094L132.633 0.621094L122.883 29.4093H131.086L132.364 25.2499H142.181L143.459 29.4093H151.595L141.845 0.621094ZM134.28 18.8962L137.239 9.10363L140.231 18.8962H134.28Z" fill="white" fill-opacity="0.9"/>
<path d="M214.096 18.2412H224.249V11.4617H214.096V7.46607L225.292 7.46607V0.621094L206.531 0.621094V29.3766H225.527V22.4988H214.096V18.2412Z" fill="white" fill-opacity="0.9"/>
<path d="M203.943 0.621094L195.504 0.621094L187.469 12.7062V0.621094L179.904 0.621094V29.3766H187.469V16.5381L195.941 29.3766H204.38L194.597 14.6058L203.943 0.621094Z" fill="white" fill-opacity="0.9"/>
<path d="M171.164 18.7339C172.711 17.8824 173.921 16.7361 174.829 15.2951C175.736 13.854 176.173 12.282 176.173 10.5462C176.173 7.66408 175.165 5.306 173.114 3.40644C171.063 1.53963 168.542 0.589844 165.549 0.589844L165.079 0.589844H163.902L161.28 0.589844L156.203 0.589844L153.715 0.589844V29.3781H161.28V20.1095H163.969L169.113 29.4108H177.216L171.164 18.7339ZM167.735 13.0025C167.13 13.592 166.39 13.8868 165.448 13.854H161.28V11.9872V7.40207H163.902L165.079 7.40207H165.448C166.39 7.40207 167.13 7.69683 167.735 8.3191C168.34 8.90862 168.609 9.69465 168.609 10.6772C168.642 11.5942 168.34 12.3802 167.735 13.0025Z" fill="white" fill-opacity="0.9"/>
</svg>
