<svg width="539" height="361" viewBox="0 0 539 361" fill="none" xmlns="http://www.w3.org/2000/svg">
<path d="M531.488 320.179L39.0312 315.887V328.672C39.0312 332.142 41.1385 335.065 44.0703 335.613L183.333 360.726C184.982 361 186.631 361.092 188.372 361L526.174 332.325C529.198 332.051 531.488 329.129 531.488 325.567V320.179Z" fill="#BFC8D6"/>
<path d="M352.738 299.449L44.0706 322.828C38.5734 323.284 34.084 318.81 34.084 312.874V76.7121C34.084 70.7761 38.5734 66.0273 44.0706 66.0273H352.738C357.319 66.0273 360.984 70.3195 360.984 75.7076V289.312C360.984 294.518 357.319 299.175 352.738 299.449Z" fill="#BFC8D6"/>
<path d="M357.685 299.449L49.0178 322.828C43.5206 323.284 39.0312 318.81 39.0312 312.874V76.7121C39.0312 70.7761 43.5206 66.0273 49.0178 66.0273H357.685C362.266 66.0273 365.931 70.3195 365.931 75.7076V289.312C365.931 294.518 362.266 299.175 357.685 299.449Z" fill="white"/>
<path d="M348.064 284.471L60.5604 304.745C56.071 305.019 52.4062 301.457 52.4062 296.617V89.7701C52.4062 84.93 56.071 81.0031 60.5604 81.0031L348.064 79.7246C351.82 79.7246 354.844 83.2862 354.844 87.6697V276.069C354.844 280.361 351.82 284.197 348.064 284.471Z" fill="#D8DEE8"/>
<path d="M214.209 72.4191C214.209 74.6108 212.651 76.4373 210.636 76.4373C208.712 76.4373 207.062 74.7022 207.062 72.5104C207.062 70.3187 208.62 68.4922 210.636 68.4922C212.651 68.4922 214.209 70.2273 214.209 72.4191Z" fill="white"/>
<path opacity="0.48" d="M283.29 234.701C259.469 221.002 240.778 238.353 222.729 221.185C211.826 210.774 217.14 203.011 203.672 187.487C188.738 170.318 179.026 176.071 164.001 160.638C145.035 141.094 154.564 125.843 138.164 111.78C118.374 94.7023 97.0267 110.501 78.153 94.1544C69.9988 87.1225 65.601 76.8943 63.2189 65.9355H44.8949C41.6882 65.9355 39.0312 68.7666 39.0312 72.2368V317.165C39.0312 320.635 41.6882 323.193 44.8949 323.01L359.518 299.083C361.075 298.992 362.45 297.987 363.274 296.618C340.278 295.704 326.076 287.485 317.098 278.901C299.323 262.189 302.347 245.659 283.29 234.701Z" fill="white"/>
<path d="M369.962 298.445L39.0312 323.011L183.333 349.038C184.982 349.312 186.631 349.403 188.372 349.312L531.58 320.18L375.276 298.627C373.536 298.353 371.703 298.262 369.962 298.445Z" fill="url(#paint0_linear_3026_170306)"/>
<path d="M87.3145 323.65L362.816 302.828L448.114 314.517L174.903 336.709L87.3145 323.65Z" fill="#D8DEE8"/>
<g opacity="0.75">
<path opacity="0.75" d="M111.045 97.2599L79.4355 97.3512V87.123H111.045V97.2599Z" fill="white"/>
<path opacity="0.75" d="M276.968 96.6206L131.201 97.1686V87.123H276.968V96.6206Z" fill="white"/>
<path opacity="0.75" d="M161.712 113.972L131.201 114.338V104.292L161.712 104.109V113.972Z" fill="white"/>
<path opacity="0.75" d="M322.044 112.512L181.133 113.79V103.927L322.044 103.105V112.512Z" fill="white"/>
<path opacity="0.75" d="M161.712 130.958L131.201 131.415V121.369L161.712 121.004V130.958Z" fill="white"/>
<path opacity="0.75" d="M322.044 128.492L181.133 130.684V120.821L322.044 119.086V128.492Z" fill="white"/>
<path opacity="0.75" d="M111.045 148.95L79.4355 149.68V139.452L111.045 138.904V148.95Z" fill="white"/>
<path opacity="0.75" d="M276.968 145.478L131.201 148.583V138.537L276.968 135.889V145.478Z" fill="white"/>
<path opacity="0.75" d="M161.712 164.839L131.201 165.661V155.707L161.712 154.977V164.839Z" fill="white"/>
<path opacity="0.75" d="M322.044 160.456L181.133 164.382V154.52L322.044 151.141V160.456Z" fill="white"/>
<path opacity="0.75" d="M161.712 181.825L131.201 182.83V172.784L161.712 171.871V181.825Z" fill="white"/>
<path opacity="0.75" d="M322.044 176.529L181.133 181.187V171.324L322.044 167.123V176.529Z" fill="white"/>
<path opacity="0.75" d="M161.712 198.812L131.201 199.999V189.953L161.712 188.857V198.812Z" fill="white"/>
<path opacity="0.75" d="M322.044 192.51L181.133 197.989V188.126L322.044 183.104V192.51Z" fill="white"/>
<path opacity="0.75" d="M211.094 213.514L181.592 214.792V205.021L211.094 203.742V213.514Z" fill="white"/>
<path opacity="0.75" d="M343.575 207.487L229.875 212.693V203.012L343.575 198.264V207.487Z" fill="white"/>
<path opacity="0.75" d="M111.045 235.249L79.4355 236.892V226.664L111.045 225.203V235.249Z" fill="white"/>
<path opacity="0.75" d="M276.968 226.847L131.201 234.244V224.198L276.968 217.258V226.847Z" fill="white"/>
<path opacity="0.75" d="M161.712 249.679L131.201 251.414V241.368L161.712 239.725V249.679Z" fill="white"/>
<path opacity="0.75" d="M322.044 240.545L181.133 248.49V238.627L322.044 231.139V240.545Z" fill="white"/>
<path opacity="0.75" d="M161.712 266.574L131.201 268.492V258.446L161.712 256.711V266.574Z" fill="white"/>
<path opacity="0.75" d="M322.044 256.527L181.133 265.386V255.523L322.044 247.121V256.527Z" fill="white"/>
<path opacity="0.75" d="M111.045 287.029L79.4355 289.221V278.993L111.045 276.893V287.029Z" fill="white"/>
<path opacity="0.75" d="M276.968 275.613L131.201 285.658V275.613L276.968 266.115V275.613Z" fill="white"/>
</g>
<path d="M476.15 154.611C476.15 154.611 483.296 145.753 496.672 145.205C510.049 144.657 528.281 136.347 536.069 135.525C537.993 135.342 538.909 134.794 539.093 134.064C539.459 132.602 530.755 130.593 523.059 130.411C509.408 130.045 501.437 135.525 499.604 132.785C497.589 129.68 506.384 121.187 504.735 119.361C503.452 117.899 497.497 122.648 491.084 125.571C486.503 127.671 468.637 149.68 468.637 149.68L476.15 154.611Z" fill="url(#paint1_linear_3026_170306)"/>
<path d="M485.129 149.953C484.396 186.3 466.713 219.268 438.402 235.523C437.211 236.162 436.02 236.802 434.829 237.441C383.156 263.742 331.299 219.268 325.069 213.697C323.419 212.236 315.723 205.204 307.661 193.515C298.59 180.364 289.062 161.369 287.504 137.899C286.863 128.31 284.756 98.9952 300.056 90.1369C315.723 81.0046 340.736 98.7213 350.814 105.936C393.692 136.438 394.7 173.789 418.338 177.624C428.874 179.359 445.732 174.519 470.928 140.456C475.692 143.652 480.456 146.848 485.129 149.953Z" fill="#4299D5"/>
<path opacity="0.3" d="M438.404 235.614C437.213 236.253 436.022 236.893 434.831 237.532C383.157 263.833 331.3 219.359 325.07 213.788C323.421 212.327 315.725 205.295 307.662 193.606C310.136 182.282 313.526 167.305 313.526 167.305C313.526 167.305 335.698 164.565 346.234 190.775C350.082 200.272 354.663 209.496 362.451 216.162C370.33 222.92 376.377 221.824 386.272 220.272C395.342 218.902 404.871 225.751 412.75 229.13C420.996 232.601 429.425 236.162 438.404 235.614Z" fill="#288CCA"/>
<path d="M158.869 297.805C159.785 297.714 160.701 297.531 161.618 297.44C161.984 297.44 162.351 297.348 162.717 297.348C163.45 297.348 164.091 297.348 164.733 297.348L316.73 286.572C321.128 247.943 322.96 246.938 324.976 218.354C326.992 189.131 326.717 164.382 325.984 146.117C322.777 127.853 323.144 107.305 319.937 89.0405C306.652 85.1136 290.252 82.0999 272.295 79.9082C258.735 78.2644 244.259 77.0772 229.508 76.3466C201.656 74.9767 176.185 76.8945 153.738 80.4561C128.818 84.383 107.654 90.4103 91.0703 96.0724C97.7586 110.867 106.462 131.871 114.8 157.898C128.085 199.45 138.438 231.87 139.079 274.244C139.171 278.718 139.171 287.211 139.354 299.083L158.869 297.805Z" fill="#4299D5"/>
<path d="M227.493 24.9316C226.943 37.9908 224.928 48.3103 223.278 55.3422C221.354 63.3787 220.072 65.3878 218.606 67.0316C216.315 69.4973 213.017 71.4151 194.601 74.8854C184.615 76.8031 183.332 76.6205 183.057 77.6251C181.775 82.4652 207.795 101.004 235.83 98.7207C253.055 97.3508 269.088 88.2185 268.355 82.9218C267.714 77.5337 250.49 79.3602 245.909 69.406C242.702 62.4654 247.191 53.2418 252.23 45.7533C248.199 36.8036 231.524 33.9726 227.493 24.9316Z" fill="url(#paint2_linear_3026_170306)"/>
<path d="M261.302 37.2605C267.349 32.9683 270.922 23.0141 268.174 15.069C265.792 8.21976 259.561 5.29743 255.805 3.47097C244.902 -1.64312 229.052 -1.5518 220.623 7.48918C215.584 12.8772 217.6 28.2195 217.874 30.9592C218.149 34.0642 219.89 35.6167 221.081 38.3564C222.822 42.1006 225.387 47.9453 229.693 57.7169C230.976 55.7077 232.625 53.242 234.824 50.685C235.649 49.6804 239.13 45.8449 243.253 43.1965C251.499 37.6258 255.622 41.37 261.302 37.2605Z" fill="#30302F"/>
<path d="M261.302 37.2605C267.349 32.9683 270.922 23.0141 268.174 15.069C265.792 8.21976 259.561 5.29743 255.805 3.47097C244.902 -1.64312 229.052 -1.5518 220.623 7.48918C215.584 12.8772 217.6 28.2195 217.874 30.9592C218.149 34.0642 219.89 35.6167 221.081 38.3564C222.822 42.1006 225.387 47.9453 229.693 57.7169C230.976 55.7077 232.625 53.242 234.824 50.685C235.649 49.6804 239.13 45.8449 243.253 43.1965C251.499 37.6258 255.622 41.37 261.302 37.2605Z" fill="black" fill-opacity="0.2"/>
<path d="M222.088 48.1286C222.088 48.1286 225.386 63.2883 240.504 67.2152C254.063 70.7768 266.066 40.7315 259.744 31.3252C257.637 28.2202 252.231 25.3892 247.192 25.2065C244.26 25.1152 242.886 25.9371 238.03 25.6632C233.541 25.3892 232.533 24.5673 230.975 25.2065C228.96 26.0285 226.761 28.9508 226.394 38.8137C224.745 35.3434 221.996 33.243 219.523 33.6083C219.156 33.6996 217.965 33.9736 217.141 34.7955C214.3 37.6265 215.95 43.1972 222.088 48.1286Z" fill="url(#paint3_linear_3026_170306)"/>
<path d="M231.066 23.1056C231.525 23.8362 228.776 25.6626 227.493 29.0416C225.019 35.7082 228.959 46.119 235.464 49.0413C239.312 50.7765 241.237 48.6761 248.108 50.1372C252.323 51.0505 255.621 52.7856 257.545 53.9728C257.179 62.1005 252.781 68.8585 246.917 70.6849C240.504 72.6027 234.64 68.1279 232.258 66.3014C230.608 65.0229 225.386 61.096 224.103 54.4294C222.82 47.4889 227.127 45.0231 224.745 39.8177C223.553 37.1694 221.354 35.5255 220.255 30.8681C219.98 29.5895 219.797 28.4937 219.797 27.8544C224.286 25.206 230.333 22.101 231.066 23.1056Z" fill="#30302F"/>
<path d="M231.066 23.1056C231.525 23.8362 228.776 25.6626 227.493 29.0416C225.019 35.7082 228.959 46.119 235.464 49.0413C239.312 50.7765 241.237 48.6761 248.108 50.1372C252.323 51.0505 255.621 52.7856 257.545 53.9728C257.179 62.1005 252.781 68.8585 246.917 70.6849C240.504 72.6027 234.64 68.1279 232.258 66.3014C230.608 65.0229 225.386 61.096 224.103 54.4294C222.82 47.4889 227.127 45.0231 224.745 39.8177C223.553 37.1694 221.354 35.5255 220.255 30.8681C219.98 29.5895 219.797 28.4937 219.797 27.8544C224.286 25.206 230.333 22.101 231.066 23.1056Z" fill="black" fill-opacity="0.2"/>
<path d="M251.863 55.159C251.863 55.159 248.473 55.707 243.617 53.7892C243.342 53.6979 243.068 53.6979 242.976 53.7892C242.701 54.2458 245.175 57.4421 248.382 57.6248C250.672 57.7161 252.963 56.2549 252.78 55.6157C252.78 55.3417 252.321 55.2504 251.863 55.159Z" fill="url(#paint4_linear_3026_170306)"/>
<path opacity="0.6" d="M199.091 294.975L164.917 297.349C164.275 297.349 163.543 297.349 162.901 297.349C162.535 297.349 162.168 297.349 161.802 297.441C160.886 297.532 159.969 297.715 159.053 297.806H158.962L139.446 299.176C139.263 287.304 139.263 278.811 139.172 274.336C138.622 239.633 131.659 211.597 121.855 179.817C135.873 173.515 143.386 174.794 147.509 177.899C159.236 186.392 146.41 208.675 159.694 232.967C173.712 258.628 199.824 255.615 203.764 274.336C205.138 281.368 202.847 288.4 199.091 294.975Z" fill="#306694"/>
<path d="M121.397 270.772L136.514 270.133C136.514 270.133 153.097 255.978 160.702 256.983C168.306 257.987 179.576 263.558 180.95 264.745C182.324 265.932 176.827 272.234 171.33 271.503C165.833 270.772 153.464 273.695 151.265 278.718C149.066 283.74 139.538 286.663 137.888 283.649L117.549 287.576L121.397 270.772Z" fill="url(#paint5_linear_3026_170306)"/>
<path d="M123.321 270.409C124.054 279.267 122.221 285.203 119.106 289.313C105.363 307.395 58.6372 299.267 30.968 274.518C10.4452 256.254 -0.365995 228.035 0.0921046 202.921C0.916684 153.972 44.6194 106.301 109.944 90.2285C119.656 120.274 127.077 145.205 136.697 175.342C97.9422 181.186 74.121 211.871 77.7858 234.336C80.4428 251.14 99.3165 266.391 123.321 270.409Z" fill="#4299D5"/>
<defs>
<linearGradient id="paint0_linear_3026_170306" x1="38.9958" y1="323.864" x2="531.482" y2="323.864" gradientUnits="userSpaceOnUse">
<stop offset="0.494" stop-color="#EBEFF2"/>
<stop offset="1" stop-color="white"/>
</linearGradient>
<linearGradient id="paint1_linear_3026_170306" x1="501.807" y1="153.625" x2="504.321" y2="138.809" gradientUnits="userSpaceOnUse">
<stop stop-color="#F5928F"/>
<stop offset="1" stop-color="#F8B2B1"/>
</linearGradient>
<linearGradient id="paint2_linear_3026_170306" x1="221.799" y1="100.694" x2="230.658" y2="55.4083" gradientUnits="userSpaceOnUse">
<stop stop-color="#F5928F"/>
<stop offset="1" stop-color="#F8B2B1"/>
</linearGradient>
<linearGradient id="paint3_linear_3026_170306" x1="238.069" y1="12.0126" x2="238.738" y2="41.7549" gradientUnits="userSpaceOnUse">
<stop stop-color="#F5928F"/>
<stop offset="1" stop-color="#F8B2B1"/>
</linearGradient>
<linearGradient id="paint4_linear_3026_170306" x1="250.098" y1="50.0522" x2="243.219" y2="65.3188" gradientUnits="userSpaceOnUse">
<stop stop-color="#F5928F"/>
<stop offset="1" stop-color="#F8B2B1"/>
</linearGradient>
<linearGradient id="paint5_linear_3026_170306" x1="150.783" y1="280.637" x2="144.613" y2="261.723" gradientUnits="userSpaceOnUse">
<stop stop-color="#F5928F"/>
<stop offset="1" stop-color="#F8B2B1"/>
</linearGradient>
</defs>
</svg>
