<svg width="74" height="73" viewBox="0 0 74 73" fill="none" xmlns="http://www.w3.org/2000/svg">
<path fill-rule="evenodd" clip-rule="evenodd" d="M71.2458 12.4462C70.3148 10.0755 69.0875 8.06465 67.0772 6.05378C65.067 4.04291 63.0568 2.81522 60.6868 1.88387C58.4015 0.994851 55.7777 0.402174 51.9265 0.21167C48.0753 0.0423341 46.848 0 37.0509 0C27.2537 0 26.0264 0.0423341 22.1752 0.21167C18.3452 0.402174 15.7213 0.994851 13.4149 1.90503C11.0449 2.83638 9.03471 4.06407 7.02448 6.07494C5.01426 8.08581 3.78697 10.0967 2.85592 12.4674C1.96719 14.7534 1.3747 17.3781 1.18426 21.2094C1.01498 25.0618 0.972656 26.2895 0.972656 36.0898C0.972656 45.8902 1.01498 47.1179 1.18426 50.9703C1.3747 54.8227 1.96719 57.4474 2.87708 59.7334C3.80813 62.1041 5.03542 64.115 7.04564 66.1259C9.05587 68.1367 11.0661 69.3644 13.436 70.2958C15.7213 71.1848 18.3452 71.7986 22.1964 71.968C26.0475 72.1373 27.2748 72.1796 37.072 72.1796C46.8692 72.1796 48.0965 72.1373 51.9477 71.968C55.7777 71.7986 58.4015 71.1848 60.708 70.2958C63.0779 69.3644 65.0882 68.1367 67.0984 66.1259C69.1086 64.115 70.3359 62.1041 71.267 59.7334C72.1557 57.4474 72.7693 54.8227 72.9386 50.9703C73.1079 47.1179 73.1502 45.8902 73.1502 36.0898C73.1502 26.2895 73.1079 25.0618 72.9386 21.2094C72.7482 17.3781 72.1345 14.7534 71.2458 12.4462ZM37.0509 54.6322C26.8093 54.6322 18.5145 46.3347 18.5145 36.0898C18.5145 25.845 26.8093 17.5475 37.0509 17.5475C47.2924 17.5475 55.5872 25.845 55.5872 36.0898C55.5872 46.3347 47.2924 54.6322 37.0509 54.6322ZM56.3278 21.167C53.9367 21.167 51.99 19.2197 51.99 16.8278C51.99 14.4359 53.9367 12.4886 56.3278 12.4886C58.7189 12.4886 60.6657 14.4359 60.6657 16.8278C60.6445 19.2197 58.7189 21.167 56.3278 21.167ZM49.091 36.0898C49.091 42.7363 43.7163 48.1127 37.072 48.1127C30.4277 48.1127 25.053 42.7363 25.053 36.0898C25.053 29.4434 30.4277 24.0669 37.072 24.0669C43.6952 24.0669 49.091 29.4434 49.091 36.0898Z" fill="#83BCDC"/>
</svg>
