<svg width="84" height="65" viewBox="0 0 84 65" fill="none" xmlns="http://www.w3.org/2000/svg">
<path fill-rule="evenodd" clip-rule="evenodd" d="M83.5936 4.7451C83.385 7.54708 81.6645 17.3418 79.9701 27.9162L74.6261 59.2984C74.6261 59.2984 74.209 63.9034 70.5595 64.6831C66.936 65.4871 60.9404 61.8811 59.8716 61.0771C59.0113 60.4679 43.8397 51.4773 38.2872 47.0916C36.8013 45.8977 35.0808 43.4855 38.4957 40.7079C46.1858 34.105 55.3878 25.9183 60.9404 20.7286C63.495 18.3408 66.0758 12.7368 55.3879 19.5347L25.2531 38.515C25.2531 38.515 21.8382 40.513 15.4254 38.71C9.01267 36.907 1.53113 34.5192 1.53113 34.5192C1.53113 34.5192 -3.60429 31.5223 5.15459 28.3305L54.9708 9.15516C59.8976 7.15723 76.5552 0.773586 76.5552 0.773586C76.5552 0.773586 84.2453 -2.02838 83.5936 4.7451Z" fill="#83BCDC"/>
</svg>
